<svg width="360" height="246" viewBox="0 0 360 246" fill="none" xmlns="http://www.w3.org/2000/svg">
<path d="M31.7339 38.0119H44.7621V32.5064H31.7339V38.0119Z" fill="#EBEBEB"/>
<path d="M39.0008 25.584L45.4558 25.4462L48.7375 25.3921C49.8297 25.3921 50.9318 25.3921 52.0289 25.3626H52.2454V25.584V31.0895V31.3355H51.9994L45.4853 31.301C43.3156 31.301 41.141 31.2469 38.9713 31.2223H38.8335V31.0895C38.8335 30.1547 38.8729 29.2248 38.8975 28.3048L39.0008 25.584ZM39.0008 25.584L39.0697 28.3638C39.0697 29.2789 39.1238 30.1891 39.1336 31.0895L39.0008 30.9517C41.1705 30.9271 43.3451 30.8779 45.5149 30.873L52.0289 30.8435L51.7829 31.0895L51.8075 25.584L52.0289 25.8005C50.9564 25.8005 49.8838 25.8005 48.8063 25.8005L45.5739 25.7464L39.0008 25.584Z" fill="#EBEBEB"/>
<path d="M24.4671 25.584L30.932 25.4315L34.2087 25.3774C35.3059 25.3774 36.4079 25.3774 37.5051 25.3478H37.7216V25.584L37.7511 31.0895V31.3355H37.5051L30.9812 31.2863C28.8065 31.2863 26.6368 31.2322 24.4671 31.2076H24.3293V31.0747C24.3293 30.1399 24.3736 29.21 24.3933 28.29L24.4671 25.584ZM24.4671 25.584L24.536 28.349C24.536 29.2642 24.5901 30.1744 24.5999 31.0747L24.4671 30.937C26.6368 30.9124 28.8065 30.8632 30.9812 30.8582L37.4953 30.8287L37.2493 31.0747V25.5692L37.4707 25.7857C36.3932 25.7857 35.3255 25.7857 34.2481 25.7857L31.0107 25.7316L24.4671 25.584Z" fill="#EBEBEB"/>
<path d="M302.693 72.0239L309.148 71.8861L312.425 71.832C313.522 71.8074 314.624 71.832 315.721 71.8074H315.938V72.0288L315.967 77.5343V77.7803H315.721L309.207 77.736C307.038 77.736 304.863 77.677 302.693 77.6524H302.555V77.5195C302.555 76.5847 302.595 75.6548 302.619 74.7397L302.693 72.0239ZM302.693 72.0239L302.762 74.8037C302.762 75.7237 302.816 76.629 302.826 77.5294L302.693 77.3965C304.863 77.3719 307.038 77.3178 309.207 77.3129L315.721 77.2834L315.475 77.5294V72.0239L315.697 72.2453C314.624 72.2453 313.552 72.2453 312.474 72.2157L309.237 72.1616L302.693 72.0239Z" fill="#EBEBEB"/>
<path d="M309.96 70.5872H322.988V65.0818H309.96V70.5872Z" fill="#EBEBEB"/>
<path d="M184.962 125.49L191.422 125.352L194.699 125.298C195.791 125.298 196.893 125.298 197.991 125.268H198.212V125.49L198.237 130.995V131.241H197.986L191.472 131.207C189.302 131.207 187.132 131.152 184.958 131.128H184.825V130.995C184.825 130.06 184.869 129.13 184.889 128.21L184.962 125.49ZM184.962 125.49L185.031 128.269C185.056 129.184 185.09 130.095 185.1 130.995L184.962 130.857C187.137 130.833 189.307 130.783 191.477 130.779L197.991 130.749L197.745 130.995L197.774 125.49L197.991 125.706C196.918 125.706 195.85 125.706 194.773 125.681L191.536 125.627L184.962 125.49Z" fill="#EBEBEB"/>
<path d="M192.234 124.053H205.262V118.547H192.234V124.053Z" fill="#EBEBEB"/>
<path d="M295.426 65.0818L301.881 64.944L305.158 64.8899C306.255 64.8899 307.357 64.8899 308.454 64.8899H308.671V65.1113L308.7 70.6168V70.8628H308.454L301.94 70.8332C299.766 70.8332 297.596 70.7791 295.426 70.7496H295.288V70.6168C295.288 69.682 295.333 68.7521 295.352 67.837L295.426 65.0818ZM295.426 65.0818L295.495 67.8665C295.495 68.7816 295.549 69.6869 295.559 70.5872L295.426 70.4544C297.596 70.4544 299.766 70.3757 301.94 70.3708L308.454 70.3412L308.208 70.5872V65.0818L308.43 65.3032C307.357 65.3032 306.285 65.3032 305.207 65.2736L301.97 65.2195L295.426 65.0818Z" fill="#EBEBEB"/>
<path d="M317.581 25.584L324.041 25.4462L327.318 25.3921C328.41 25.3921 329.512 25.3921 330.609 25.3626H330.831V25.584L330.855 31.0895V31.3355H330.609L324.095 31.301C321.925 31.301 319.751 31.2469 317.581 31.2223H317.448V31.0895C317.448 30.1547 317.488 29.2248 317.512 28.3048L317.581 25.584ZM317.581 25.584L317.65 28.3638C317.65 29.2789 317.709 30.1891 317.714 31.0895L317.581 30.9517C319.751 30.9271 321.925 30.8779 324.095 30.873L330.609 30.8435L330.363 31.0895L330.393 25.584L330.609 25.8005C329.537 25.8005 328.464 25.8005 327.392 25.8005L324.164 25.707L317.581 25.584Z" fill="#EBEBEB"/>
<path d="M137.317 65.8001L143.772 65.6623L147.049 65.6082C148.146 65.6082 149.248 65.6082 150.345 65.6082H150.562V65.8296L150.591 71.3351V71.5811H150.345L143.831 71.5516C141.657 71.5516 139.487 71.4974 137.317 71.4679H137.204V71.3351C137.204 70.4003 137.248 69.4704 137.268 68.5553L137.317 65.8001ZM137.317 65.8001L137.386 68.5848C137.386 69.4999 137.44 70.4052 137.45 71.3056L137.317 71.1727C139.487 71.1727 141.657 71.094 143.831 71.0891L150.345 71.0596L150.099 71.3056L150.124 65.8001L150.345 66.0215C149.268 66.0215 148.2 66.0215 147.123 65.992L143.885 65.9378L137.317 65.8001Z" fill="#EBEBEB"/>
<path d="M32.4867 195.142L38.9418 195.004L42.2234 194.95C43.3157 194.925 44.4177 194.95 45.5149 194.921H45.7314V195.142V200.647V200.893H45.4854L38.9713 200.864C36.8016 200.864 34.6269 200.805 32.4572 200.78H32.3195V200.647C32.3195 199.713 32.3588 198.783 32.3834 197.868L32.4867 195.142ZM32.4867 195.142L32.5556 197.922C32.5556 198.842 32.6097 199.747 32.6196 200.647L32.4867 200.515C34.6565 200.49 36.8311 200.436 39.0008 200.431L45.5149 200.401L45.2689 200.647V195.142L45.4903 195.363C44.4177 195.363 43.3452 195.363 42.2677 195.334L39.0353 195.28L32.4867 195.142Z" fill="#EBEBEB"/>
<path d="M25.2199 193.705H38.248V188.2H25.2199V193.705Z" fill="#EBEBEB"/>
<path d="M323.51 200.643H336.538V195.137H323.51V200.643Z" fill="#EBEBEB"/>
<path d="M77.2538 117.524H35.8225V160.244H77.2538V117.524Z" fill="#EBEBEB"/>
<path d="M98.646 117.524H77.2538V160.244H98.646V117.524Z" fill="#DBDBDB"/>
<path d="M97.1748 157.519C95.5906 154.481 94.0195 151.434 92.4615 148.377L87.8219 139.187L83.2414 129.962C81.7227 126.882 80.2189 123.79 78.7297 120.688C80.314 123.722 81.8835 126.769 83.4382 129.829L88.0777 139.015L92.6583 148.245C94.1802 151.324 95.6857 154.416 97.1748 157.519Z" fill="#EBEBEB"/>
<path d="M97.1748 120.688C95.6857 123.787 94.1802 126.879 92.6583 129.962L88.0777 139.187L83.4382 148.377C81.8835 151.438 80.314 154.485 78.7297 157.519C80.2156 154.419 81.7195 151.328 83.2414 148.245L87.8219 139.015L92.4615 129.829C94.0162 126.769 95.5873 123.722 97.1748 120.688Z" fill="#EBEBEB"/>
<path d="M74.5281 152.992H69.9279V157.593H74.5281V152.992Z" fill="white"/>
<path d="M74.533 90.9511H33.1017V117.524H74.533V90.9511Z" fill="#DBDBDB"/>
<path d="M95.9251 90.9511H74.533V117.524H95.9251V90.9511Z" fill="#C7C7C7"/>
<path d="M57.3327 100.87H56.4569H55.7976L55.4237 100.102L54.8973 100.87L54.1789 99.2954L53.5 100.87H51.5615H50.6759L50.3561 99.817L50.056 100.87H49.4803V90.9511H57.3327V100.87Z" fill="white"/>
<path d="M94.4541 115.945C92.8699 114.01 91.3004 112.073 89.7457 110.134L85.1012 104.304L80.5207 98.4394C78.9988 96.4714 77.4949 94.5034 76.009 92.5354C77.5933 94.464 79.1628 96.4008 80.7175 98.3459L85.357 104.186L89.9425 110.051C91.4578 112.009 92.9617 113.973 94.4541 115.945Z" fill="#DBDBDB"/>
<path d="M94.4541 92.5354C92.9617 94.5034 91.4578 96.4714 89.9425 98.4394L85.357 104.304L80.7175 110.144C79.1628 112.089 77.5933 114.026 76.009 115.955C77.5014 113.987 79.0053 112.019 80.5207 110.051L85.1012 104.186L89.7457 98.3459C91.2971 96.414 92.8666 94.4771 94.4541 92.5354Z" fill="#DBDBDB"/>
<path d="M79.6794 160.244H30.317V208.062H79.6794V160.244Z" fill="#DBDBDB"/>
<path d="M105.17 160.244H79.6793V208.067H105.17V160.244Z" fill="#C7C7C7"/>
<path d="M59.1875 172.057H58.1445H57.3573L56.9096 171.152L56.2798 172.057L55.4287 170.188L54.6218 172.057H52.3094H51.2565L50.8727 170.813L50.5185 172.057H49.8297V160.244H59.1875V172.057Z" fill="white"/>
<path d="M103.413 205.223C101.531 201.75 99.6611 198.263 97.8046 194.763L92.2746 184.254L86.8134 173.701C85.0028 170.178 83.2103 166.642 81.4358 163.093C83.3251 166.567 85.1963 170.052 87.0495 173.548L92.5796 184.057L98.0359 194.616C99.8464 198.138 101.639 201.674 103.413 205.223Z" fill="#DBDBDB"/>
<path d="M103.413 163.093C101.639 166.639 99.8464 170.175 98.0359 173.701L92.5796 184.254L87.0495 194.768C85.1996 198.261 83.3284 201.746 81.4358 205.223C83.2103 201.677 85.0028 198.142 86.8134 194.616L92.2746 184.057L97.8046 173.548C99.6546 170.052 101.524 166.567 103.413 163.093Z" fill="#DBDBDB"/>
<path d="M37.7314 205.307H37.9675V202H37.7314V205.307Z" fill="white"/>
<path d="M37.1656 205.307H37.4017V202H37.1656V205.307Z" fill="white"/>
<path d="M36.6048 205.307H36.8409V202H36.6048V205.307Z" fill="white"/>
<path d="M36.0439 205.307H36.28V202H36.0439V205.307Z" fill="white"/>
<path d="M35.4781 205.307H35.7142V202H35.4781V205.307Z" fill="white"/>
<path d="M34.9172 205.307H35.1533V202H34.9172V205.307Z" fill="white"/>
<path d="M34.3562 205.307H34.5924V202H34.3562V205.307Z" fill="white"/>
<path d="M33.7955 205.307H34.0316V202H33.7955V205.307Z" fill="white"/>
<path d="M33.2297 205.307H33.4658V202H33.2297V205.307Z" fill="white"/>
<path d="M40.28 205.056L39.3796 205.307H41.4952L40.59 205.051V203.836C41.2394 203.752 41.4952 203.117 41.4952 202.005H39.3796C39.3796 203.112 39.6355 203.752 40.28 203.836V205.056Z" fill="white"/>
<path d="M41.9724 203.688H42.5234V205.307H43.9404V203.688H44.4914L43.2319 202.005L41.9724 203.688Z" fill="white"/>
<path d="M70.5478 56.1028H39.0795V90.9511H70.5478V56.1028Z" fill="#EBEBEB"/>
<path d="M86.7986 56.1028H70.5479V90.956H86.7986V56.1028Z" fill="#DBDBDB"/>
<path d="M85.6768 88.56C84.4763 86.0869 83.2841 83.6023 82.1 81.1062L78.5773 73.6081L75.0939 66.0805C73.9426 63.568 72.7946 61.0457 71.6499 58.5136C72.8504 60.99 74.0427 63.4762 75.2267 65.9723L78.7495 73.4654L82.2328 80.998C83.3972 83.5006 84.5452 86.0213 85.6768 88.56Z" fill="#EBEBEB"/>
<path d="M85.6768 58.5037C84.5452 61.0326 83.3972 63.5549 82.2328 66.0707L78.7495 73.5983L75.2267 81.0964C74.0459 83.5892 72.8537 86.0738 71.6499 88.5502C72.7815 86.0213 73.9295 83.499 75.0939 80.9832L78.5773 73.4556L82.1 65.9624C83.2808 63.4696 84.4731 60.9834 85.6768 58.5037Z" fill="#EBEBEB"/>
<path d="M39.0205 209.577H32.7426V215.157H39.0205V209.577Z" fill="#DBDBDB"/>
<path d="M39.0205 210.807L32.7426 211.565V209.577H39.0205V210.807Z" fill="#C7C7C7"/>
<path d="M71.8516 209.577H65.5737V215.157H71.8516V209.577Z" fill="#DBDBDB"/>
<path d="M71.8516 210.807L65.5737 211.565V209.577H71.8516V210.807Z" fill="#C7C7C7"/>
<path d="M104.683 209.577H98.4049V215.157H104.683V209.577Z" fill="#DBDBDB"/>
<path d="M104.683 210.807L98.4049 211.565V209.577H104.683V210.807Z" fill="#C7C7C7"/>
<path d="M108.142 208.067H29.2838V209.577H108.142V208.067Z" fill="#DBDBDB"/>
<path d="M108.142 215.157H29.2838V216.667H108.142V215.157Z" fill="#DBDBDB"/>
<path d="M166.124 162.188H124.692V208.067H166.124V162.188Z" fill="#EBEBEB"/>
<path d="M187.516 162.188H166.124V208.067H187.516V162.188Z" fill="#DBDBDB"/>
<path d="M186.04 204.908C184.456 201.648 182.886 198.368 181.332 195.068L176.692 185.199L172.106 175.29C170.588 171.977 169.084 168.656 167.595 165.327C169.179 168.587 170.75 171.867 172.308 175.167L176.948 185.036L181.528 194.945C183.05 198.255 184.554 201.576 186.04 204.908Z" fill="#EBEBEB"/>
<path d="M186.04 165.346C184.551 168.676 183.047 171.997 181.528 175.309L176.948 185.218L172.308 195.088C170.753 198.368 169.182 201.648 167.595 204.928C169.087 201.595 170.591 198.274 172.106 194.965L176.692 185.056L181.332 175.152C182.886 171.872 184.456 168.603 186.04 165.346Z" fill="#EBEBEB"/>
<path d="M168.407 104.028H137.775V135.615H168.407V104.028Z" fill="#EBEBEB"/>
<path d="M184.224 104.028H168.407V135.615H184.224V104.028Z" fill="#DBDBDB"/>
<path d="M155.693 111.359H155.044H154.557L154.276 110.793L153.888 111.359L153.361 110.198L152.859 111.359H151.423H150.768L150.532 110.587L150.311 111.359H149.883V104.028H155.693V111.359Z" fill="#DBDBDB"/>
<path d="M183.137 133.603C181.966 131.356 180.805 129.102 179.654 126.843L176.21 120.048L172.82 113.224C171.698 110.948 170.586 108.661 169.484 106.365C170.655 108.612 171.816 110.866 172.967 113.126L176.411 119.92L179.801 126.744C180.923 129.024 182.035 131.31 183.137 133.603Z" fill="#EBEBEB"/>
<path d="M183.137 106.365C182.035 108.661 180.923 110.948 179.801 113.224L176.411 120.048L172.967 126.843C171.816 129.099 170.655 131.353 169.484 133.603C170.586 131.307 171.698 129.02 172.82 126.744L176.21 119.92L179.654 113.126C180.805 110.853 181.966 108.599 183.137 106.365Z" fill="#EBEBEB"/>
<path d="M166.389 130.252H162.99V133.652H166.389V130.252Z" fill="white"/>
<path d="M143.024 133.878H143.197V131.433H143.024V133.878Z" fill="white"/>
<path d="M142.606 133.878H142.778V131.433H142.606V133.878Z" fill="white"/>
<path d="M142.193 133.878H142.365V131.433H142.193V133.878Z" fill="white"/>
<path d="M141.775 133.878H141.947V131.433H141.775V133.878Z" fill="white"/>
<path d="M141.361 133.878H141.534V131.433H141.361V133.878Z" fill="white"/>
<path d="M140.943 133.878H141.115V131.433H140.943V133.878Z" fill="white"/>
<path d="M140.53 133.878H140.702V131.433H140.53V133.878Z" fill="white"/>
<path d="M140.112 133.878H140.284V131.433H140.112V133.878Z" fill="white"/>
<path d="M139.698 133.878H139.871V131.433H139.698V133.878Z" fill="white"/>
<path d="M144.894 133.691L144.225 133.878H145.789L145.125 133.691V132.796C145.617 132.732 145.789 132.259 145.789 131.438H144.225C144.225 132.259 144.417 132.732 144.894 132.796V133.691Z" fill="white"/>
<path d="M146.153 132.683H146.562V133.878H147.61V132.683H148.023L147.088 131.438L146.153 132.683Z" fill="white"/>
<path d="M168.884 135.615H127.453V162.183H168.884V135.615Z" fill="#DBDBDB"/>
<path d="M190.276 135.615H168.884V162.188H190.276V135.615Z" fill="#C7C7C7"/>
<path d="M151.683 145.529H150.808H150.148L149.77 144.766L149.243 145.529L148.53 143.959L147.851 145.529H145.912H145.027L144.707 144.481L144.407 145.529H143.831V135.615H151.683V145.529Z" fill="white"/>
<path d="M188.8 160.608C187.216 158.673 185.646 156.736 184.092 154.798L179.452 148.958L174.867 143.093C173.351 141.125 171.847 139.157 170.355 137.189C171.939 139.118 173.51 141.053 175.068 142.995L179.708 148.835L184.288 154.7C185.81 156.664 187.314 158.634 188.8 160.608Z" fill="#DBDBDB"/>
<path d="M188.8 137.199C187.314 139.167 185.81 141.135 184.288 143.103L179.708 148.968L175.088 154.798C173.533 156.74 171.962 158.677 170.375 160.608C171.867 158.64 173.371 156.672 174.886 154.704L179.472 148.84L184.111 143C185.64 141.058 187.203 139.124 188.8 137.199Z" fill="#DBDBDB"/>
<path d="M129.962 209.577H123.684V215.157H129.962V209.577Z" fill="#DBDBDB"/>
<path d="M129.967 210.807L123.684 211.565V209.577H129.967V210.807Z" fill="#C7C7C7"/>
<path d="M162.793 209.577H156.515V215.157H162.793V209.577Z" fill="#DBDBDB"/>
<path d="M162.798 210.807L156.515 211.565V209.577H162.798V210.807Z" fill="#C7C7C7"/>
<path d="M195.624 209.577H189.346V215.157H195.624V209.577Z" fill="#DBDBDB"/>
<path d="M195.629 210.807L189.346 211.565V209.577H195.629V210.807Z" fill="#C7C7C7"/>
<path d="M199.083 208.067H120.225V209.577H199.083V208.067Z" fill="#DBDBDB"/>
<path d="M199.083 215.157H120.225V216.667H199.083V215.157Z" fill="#DBDBDB"/>
<path d="M226.659 42.9172H210.473V216.672H226.659V42.9172Z" fill="#C7C7C7"/>
<path d="M332.159 42.9172H315.972V216.672H332.159V42.9172Z" fill="#EBEBEB"/>
<path d="M315.972 59.96H217.115V65.7952H315.972V59.96Z" fill="#DBDBDB"/>
<path d="M315.972 97.6768H217.115V103.512H315.972V97.6768Z" fill="#DBDBDB"/>
<path d="M315.972 135.398H217.115V141.234H315.972V135.398Z" fill="#DBDBDB"/>
<path d="M315.972 173.115H217.115V178.95H315.972V173.115Z" fill="#DBDBDB"/>
<path d="M315.972 210.837H217.115V216.672H315.972V210.837Z" fill="#DBDBDB"/>
<path d="M259.195 66.0854H228.559V97.6768H259.195V66.0854Z" fill="#EBEBEB"/>
<path d="M275.013 66.0854H259.195V97.6768H275.013V66.0854Z" fill="#DBDBDB"/>
<path d="M246.477 73.4162H245.828H245.341L245.065 72.8554L244.677 73.4162L244.145 72.2551L243.643 73.4162H242.212H241.557L241.316 72.6438L241.095 73.4162H240.672V66.0854H246.477V73.4162Z" fill="#DBDBDB"/>
<path d="M273.926 95.6595C272.755 93.416 271.594 91.1627 270.442 88.8995L266.998 82.105L263.648 75.276C262.52 72.9997 261.408 70.7135 260.312 68.4175C261.483 70.6643 262.644 72.9177 263.796 75.1776L267.24 81.9721L270.629 88.7961C271.725 91.079 272.824 93.3668 273.926 95.6595Z" fill="#EBEBEB"/>
<path d="M273.926 68.4224C272.824 70.7184 271.712 73.0046 270.59 75.2809L267.2 82.105L263.756 88.8995C262.605 91.1627 261.444 93.416 260.273 95.6595C261.375 93.3635 262.487 91.0774 263.609 88.8011L266.998 81.977L270.442 75.1825C271.594 72.9259 272.755 70.6725 273.926 68.4224Z" fill="#EBEBEB"/>
<path d="M257.178 92.3139H253.778V95.7137H257.178V92.3139Z" fill="white"/>
<path d="M278.492 115.748H247.855V135.398H278.492V115.748Z" fill="#DBDBDB"/>
<path d="M294.309 115.748H278.492V135.398H294.309V115.748Z" fill="#C7C7C7"/>
<path d="M265.768 123.079H265.124H264.637L264.356 122.513L263.968 123.079L263.436 121.918L262.935 123.079H261.503H260.848L260.612 122.306L260.391 123.079H259.963V115.748H265.768V123.079Z" fill="white"/>
<path d="M293.217 134.227C292.046 132.801 290.885 131.369 289.734 129.932L286.29 125.613L282.9 121.278C281.778 119.828 280.666 118.375 279.564 116.919C280.735 118.346 281.896 119.777 283.048 121.214L286.492 125.534L289.881 129.868C291.008 131.315 292.115 132.771 293.217 134.227Z" fill="#DBDBDB"/>
<path d="M293.217 116.919C292.115 118.395 291.008 119.827 289.881 121.273L286.492 125.613L283.048 129.932C281.896 131.369 280.735 132.801 279.564 134.227C280.666 132.771 281.778 131.318 282.9 129.868L286.29 125.534L289.734 121.214C290.885 119.781 292.046 118.349 293.217 116.919Z" fill="#DBDBDB"/>
<path d="M20.2113 216.672L60.2847 216.549L100.353 216.51L180.5 216.426L260.647 216.51L300.72 216.549L340.789 216.672L300.72 216.79L260.647 216.834L180.5 216.918L100.353 216.834L60.2847 216.79L20.2113 216.672Z" fill="#263238"/>
<path d="M228.908 41.5297H219.614V202.67H228.908V41.5297Z" fill="#37474F"/>
<path d="M224.864 47.6305H223.663V196.569H224.864V47.6305Z" fill="#263238"/>
<path d="M210.994 76.5011L219.614 78.9463V41.5297L210.994 43.975V76.5011Z" fill="#263238"/>
<path d="M233.784 77.4506L228.908 81.121V167.437L233.784 171.108V77.4506Z" fill="#263238"/>
<path d="M317.999 167.698H233.784V171.108L317.999 168.785V167.698Z" fill="#263238"/>
<path d="M210.876 204.859H42.3513V161.219H84.1074H117.77H124.018H197.454L210.876 173.553V204.859Z" fill="#F5951D"/>
<path opacity="0.2" d="M101.037 204.859H53.072C50.9156 200.735 49.8594 196.124 50.0054 191.472C50.1514 186.82 51.4947 182.285 53.9056 178.304C56.3164 174.323 59.7133 171.031 63.7679 168.746C67.8226 166.461 72.398 165.261 77.0521 165.261C81.7061 165.261 86.2815 166.461 90.3362 168.746C94.3909 171.031 97.7877 174.323 100.199 178.304C102.609 182.285 103.953 186.82 104.099 191.472C104.245 196.124 103.189 200.735 101.032 204.859H101.037Z" fill="black"/>
<path opacity="0.2" d="M210.876 173.548V204.859H180.667C178.647 200.975 177.598 196.66 177.612 192.282C177.626 187.904 178.702 183.595 180.748 179.725C182.793 175.854 185.747 172.538 189.357 170.06C192.966 167.582 197.122 166.017 201.469 165.499L202.035 165.44L210.876 173.548Z" fill="black"/>
<path opacity="0.2" d="M171.772 192.367H135.507L124.018 182.01V161.219H171.772V192.367Z" fill="black"/>
<path d="M197.454 161.219H219.614V166.572L210.876 173.548L197.454 161.219Z" fill="#37474F"/>
<g opacity="0.2">
<path opacity="0.2" d="M111.035 161.219H102.616L113.908 204.854H122.321L111.035 161.219Z" fill="white"/>
<path opacity="0.2" d="M116.84 161.219H114.469L125.76 204.854H128.132L116.84 161.219Z" fill="white"/>
</g>
<path d="M227.771 188.023L227.422 187.983L227.811 191.275L228.14 191.157C228.14 190.635 228.072 190.104 228.008 189.577C227.944 189.051 227.87 188.534 227.771 188.023ZM227.279 187.265L227.589 187.093C227.351 186.067 227.046 185.058 226.674 184.072H226.32L227.279 187.265ZM227.648 195.309L227.998 195.255C228.131 194.209 228.19 193.156 228.175 192.101L227.84 192.003L227.648 195.309ZM226.325 183.186C225.919 182.216 225.446 181.276 224.908 180.372L224.564 180.456L226.04 183.408L226.325 183.186ZM226.787 199.26H227.137C227.45 198.253 227.693 197.226 227.865 196.185L227.545 196.028L226.787 199.26ZM222.197 177.174L224.165 179.831L224.391 179.56C223.823 178.675 223.191 177.831 222.502 177.036L222.197 177.174ZM225.272 202.999L225.612 203.058C226.094 202.124 226.512 201.157 226.861 200.165L226.581 199.954L225.272 202.999ZM219.314 174.365L221.73 176.633L221.907 176.333C221.192 175.559 220.424 174.835 219.609 174.168L219.314 174.365ZM223.102 206.414L223.432 206.532C224.067 205.692 224.646 204.811 225.164 203.895L224.923 203.644L223.102 206.414ZM215.973 172.092L218.738 173.907L218.866 173.578C218.025 172.943 217.143 172.366 216.224 171.851L215.973 172.092ZM220.401 209.405L220.701 209.577C221.473 208.86 222.196 208.092 222.866 207.28L222.674 206.984L220.401 209.405ZM212.298 170.439L215.343 171.747L215.412 171.398C214.474 170.919 213.504 170.503 212.51 170.153L212.298 170.439ZM217.218 211.87L217.489 212.096C218.373 211.526 219.216 210.895 220.013 210.207L219.875 209.892L217.218 211.87ZM208.401 169.45L211.624 170.207V169.853C210.619 169.541 209.593 169.301 208.554 169.135L208.401 169.45ZM213.641 213.73L213.863 214C214.834 213.594 215.776 213.121 216.682 212.583L216.598 212.244L213.641 213.73ZM204.47 168.805L204.372 169.14L207.673 169.327L207.619 168.982C206.553 168.856 205.48 168.802 204.406 168.82L204.47 168.805ZM209.961 215.255C210.988 215.026 211.998 214.724 212.982 214.35L212.957 214L209.789 214.955L209.961 215.255ZM201.946 168.968C201.42 169.032 200.903 169.105 200.387 169.209L200.347 169.553L203.639 169.164L203.521 168.84C202.935 168.874 202.414 168.918 201.882 168.982L201.946 168.968ZM205.882 215.821C206.404 215.796 206.93 215.752 207.457 215.688C207.983 215.624 208.51 215.55 209.021 215.447L209.061 215.107L205.769 215.496L205.882 215.821ZM196.421 170.306L196.446 170.655L199.619 169.701L199.447 169.401C198.401 169.632 197.373 169.94 196.372 170.321L196.421 170.306ZM201.789 215.673C202.833 215.804 203.885 215.863 204.938 215.85L205.036 215.516L201.725 215.329L201.789 215.673ZM192.726 172.077L192.805 172.416L195.757 170.94L195.531 170.665C194.547 171.073 193.594 171.55 192.677 172.092L192.726 172.077ZM197.72 214.827C198.725 215.142 199.751 215.386 200.79 215.555L200.943 215.24L197.72 214.482V214.827ZM189.356 174.483L189.494 174.803L192.151 172.835L191.885 172.603C191 173.171 190.155 173.799 189.356 174.483ZM193.941 213.282C194.879 213.766 195.849 214.183 196.844 214.532L197.051 214.246L194.005 212.943L193.941 213.282ZM186.488 177.41L186.68 177.701L188.953 175.29L188.652 175.113C187.873 175.827 187.145 176.595 186.473 177.41H186.488ZM190.473 211.102C191.312 211.74 192.195 212.319 193.115 212.834L193.361 212.598L190.591 210.778L190.473 211.102ZM184.17 180.795L184.411 181.046L186.227 178.276L185.902 178.158C185.26 178.996 184.676 179.877 184.156 180.795H184.17ZM187.432 208.347C188.148 209.123 188.917 209.846 189.735 210.512L190.015 210.32L187.604 208.052L187.432 208.347ZM182.468 184.525L182.748 184.731L184.057 181.686L183.718 181.627C183.234 182.562 182.816 183.531 182.468 184.525ZM184.928 205.12C185.499 206.004 186.129 206.849 186.812 207.649L187.132 207.511L185.164 204.854L184.928 205.12ZM181.484 188.5L181.799 188.652L182.557 185.425H182.202C181.88 186.432 181.625 187.459 181.44 188.5H181.484ZM182.96 201.499C183.37 202.47 183.847 203.412 184.387 204.318L184.721 204.229L183.245 201.277L182.96 201.499ZM181.632 189.376L181.292 189.435C181.16 190.481 181.099 191.534 181.11 192.588L181.44 192.687L181.632 189.376ZM182.001 197.425L181.705 197.592C181.939 198.62 182.243 199.631 182.616 200.618L182.955 200.593L182.001 197.425ZM181.484 193.415L181.159 193.528C181.159 194.05 181.228 194.576 181.287 195.103C181.346 195.629 181.435 196.155 181.533 196.672L181.873 196.707L181.484 193.415Z" fill="#263238"/>
<path d="M227.811 191.275L228.14 191.157C228.14 191.472 228.17 191.787 228.17 192.101L227.835 192.003L227.643 195.309L227.993 195.255C227.958 195.57 227.909 195.88 227.86 196.19L227.54 196.032L226.782 199.26H227.132C227.043 199.562 226.945 199.862 226.837 200.16L226.556 199.949L225.272 202.999L225.611 203.058C225.474 203.339 225.321 203.624 225.164 203.895L224.923 203.644L223.102 206.414L223.432 206.532C223.245 206.783 223.043 207.024 222.846 207.28L222.655 206.984L220.352 209.405L220.652 209.577C220.426 209.789 220.185 210 219.944 210.207L219.806 209.892L217.149 211.86L217.42 212.086C217.154 212.259 216.888 212.431 216.613 212.578L216.529 212.239L213.577 213.715L213.799 213.986C213.508 214.113 213.218 214.227 212.918 214.335L212.893 213.986L209.725 214.94L209.897 215.24C209.592 215.314 209.282 215.373 208.972 215.432L209.011 215.093L205.72 215.481L205.833 215.806C205.505 215.806 205.19 215.816 204.888 215.835L204.987 215.501L201.676 215.314L201.74 215.658C201.425 215.624 201.115 215.58 200.8 215.526L200.952 215.211L197.72 214.482V214.827C197.42 214.733 197.115 214.64 196.82 214.532L197.026 214.246L193.981 212.943L193.917 213.282C193.636 213.144 193.366 212.992 193.09 212.834L193.336 212.598L190.566 210.778L190.448 211.102C190.197 210.911 189.956 210.719 189.71 210.517L189.991 210.325L187.58 208.057L187.408 208.352C187.191 208.121 186.98 207.89 186.773 207.649L187.093 207.511L185.125 204.854L184.903 205.12C184.726 204.854 184.564 204.588 184.411 204.318L184.746 204.229L183.27 201.277L182.999 201.504C182.881 201.213 182.758 200.923 182.655 200.623L182.994 200.598L182.04 197.43L181.745 197.597C181.676 197.292 181.612 196.987 181.558 196.677L181.897 196.711L181.509 193.42L181.184 193.533C181.184 193.223 181.154 192.908 181.149 192.593L181.479 192.692L181.671 189.381L181.331 189.44C181.366 189.125 181.41 188.815 181.464 188.505L181.779 188.657L182.537 185.43H182.183C182.276 185.13 182.379 184.83 182.483 184.53L182.763 184.736L184.072 181.691L183.732 181.632C183.875 181.351 184.028 181.071 184.18 180.8L184.421 181.051L186.237 178.281L185.912 178.163C186.099 177.912 186.296 177.671 186.497 177.415L186.689 177.705L188.962 175.295L188.662 175.118C188.889 174.901 189.125 174.694 189.366 174.488L189.504 174.808L192.16 172.84L191.895 172.608C192.155 172.436 192.426 172.269 192.702 172.116L192.78 172.456L195.732 170.98L195.506 170.704C195.801 170.576 196.096 170.463 196.392 170.355L196.416 170.704L199.59 169.75L199.417 169.45C199.722 169.376 200.032 169.312 200.342 169.258L200.303 169.602L203.594 169.214L203.476 168.889C203.796 168.864 204.111 168.859 204.426 168.854L204.328 169.189L207.629 169.376L207.575 169.032C207.89 169.066 208.2 169.11 208.514 169.169L208.357 169.484L211.58 170.242V169.888C211.88 169.981 212.185 170.079 212.48 170.188L212.268 170.473L215.314 171.782L215.383 171.432C215.663 171.58 215.939 171.728 216.214 171.885L215.963 172.126L218.728 173.942L218.856 173.612C219.107 173.809 219.348 174.001 219.599 174.202L219.304 174.399L221.72 176.667L221.897 176.367C222.113 176.594 222.325 176.83 222.527 177.071L222.207 177.209L224.175 179.865L224.401 179.595C224.578 179.86 224.742 180.131 224.893 180.407L224.549 180.49L226.025 183.442L226.295 183.216C226.423 183.506 226.541 183.801 226.645 184.101H226.29L227.25 187.275L227.56 187.103C227.624 187.413 227.693 187.718 227.747 188.033L227.397 187.993L227.811 191.275Z" fill="#263238"/>
<path d="M203.575 169.179L200.283 169.568L200.328 169.223L200.441 168.151L203.093 167.836L203.457 168.854L203.575 169.179Z" fill="#263238"/>
<path d="M199.57 169.715L196.396 170.67L196.372 170.321L196.303 169.253L198.861 168.48L199.398 169.415L199.57 169.715Z" fill="#263238"/>
<path d="M195.713 170.945L192.756 172.436L192.677 172.092L192.421 171.049L194.807 169.843L195.486 170.67L195.713 170.945Z" fill="#263238"/>
<path d="M192.136 172.815L189.479 174.803L189.336 174.483L188.908 173.494L191.049 171.9L191.87 172.589L192.136 172.815Z" fill="#263238"/>
<path d="M188.933 175.285L186.665 177.701L186.473 177.41L185.873 176.515L187.703 174.567L188.638 175.113L188.933 175.285Z" fill="#263238"/>
<path d="M186.212 178.276L184.397 181.046L184.156 180.795L183.408 180.018L184.874 177.784L185.887 178.158L186.212 178.276Z" fill="#263238"/>
<path d="M184.047 181.686L182.739 184.731L182.458 184.53L181.592 183.89L182.645 181.435L183.703 181.627L184.047 181.686Z" fill="#263238"/>
<path d="M182.512 185.425L181.755 188.652L181.44 188.5L180.47 188.023L181.085 185.42L182.163 185.425H182.512Z" fill="#263238"/>
<path d="M181.646 189.376L181.455 192.687L181.125 192.588L180.092 192.288L180.244 189.617L181.307 189.435L181.646 189.376Z" fill="#263238"/>
<path d="M181.484 193.415L181.873 196.707L181.533 196.672L180.451 196.549L180.141 193.902L181.159 193.528L181.484 193.415Z" fill="#263238"/>
<path d="M182.97 200.593L182.63 200.618L181.553 200.687L180.781 198.128L181.72 197.592L182.015 197.425L182.97 200.593Z" fill="#263238"/>
<path d="M184.736 204.234L184.402 204.318L183.349 204.574L182.148 202.187L182.975 201.499L183.245 201.272L184.736 204.234Z" fill="#263238"/>
<path d="M187.103 207.511L186.783 207.649L185.794 208.086L184.2 205.941L184.898 205.12L185.12 204.854L187.103 207.511Z" fill="#263238"/>
<path d="M190.001 210.325L189.72 210.517L188.815 211.117L186.871 209.287L187.418 208.352L187.59 208.057L190.001 210.325Z" fill="#263238"/>
<path d="M193.346 212.598L193.1 212.834L192.318 213.577L190.084 212.116L190.458 211.102L190.576 210.778L193.346 212.598Z" fill="#263238"/>
<path d="M197.036 214.246L196.83 214.532L196.195 215.403L193.735 214.34L193.927 213.282L193.991 212.943L197.036 214.246Z" fill="#263238"/>
<path d="M200.952 215.24L200.8 215.555L200.328 216.514L197.725 215.904L197.73 214.827V214.482L200.952 215.24Z" fill="#263238"/>
<path d="M204.987 215.53L204.888 215.865L204.588 216.903L201.922 216.751L201.74 215.688L201.676 215.343L204.987 215.53Z" fill="#263238"/>
<path d="M209.011 215.122L208.972 215.462L208.854 216.539L206.202 216.854L205.833 215.835L205.715 215.511L209.011 215.122Z" fill="#263238"/>
<path d="M212.893 214.015L212.918 214.364L212.992 215.437L210.433 216.209L209.897 215.27L209.725 214.97L212.893 214.015Z" fill="#263238"/>
<path d="M216.874 213.641L214.487 214.842L213.799 214.015L213.577 213.744L216.534 212.259L216.618 212.598L216.874 213.641Z" fill="#263238"/>
<path d="M220.386 211.191L218.246 212.79L217.425 212.096L217.154 211.87L219.811 209.892L219.949 210.207L220.386 211.191Z" fill="#263238"/>
<path d="M223.422 208.175L221.587 210.118L220.657 209.577L220.357 209.405L222.63 206.984L222.822 207.28L223.422 208.175Z" fill="#263238"/>
<path d="M225.882 204.672L224.421 206.906L223.407 206.532L223.078 206.414L224.898 203.644L225.139 203.895L225.882 204.672Z" fill="#263238"/>
<path d="M227.702 200.8L226.645 203.255L225.587 203.058L225.242 202.999L226.556 199.954L226.837 200.165L227.702 200.8Z" fill="#263238"/>
<path d="M228.814 196.667L228.209 199.27L227.137 199.265L226.782 199.26L227.54 196.032L227.86 196.19L228.814 196.667Z" fill="#263238"/>
<path d="M229.203 192.402L229.051 195.073L227.993 195.255L227.643 195.309L227.83 192.003L228.17 192.101L229.203 192.402Z" fill="#263238"/>
<path d="M228.839 188.141L229.154 190.793L228.14 191.157L227.811 191.275L227.422 187.983L227.771 188.023L228.839 188.141Z" fill="#263238"/>
<path d="M228.514 186.561L227.584 187.093L227.274 187.27L226.315 184.092L226.669 184.072L227.742 184.003L228.514 186.561Z" fill="#263238"/>
<path d="M227.142 182.502L226.32 183.186L226.049 183.413L224.559 180.456L224.903 180.372L225.946 180.116L227.142 182.502Z" fill="#263238"/>
<path d="M225.095 178.749L224.401 179.56L224.175 179.831L222.192 177.179L222.512 177.036L223.491 176.603L225.095 178.749Z" fill="#263238"/>
<path d="M222.418 175.403L221.882 176.333L221.705 176.633L219.289 174.365L219.585 174.168L220.48 173.573L222.418 175.403Z" fill="#263238"/>
<path d="M219.211 172.574L218.842 173.578L218.719 173.907L215.949 172.092L216.2 171.851L216.977 171.108L219.211 172.574Z" fill="#263238"/>
<path d="M215.555 170.345L215.368 171.398L215.299 171.747L212.254 170.439L212.465 170.153L213.1 169.287L215.555 170.345Z" fill="#263238"/>
<path d="M211.57 168.785L211.565 169.853L211.56 170.207L208.337 169.45L208.49 169.13L208.967 168.17L211.57 168.785Z" fill="#263238"/>
<path d="M207.614 169.341L204.308 169.155L204.406 168.82L204.706 167.792L207.373 167.944L207.555 168.997L207.614 169.341Z" fill="#263238"/>
<path d="M223.511 190.114C223.952 193.845 223.276 197.623 221.57 200.97C219.864 204.317 217.204 207.084 213.926 208.919C210.648 210.754 206.899 211.576 203.154 211.281C199.408 210.986 195.834 209.587 192.884 207.261C189.934 204.934 187.74 201.786 186.579 198.213C185.418 194.639 185.343 190.802 186.363 187.186C187.383 183.57 189.453 180.338 192.31 177.898C195.166 175.459 198.683 173.921 202.414 173.479C204.891 173.186 207.402 173.384 209.803 174.061C212.204 174.738 214.449 175.882 216.408 177.427C218.367 178.971 220.002 180.887 221.221 183.064C222.44 185.241 223.218 187.636 223.511 190.114Z" fill="#37474F"/>
<path d="M216.79 190.896C217.075 193.297 216.641 195.729 215.544 197.884C214.446 200.039 212.735 201.82 210.625 203.002C208.516 204.184 206.103 204.714 203.692 204.525C201.281 204.336 198.981 203.436 197.081 201.939C195.182 200.442 193.769 198.416 193.022 196.116C192.274 193.817 192.225 191.347 192.881 189.019C193.537 186.692 194.869 184.611 196.707 183.04C198.546 181.47 200.809 180.479 203.211 180.195C206.43 179.814 209.67 180.727 212.216 182.734C214.763 184.74 216.408 187.676 216.79 190.896Z" fill="#455A64"/>
<path d="M210.02 191.708C210.144 192.771 209.95 193.847 209.463 194.799C208.975 195.752 208.217 196.539 207.282 197.061C206.348 197.582 205.279 197.815 204.213 197.73C203.146 197.644 202.128 197.245 201.289 196.581C200.449 195.917 199.825 195.02 199.495 194.002C199.166 192.983 199.146 191.89 199.437 190.861C199.729 189.831 200.319 188.911 201.133 188.216C201.948 187.522 202.95 187.085 204.013 186.96C204.719 186.877 205.435 186.934 206.119 187.128C206.803 187.321 207.442 187.648 208 188.089C208.558 188.53 209.024 189.076 209.37 189.697C209.717 190.318 209.938 191.001 210.02 191.708Z" fill="#263238"/>
<path d="M205.474 199.344C204.089 199.507 202.687 199.257 201.445 198.623C200.202 197.99 199.176 197.002 198.495 195.785C197.813 194.569 197.509 193.177 197.618 191.787C197.728 190.397 198.248 189.07 199.111 187.975C199.975 186.881 201.144 186.066 202.47 185.636C203.797 185.205 205.221 185.178 206.563 185.557C207.905 185.936 209.104 186.704 210.01 187.765C210.915 188.826 211.485 190.131 211.649 191.516C211.866 193.372 211.338 195.24 210.181 196.707C209.023 198.175 207.33 199.123 205.474 199.344ZM203.895 185.976C202.639 186.125 201.456 186.644 200.495 187.465C199.534 188.286 198.838 189.374 198.495 190.591C198.152 191.807 198.177 193.099 198.567 194.301C198.957 195.504 199.695 196.563 200.687 197.347C201.679 198.13 202.881 198.602 204.142 198.703C205.402 198.804 206.663 198.528 207.767 197.912C208.871 197.296 209.768 196.367 210.344 195.242C210.92 194.116 211.15 192.846 211.004 191.59C210.801 189.905 209.939 188.369 208.607 187.317C207.275 186.265 205.581 185.783 203.895 185.976Z" fill="#263238"/>
<path d="M204.657 182.66C204.688 182.885 204.651 183.115 204.55 183.319C204.45 183.523 204.292 183.693 204.095 183.806C203.898 183.92 203.672 183.973 203.445 183.958C203.218 183.943 203.001 183.86 202.821 183.721C202.641 183.582 202.506 183.393 202.434 183.177C202.362 182.962 202.356 182.729 202.416 182.51C202.476 182.291 202.6 182.094 202.773 181.946C202.945 181.797 203.157 181.703 203.383 181.676C203.682 181.64 203.983 181.722 204.222 181.907C204.46 182.091 204.617 182.361 204.657 182.66Z" fill="#263238"/>
<path d="M199.816 183.954C199.951 184.136 200.03 184.353 200.041 184.579C200.053 184.806 199.997 185.03 199.882 185.225C199.766 185.419 199.595 185.575 199.391 185.673C199.186 185.771 198.958 185.805 198.733 185.773C198.509 185.741 198.3 185.643 198.131 185.492C197.962 185.341 197.842 185.143 197.786 184.924C197.73 184.704 197.74 184.473 197.815 184.259C197.89 184.046 198.026 183.859 198.207 183.723C198.328 183.632 198.465 183.566 198.611 183.528C198.758 183.491 198.91 183.482 199.06 183.504C199.209 183.525 199.353 183.576 199.483 183.653C199.612 183.731 199.726 183.833 199.816 183.954Z" fill="#263238"/>
<path d="M196.269 187.496C196.476 187.587 196.653 187.736 196.775 187.927C196.898 188.117 196.962 188.339 196.958 188.566C196.955 188.792 196.884 189.013 196.755 189.199C196.627 189.385 196.446 189.529 196.235 189.613C196.025 189.697 195.794 189.716 195.573 189.669C195.351 189.622 195.149 189.51 194.991 189.348C194.833 189.185 194.726 188.98 194.685 188.757C194.644 188.535 194.669 188.305 194.758 188.097C194.818 187.958 194.904 187.832 195.012 187.727C195.12 187.621 195.248 187.538 195.389 187.482C195.529 187.427 195.679 187.399 195.83 187.402C195.981 187.404 196.13 187.436 196.269 187.496Z" fill="#263238"/>
<path d="M194.965 192.333C195.19 192.302 195.419 192.339 195.624 192.439C195.828 192.54 195.998 192.698 196.111 192.895C196.225 193.092 196.278 193.318 196.263 193.545C196.247 193.772 196.165 193.989 196.026 194.169C195.887 194.349 195.698 194.484 195.482 194.556C195.266 194.628 195.034 194.634 194.815 194.574C194.596 194.514 194.399 194.39 194.251 194.217C194.102 194.045 194.008 193.833 193.981 193.607C193.946 193.308 194.029 193.007 194.213 192.769C194.397 192.531 194.667 192.374 194.965 192.333Z" fill="#263238"/>
<path d="M196.244 197.174C196.426 197.039 196.643 196.96 196.869 196.949C197.096 196.937 197.32 196.992 197.515 197.108C197.709 197.224 197.865 197.395 197.963 197.599C198.061 197.804 198.096 198.032 198.063 198.256C198.031 198.481 197.933 198.69 197.782 198.859C197.631 199.027 197.433 199.147 197.214 199.204C196.994 199.26 196.763 199.25 196.549 199.175C196.336 199.1 196.149 198.964 196.013 198.783C195.831 198.539 195.753 198.232 195.796 197.931C195.839 197.629 196 197.357 196.244 197.174Z" fill="#263238"/>
<path d="M199.796 200.736C199.886 200.528 200.035 200.351 200.225 200.227C200.415 200.104 200.638 200.039 200.865 200.042C201.091 200.045 201.312 200.115 201.499 200.244C201.686 200.372 201.83 200.553 201.914 200.764C201.998 200.975 202.018 201.205 201.971 201.427C201.924 201.649 201.812 201.852 201.649 202.01C201.487 202.168 201.281 202.275 201.058 202.316C200.835 202.357 200.605 202.331 200.397 202.242C200.118 202.12 199.899 201.894 199.787 201.612C199.674 201.33 199.678 201.015 199.796 200.736Z" fill="#263238"/>
<path d="M204.638 202.025C204.607 201.8 204.644 201.57 204.744 201.366C204.845 201.162 205.003 200.992 205.2 200.879C205.397 200.765 205.623 200.712 205.85 200.727C206.077 200.742 206.294 200.825 206.474 200.964C206.654 201.103 206.789 201.292 206.861 201.508C206.933 201.723 206.939 201.956 206.879 202.175C206.819 202.394 206.694 202.591 206.522 202.739C206.35 202.888 206.138 202.982 205.912 203.009C205.613 203.045 205.311 202.963 205.073 202.778C204.834 202.594 204.678 202.324 204.638 202.025Z" fill="#263238"/>
<path d="M209.479 200.736C209.343 200.554 209.264 200.337 209.252 200.11C209.24 199.884 209.295 199.659 209.411 199.464C209.526 199.269 209.697 199.113 209.902 199.015C210.107 198.917 210.336 198.882 210.56 198.914C210.785 198.947 210.994 199.045 211.163 199.197C211.332 199.348 211.451 199.546 211.507 199.766C211.563 199.986 211.553 200.217 211.477 200.431C211.402 200.645 211.264 200.831 211.083 200.967C210.839 201.148 210.534 201.225 210.233 201.182C209.933 201.138 209.662 200.978 209.479 200.736Z" fill="#263238"/>
<path d="M213.026 197.194C212.818 197.104 212.641 196.955 212.517 196.765C212.394 196.574 212.329 196.352 212.332 196.125C212.335 195.898 212.406 195.678 212.534 195.491C212.662 195.304 212.843 195.159 213.054 195.075C213.265 194.991 213.496 194.972 213.717 195.019C213.939 195.066 214.142 195.178 214.3 195.341C214.458 195.503 214.565 195.709 214.606 195.932C214.647 196.155 214.621 196.385 214.532 196.593C214.412 196.873 214.185 197.093 213.903 197.205C213.621 197.318 213.305 197.314 213.026 197.194Z" fill="#263238"/>
<path d="M214.33 192.372C214.105 192.403 213.875 192.365 213.671 192.265C213.467 192.165 213.297 192.007 213.183 191.81C213.07 191.613 213.017 191.386 213.032 191.16C213.047 190.933 213.13 190.715 213.269 190.535C213.408 190.355 213.597 190.221 213.813 190.149C214.028 190.077 214.261 190.07 214.48 190.131C214.699 190.191 214.895 190.315 215.044 190.487C215.192 190.66 215.286 190.872 215.314 191.098C215.352 191.397 215.269 191.699 215.085 191.938C214.9 192.177 214.629 192.333 214.33 192.372Z" fill="#263238"/>
<path d="M213.036 187.511C212.855 187.647 212.637 187.726 212.41 187.738C212.184 187.75 211.959 187.695 211.764 187.579C211.569 187.463 211.413 187.292 211.315 187.088C211.217 186.883 211.182 186.654 211.214 186.43C211.247 186.205 211.345 185.996 211.497 185.827C211.648 185.658 211.846 185.538 212.066 185.482C212.286 185.427 212.517 185.437 212.731 185.513C212.945 185.588 213.132 185.725 213.267 185.907C213.449 186.151 213.527 186.456 213.484 186.757C213.44 187.058 213.279 187.329 213.036 187.511Z" fill="#263238"/>
<path d="M209.498 183.964C209.409 184.172 209.26 184.349 209.071 184.473C208.881 184.597 208.659 184.662 208.432 184.659C208.205 184.657 207.984 184.587 207.797 184.459C207.61 184.331 207.465 184.151 207.381 183.941C207.296 183.73 207.276 183.5 207.322 183.278C207.369 183.056 207.48 182.853 207.642 182.694C207.804 182.536 208.009 182.429 208.232 182.387C208.455 182.345 208.685 182.369 208.893 182.458C209.172 182.578 209.393 182.804 209.506 183.086C209.62 183.368 209.617 183.684 209.498 183.964Z" fill="#263238"/>
<path d="M100.181 188.023L99.8366 187.983L100.225 191.275L100.55 191.157C100.55 190.635 100.486 190.104 100.422 189.577C100.358 189.051 100.304 188.534 100.181 188.023ZM99.689 187.265L99.999 187.093C99.765 186.066 99.4609 185.057 99.0888 184.072H98.7346L99.689 187.265ZM100.058 195.324L100.407 195.27C100.538 194.224 100.597 193.17 100.584 192.116L100.245 192.018L100.058 195.324ZM98.7346 183.201C98.3287 182.231 97.8552 181.291 97.3176 180.387L96.9732 180.471L98.4492 183.423L98.7346 183.201ZM99.197 199.275H99.5464C99.8595 198.268 100.103 197.24 100.275 196.2L99.9547 196.042L99.197 199.275ZM94.6018 177.189L96.5698 179.846L96.7961 179.575C96.2241 178.691 95.5912 177.847 94.9019 177.051L94.6018 177.189ZM97.6571 203.014L98.0015 203.073C98.4822 202.138 98.8997 201.171 99.2512 200.18L98.9658 199.968L97.6571 203.014ZM91.7039 174.38L94.1196 176.648L94.2967 176.348C93.582 175.574 92.8143 174.85 91.9991 174.183L91.7039 174.38ZM95.4923 206.428L95.8219 206.547C96.4574 205.708 97.0344 204.827 97.5488 203.909L97.3127 203.658L95.4923 206.428ZM88.3583 172.107L91.1282 173.922L91.2512 173.592C90.4112 172.957 89.5284 172.38 88.6092 171.865L88.3583 172.107ZM92.7863 209.42L93.0864 209.592C93.8576 208.876 94.5792 208.108 95.2463 207.294L95.0544 206.999L92.7863 209.42ZM84.683 170.453L87.7285 171.762L87.7925 171.413C86.8558 170.933 85.8876 170.517 84.8946 170.168L84.683 170.453ZM89.603 211.885L89.8736 212.111C90.757 211.54 91.6003 210.908 92.3976 210.222L92.2598 209.907L89.603 211.885ZM80.7815 169.464L84.009 170.222V169.868C83.0024 169.556 81.9748 169.316 80.934 169.15L80.7815 169.464ZM86.0213 213.744L86.2476 214.015C87.2188 213.608 88.1608 213.135 89.0668 212.598L88.9831 212.259L86.0213 213.744ZM76.8504 168.82L76.752 169.155L80.0582 169.341L80.0041 168.997C78.9465 168.867 77.8814 168.808 76.816 168.82H76.8504ZM82.346 215.27C83.3731 215.04 84.3826 214.737 85.3669 214.364V214.015L82.1984 214.97L82.346 215.27ZM74.3314 168.982C73.8049 169.046 73.2834 169.12 72.7717 169.223L72.7324 169.568L76.0238 169.179L75.9058 168.854C75.3498 168.874 74.8234 168.918 74.2969 168.982H74.3314ZM78.2674 215.835C78.7889 215.811 79.3202 215.767 79.8467 215.703C80.3731 215.639 80.8996 215.565 81.4112 215.462L81.4457 215.122L78.1542 215.511L78.2674 215.835ZM68.8111 170.321V170.67L71.9845 169.715L71.8123 169.415C70.7836 169.645 69.7724 169.948 68.7865 170.321H68.8111ZM74.1739 215.688C75.2199 215.819 76.2736 215.878 77.3276 215.865L77.426 215.53L74.1149 215.343L74.1739 215.688ZM65.1113 172.092L65.1949 172.431L68.1469 170.955L67.9206 170.68C66.9449 171.085 65.9981 171.557 65.0867 172.092H65.1113ZM70.1641 214.827C71.1705 215.142 72.1981 215.386 73.2391 215.555L73.3916 215.24L70.1641 214.482V214.827ZM61.7755 174.483L61.9133 174.803L64.5701 172.835L64.3044 172.603C63.4125 173.173 62.5594 173.8 61.7509 174.483H61.7755ZM66.356 213.282C67.2916 213.766 68.26 214.183 69.2539 214.532L69.4606 214.246L66.4151 212.943L66.356 213.282ZM58.9022 177.41L59.0941 177.701L61.3622 175.29L61.0621 175.113C60.2835 175.826 59.5567 176.594 58.8875 177.41H58.9022ZM62.8874 211.102C63.7263 211.741 64.6091 212.32 65.5295 212.834L65.7755 212.598L63.0055 210.778L62.8874 211.102ZM56.5849 180.795L56.8211 181.046L58.6366 178.276L58.3118 178.158C57.6707 178.996 57.0888 179.877 56.5702 180.795H56.5849ZM59.842 208.347C60.5572 209.123 61.3267 209.846 62.1445 210.512L62.4299 210.32L60.0191 208.052L59.842 208.347ZM54.8826 184.52L55.168 184.726L56.4767 181.681L56.1323 181.622C55.6454 182.56 55.2229 183.529 54.8678 184.525L54.8826 184.52ZM57.3426 205.115C57.9153 205.999 58.5464 206.844 59.2319 207.644L59.5517 207.506L57.5837 204.849L57.3426 205.115ZM53.8986 188.495L54.2086 188.648L54.9662 185.42H54.6169C54.2895 186.427 54.0346 187.456 53.8543 188.5L53.8986 188.495ZM55.4336 201.494C55.8442 202.464 56.3192 203.406 56.8555 204.313L57.1901 204.224L55.7141 201.272L55.4336 201.494ZM54.056 189.376L53.7166 189.435C53.5889 190.481 53.5281 191.534 53.5345 192.588L53.8691 192.687L54.056 189.376ZM54.43 197.425L54.1348 197.592C54.3664 198.62 54.6689 199.631 55.04 200.618L55.3844 200.593L54.43 197.425ZM53.8937 193.415L53.5739 193.528C53.5739 194.05 53.6378 194.576 53.7018 195.103C53.7658 195.629 53.8445 196.155 53.9429 196.672L54.2824 196.707L53.8937 193.415Z" fill="#263238"/>
<path d="M100.225 191.275L100.55 191.157C100.55 191.472 100.58 191.787 100.584 192.101L100.245 192.003L100.058 195.324L100.407 195.27C100.373 195.585 100.324 195.895 100.275 196.205L99.9547 196.047L99.197 199.26H99.5464C99.4529 199.56 99.3594 199.86 99.2512 200.16L98.9658 199.949L97.6571 202.994L98.0015 203.053C97.8588 203.334 97.7112 203.619 97.5488 203.89L97.3127 203.639L95.4923 206.409L95.8219 206.527C95.63 206.778 95.4332 207.019 95.2315 207.275L95.0396 206.979L92.7715 209.4L93.0716 209.572C92.8453 209.784 92.5796 209.995 92.3632 210.202L92.2254 209.887L89.5686 211.855L89.8392 212.082C89.5735 212.254 89.3029 212.426 89.0323 212.574L88.9487 212.234L85.9967 213.71L86.223 213.981C85.9327 214.109 85.6424 214.222 85.3423 214.33V213.981L82.1738 214.935L82.346 215.235C82.0361 215.309 81.731 215.368 81.4211 215.427L81.4555 215.088L78.164 215.476L78.2772 215.801C77.9672 215.801 77.6524 215.826 77.3375 215.831L77.4359 215.496L74.1247 215.309L74.1838 215.653C73.8689 215.619 73.5589 215.575 73.249 215.521L73.4015 215.206L70.174 214.448V214.792C69.8738 214.699 69.5737 214.605 69.2736 214.497L69.4802 214.212L66.4348 212.908L66.3757 213.248C66.0953 213.11 65.8198 212.957 65.5492 212.8L65.7952 212.564L63.0252 210.743L62.9071 211.068C62.6562 210.876 62.4151 210.684 62.1642 210.483L62.4496 210.291L60.0388 208.023L59.8616 208.318C59.6452 208.086 59.4385 207.855 59.2319 207.614L59.5517 207.476L57.5837 204.82L57.3623 205.085C57.1901 204.82 57.0277 204.554 56.8703 204.283L57.2048 204.195L55.7288 201.243L55.4582 201.469C55.3352 201.179 55.2172 200.889 55.1089 200.588L55.4533 200.564L54.4988 197.395L54.2036 197.563C54.1298 197.258 54.0708 196.953 54.0118 196.643L54.3512 196.677L53.9626 193.386L53.6428 193.499C53.6428 193.189 53.6132 192.874 53.6034 192.559L53.938 192.657L54.1249 189.346L53.7854 189.405C53.8199 189.09 53.8642 188.78 53.9232 188.47L54.2332 188.623L54.9908 185.395H54.6415C54.7334 185.094 54.8318 184.794 54.9367 184.495L55.2221 184.702L56.5308 181.656L56.1864 181.597C56.334 181.317 56.4816 181.036 56.639 180.766L56.8752 181.017L58.6907 178.247L58.366 178.129C58.5578 177.878 58.7497 177.637 58.9564 177.381L59.1482 177.671L61.4164 175.26L61.1162 175.083C61.3475 174.867 61.5787 174.66 61.8198 174.453L61.9576 174.773L64.6144 172.805L64.3487 172.574C64.6144 172.402 64.885 172.234 65.1556 172.082L65.2392 172.421L68.1912 170.945L67.9649 170.67C68.2552 170.542 68.5504 170.429 68.8505 170.321V170.67L72.0239 169.715L71.8517 169.415C72.1616 169.341 72.4667 169.278 72.7816 169.223L72.7422 169.568L76.0337 169.179L75.9156 168.854C76.2305 168.83 76.5454 168.825 76.8602 168.82L76.7618 169.154L80.0681 169.341L80.014 168.997C80.3288 169.031 80.6388 169.076 80.9488 169.135L80.7913 169.45L84.0188 170.207V169.853C84.319 169.947 84.6191 170.045 84.9192 170.153L84.7076 170.439L87.7531 171.747L87.8171 171.398C88.0975 171.546 88.378 171.693 88.6486 171.851L88.3976 172.092L91.1676 173.907L91.2906 173.578C91.5415 173.774 91.7826 173.966 92.0384 174.168L91.7432 174.365L94.159 176.633L94.3361 176.333C94.5526 176.559 94.7592 176.795 94.9609 177.036L94.6411 177.174L96.6091 179.831L96.8354 179.56C97.0076 179.826 97.1798 180.097 97.3274 180.372L96.983 180.456L98.459 183.408L98.7346 183.181C98.8625 183.472 98.9756 183.767 99.0839 184.067H98.7296L99.6841 187.24L99.9941 187.068C100.063 187.378 100.132 187.683 100.181 187.998L99.8366 187.959L100.225 191.275Z" fill="#263238"/>
<path d="M75.9894 169.179L72.6979 169.568L72.7372 169.223L72.8553 168.151L75.5023 167.836L75.8713 168.854L75.9894 169.179Z" fill="#263238"/>
<path d="M71.9796 169.715L68.8062 170.67L68.7865 170.321L68.7177 169.253L71.2761 168.48L71.8074 169.415L71.9796 169.715Z" fill="#263238"/>
<path d="M68.1272 170.945L65.1703 172.436L65.0867 172.092L64.8308 171.049L67.217 169.843L67.9009 170.67L68.1272 170.945Z" fill="#263238"/>
<path d="M64.5454 172.815L61.8935 174.803L61.7508 174.483L61.3179 173.494L63.463 171.9L64.2797 172.589L64.5454 172.815Z" fill="#263238"/>
<path d="M61.3475 175.285L59.0794 177.701L58.8875 177.41L58.2872 176.515L60.1175 174.567L61.0474 175.113L61.3475 175.285Z" fill="#263238"/>
<path d="M58.6217 178.276L56.8063 181.046L56.5701 180.795L55.8223 180.018L57.2884 177.784L58.297 178.158L58.6217 178.276Z" fill="#263238"/>
<path d="M56.4618 181.686L55.1531 184.731L54.8678 184.53L54.0018 183.89L55.0596 181.435L56.1174 181.627L56.4618 181.686Z" fill="#263238"/>
<path d="M54.9219 185.425L54.1642 188.652L53.8542 188.5L52.885 188.023L53.5 185.42L54.5726 185.425H54.9219Z" fill="#263238"/>
<path d="M54.0559 189.376L53.869 192.687L53.5344 192.588L52.5012 192.288L52.6587 189.617L53.7165 189.435L54.0559 189.376Z" fill="#263238"/>
<path d="M53.8937 193.415L54.2824 196.707L53.9429 196.672L52.8654 196.549L52.5505 193.902L53.5739 193.528L53.8937 193.415Z" fill="#263238"/>
<path d="M55.3843 200.593L55.0399 200.618L53.9674 200.687L53.1949 198.128L54.1347 197.592L54.4299 197.425L55.3843 200.593Z" fill="#263238"/>
<path d="M57.1458 204.234L56.8112 204.318L55.7633 204.574L54.5579 202.187L55.3893 201.499L55.6599 201.272L57.1458 204.234Z" fill="#263238"/>
<path d="M59.5123 207.511L59.1974 207.649L58.2085 208.086L56.6144 205.941L57.3081 205.12L57.5295 204.854L59.5123 207.511Z" fill="#263238"/>
<path d="M62.4151 210.325L62.1297 210.517L61.2293 211.117L59.281 209.287L59.8271 208.352L60.0042 208.057L62.4151 210.325Z" fill="#263238"/>
<path d="M65.7607 212.598L65.5147 212.834L64.7325 213.577L62.4988 212.116L62.8727 211.102L62.9908 210.778L65.7607 212.598Z" fill="#263238"/>
<path d="M69.4458 214.246L69.2392 214.532L68.6045 215.403L66.1494 214.34L66.3413 213.282L66.4003 212.943L69.4458 214.246Z" fill="#263238"/>
<path d="M73.367 215.24L73.2144 215.555L72.7372 216.514L70.1345 215.904L70.1394 214.827V214.482L73.367 215.24Z" fill="#263238"/>
<path d="M77.4014 215.53L77.303 215.865L77.0028 216.903L74.3313 216.751L74.1492 215.688L74.0902 215.343L77.4014 215.53Z" fill="#263238"/>
<path d="M81.421 215.122L81.3866 215.462L81.2636 216.539L78.6166 216.854L78.2427 215.835L78.1295 215.511L81.421 215.122Z" fill="#263238"/>
<path d="M85.3079 214.015L85.3325 214.364L85.4063 215.437L82.843 216.209L82.3116 215.27L82.1394 214.97L85.3079 214.015Z" fill="#263238"/>
<path d="M89.2881 213.641L86.9019 214.842L86.2131 214.015L85.9868 213.744L88.9437 212.259L89.0323 212.598L89.2881 213.641Z" fill="#263238"/>
<path d="M92.801 211.191L90.6608 212.79L89.8392 212.096L89.5686 211.87L92.2254 209.892L92.3632 210.207L92.801 211.191Z" fill="#263238"/>
<path d="M95.8317 208.175L94.0015 210.118L93.0716 209.577L92.7715 209.405L95.0396 206.984L95.2315 207.28L95.8317 208.175Z" fill="#263238"/>
<path d="M98.2917 204.672L96.8304 206.906L95.8218 206.532L95.4922 206.414L97.3126 203.644L97.5487 203.895L98.2917 204.672Z" fill="#263238"/>
<path d="M100.117 200.8L99.0592 203.255L98.0014 203.058L97.657 202.999L98.9657 199.954L99.2511 200.165L100.117 200.8Z" fill="#263238"/>
<path d="M101.229 196.667L100.619 199.27L99.5463 199.265L99.197 199.26L99.9547 196.032L100.275 196.19L101.229 196.667Z" fill="#263238"/>
<path d="M101.618 192.402L101.465 195.073L100.407 195.255L100.058 195.309L100.245 192.003L100.584 192.101L101.618 192.402Z" fill="#263238"/>
<path d="M101.253 188.141L101.568 190.793L100.55 191.157L100.225 191.275L99.8365 187.983L100.181 188.023L101.253 188.141Z" fill="#263238"/>
<path d="M100.924 186.561L99.994 187.093L99.6841 187.27L98.7296 184.092L99.0839 184.072L100.151 184.003L100.924 186.561Z" fill="#263238"/>
<path d="M99.5561 182.502L98.7345 183.186L98.459 183.413L96.9731 180.456L97.3175 180.372L98.3557 180.116L99.5561 182.502Z" fill="#263238"/>
<path d="M97.5045 178.749L96.8157 179.56L96.5894 179.831L94.6017 177.179L94.9215 177.036L95.9055 176.603L97.5045 178.749Z" fill="#263238"/>
<path d="M94.833 175.403L94.2967 176.333L94.1196 176.633L91.699 174.365L91.9991 174.168L92.8896 173.573L94.833 175.403Z" fill="#263238"/>
<path d="M91.6202 172.574L91.2512 173.578L91.1282 173.907L88.3583 172.092L88.6092 171.851L89.3866 171.108L91.6202 172.574Z" fill="#263238"/>
<path d="M87.9695 170.345L87.7776 171.398L87.7137 171.747L84.6682 170.439L84.8798 170.153L85.5145 169.287L87.9695 170.345Z" fill="#263238"/>
<path d="M83.9843 168.785L83.9794 169.853L83.9745 170.207L80.7469 169.45L80.9044 169.13L81.3816 168.17L83.9843 168.785Z" fill="#263238"/>
<path d="M80.0238 169.341L76.7175 169.155L76.8159 168.82L77.116 167.792L79.7876 167.944L79.9696 168.997L80.0238 169.341Z" fill="#263238"/>
<path d="M95.9203 190.114C96.3614 193.845 95.6862 197.623 93.98 200.971C92.2738 204.318 89.6133 207.084 86.3348 208.92C83.0564 210.755 79.3073 211.577 75.5617 211.282C71.8162 210.986 68.2423 209.587 65.2922 207.26C62.342 204.933 60.1481 201.784 58.9879 198.21C57.8276 194.637 57.7532 190.799 58.7739 187.184C59.7947 183.568 61.8648 180.336 64.7224 177.896C67.5801 175.457 71.0969 173.92 74.8282 173.479C77.3055 173.186 79.8162 173.384 82.217 174.061C84.6177 174.739 86.8615 175.882 88.8202 177.427C90.7789 178.972 92.414 180.887 93.6323 183.064C94.8505 185.241 95.628 187.636 95.9203 190.114Z" fill="#37474F"/>
<path d="M89.1996 190.896C89.4846 193.298 89.051 195.73 87.9536 197.885C86.8561 200.04 85.1442 201.821 83.0343 203.003C80.9244 204.185 78.5114 204.715 76.1004 204.525C73.6894 204.336 71.3887 203.436 69.4895 201.938C67.5902 200.441 66.1777 198.414 65.4305 196.114C64.6833 193.814 64.6351 191.344 65.2919 189.016C65.9488 186.689 67.2811 184.608 69.1205 183.038C70.9598 181.468 73.2236 180.479 75.6253 180.195C78.8442 179.815 82.0823 180.729 84.6277 182.735C87.1732 184.742 88.8176 187.677 89.1996 190.896Z" fill="#455A64"/>
<path d="M82.4346 191.708C82.5585 192.771 82.3645 193.846 81.8773 194.799C81.3901 195.751 80.6315 196.538 79.6973 197.06C78.763 197.581 77.6952 197.814 76.6286 197.729C75.562 197.644 74.5446 197.245 73.7049 196.582C72.8652 195.919 72.2409 195.022 71.9108 194.004C71.5808 192.986 71.5599 191.893 71.8507 190.863C72.1415 189.834 72.731 188.913 73.5447 188.219C74.3584 187.524 75.3598 187.086 76.4223 186.96C77.129 186.876 77.8451 186.933 78.5299 187.126C79.2147 187.32 79.8546 187.646 80.4131 188.087C80.9715 188.528 81.4375 189.075 81.7844 189.696C82.1312 190.317 82.3522 191.001 82.4346 191.708Z" fill="#263238"/>
<path d="M77.8885 199.344C76.5037 199.506 75.1018 199.255 73.86 198.621C72.6182 197.987 71.5923 196.999 70.912 195.781C70.2317 194.564 69.9275 193.173 70.0379 191.783C70.1483 190.393 70.6684 189.067 71.5323 187.973C72.3963 186.878 73.5653 186.065 74.8916 185.635C76.2179 185.205 77.642 185.178 78.9837 185.557C80.3255 185.936 81.5246 186.705 82.4296 187.765C83.3346 188.826 83.9047 190.131 84.068 191.516C84.2843 193.373 83.7552 195.24 82.5967 196.707C81.4382 198.175 79.745 199.123 77.8885 199.344ZM76.3042 185.976C75.0504 186.129 73.87 186.65 72.9118 187.473C71.9536 188.296 71.2606 189.384 70.92 190.6C70.5794 191.817 70.6066 193.107 70.9982 194.307C71.3897 195.508 72.128 196.566 73.12 197.348C74.1121 198.13 75.3134 198.601 76.5725 198.701C77.8316 198.801 79.0922 198.526 80.1952 197.91C81.2983 197.295 82.1944 196.367 82.7707 195.243C83.347 194.119 83.5775 192.849 83.4333 191.595C83.337 190.756 83.0758 189.946 82.6647 189.209C82.2536 188.472 81.7009 187.824 81.0382 187.302C80.3756 186.779 79.6161 186.393 78.8037 186.166C77.9912 185.938 77.1417 185.874 76.3042 185.976Z" fill="#263238"/>
<path d="M77.0669 182.66C77.0974 182.885 77.0603 183.115 76.9601 183.319C76.86 183.523 76.7014 183.693 76.5045 183.806C76.3076 183.92 76.0813 183.973 75.8544 183.958C75.6275 183.943 75.4103 183.86 75.2303 183.721C75.0503 183.582 74.9157 183.393 74.8436 183.177C74.7716 182.962 74.7653 182.729 74.8256 182.51C74.8858 182.291 75.01 182.094 75.1822 181.946C75.3544 181.797 75.5669 181.703 75.7926 181.676C76.0919 181.638 76.394 181.721 76.6328 181.905C76.8716 182.089 77.0276 182.361 77.0669 182.66Z" fill="#263238"/>
<path d="M72.2255 183.954C72.3614 184.135 72.4405 184.353 72.4526 184.58C72.4647 184.806 72.4094 185.031 72.2937 185.226C72.1779 185.421 72.0069 185.577 71.8023 185.675C71.5977 185.773 71.3687 185.808 71.1443 185.776C70.9198 185.743 70.71 185.645 70.5414 185.493C70.3728 185.342 70.2529 185.144 70.1969 184.924C70.141 184.704 70.1515 184.473 70.2271 184.259C70.3027 184.045 70.44 183.858 70.6216 183.723C70.865 183.541 71.1707 183.463 71.4714 183.506C71.7722 183.55 72.0434 183.711 72.2255 183.954Z" fill="#263238"/>
<path d="M68.6782 187.496C68.8865 187.586 69.0637 187.735 69.1872 187.925C69.3106 188.115 69.375 188.338 69.372 188.565C69.369 188.791 69.2988 189.012 69.1704 189.199C69.0419 189.386 68.8609 189.53 68.6503 189.614C68.4396 189.698 68.2088 189.718 67.987 189.671C67.7653 189.624 67.5624 189.512 67.4043 189.349C67.2461 189.187 67.1397 188.981 67.0985 188.758C67.0572 188.535 67.0831 188.305 67.1727 188.097C67.2928 187.817 67.5188 187.597 67.8012 187.485C68.0835 187.372 68.3989 187.376 68.6782 187.496Z" fill="#263238"/>
<path d="M67.3744 192.333C67.5998 192.302 67.8291 192.339 68.0332 192.439C68.2374 192.54 68.4072 192.698 68.521 192.895C68.6347 193.092 68.6874 193.318 68.6722 193.545C68.657 193.772 68.5747 193.989 68.4357 194.169C68.2967 194.349 68.1074 194.484 67.8917 194.556C67.676 194.628 67.4438 194.634 67.2245 194.574C67.0052 194.514 66.8088 194.39 66.6603 194.217C66.5118 194.045 66.4178 193.833 66.3904 193.607C66.3554 193.308 66.4387 193.007 66.6226 192.769C66.8065 192.531 67.0764 192.374 67.3744 192.333Z" fill="#263238"/>
<path d="M68.6684 197.174C68.85 197.039 69.0677 196.96 69.2938 196.949C69.52 196.937 69.7446 196.992 69.9392 197.108C70.1338 197.224 70.2898 197.395 70.3874 197.599C70.485 197.804 70.5199 198.032 70.4877 198.256C70.4555 198.481 70.3576 198.69 70.2064 198.859C70.0552 199.027 69.8574 199.147 69.638 199.204C69.4186 199.26 69.1875 199.25 68.9738 199.175C68.7601 199.1 68.5733 198.964 68.4371 198.783C68.3463 198.662 68.2802 198.525 68.2427 198.378C68.2051 198.232 68.1968 198.08 68.2183 197.93C68.2398 197.781 68.2906 197.637 68.3679 197.507C68.4451 197.377 68.5472 197.264 68.6684 197.174Z" fill="#263238"/>
<path d="M72.2108 200.736C72.3003 200.528 72.4495 200.351 72.6397 200.227C72.8299 200.104 73.0524 200.039 73.2792 200.042C73.5059 200.045 73.7266 200.115 73.9135 200.244C74.1004 200.372 74.2449 200.553 74.3289 200.764C74.4129 200.975 74.4325 201.205 74.3853 201.427C74.3381 201.649 74.2261 201.852 74.0637 202.01C73.9012 202.168 73.6954 202.275 73.4725 202.316C73.2495 202.357 73.0193 202.331 72.811 202.242C72.5318 202.121 72.3117 201.895 72.1992 201.613C72.0866 201.331 72.0908 201.015 72.2108 200.736Z" fill="#263238"/>
<path d="M77.0471 202.025C77.0166 201.8 77.0538 201.57 77.1539 201.366C77.254 201.162 77.4127 200.992 77.6095 200.879C77.8064 200.765 78.0327 200.712 78.2596 200.727C78.4865 200.742 78.7038 200.825 78.8838 200.964C79.0637 201.103 79.1983 201.292 79.2704 201.508C79.3425 201.723 79.3487 201.956 79.2885 202.175C79.2282 202.394 79.104 202.591 78.9318 202.739C78.7596 202.888 78.5472 202.982 78.3214 203.009C78.0226 203.044 77.7218 202.961 77.4837 202.777C77.2455 202.593 77.0888 202.323 77.0471 202.025Z" fill="#263238"/>
<path d="M81.8884 200.736C81.7532 200.554 81.6747 200.337 81.663 200.111C81.6513 199.884 81.7069 199.66 81.8227 199.465C81.9385 199.271 82.1094 199.115 82.3137 199.017C82.5181 198.919 82.7468 198.884 82.9709 198.917C83.1951 198.949 83.4047 199.047 83.5733 199.198C83.7419 199.349 83.8619 199.547 83.9182 199.766C83.9745 199.986 83.9646 200.217 83.8897 200.431C83.8147 200.644 83.6782 200.831 83.4972 200.967C83.2531 201.149 82.9466 201.227 82.6451 201.184C82.3435 201.141 82.0714 200.98 81.8884 200.736Z" fill="#263238"/>
<path d="M85.4407 197.194C85.2324 197.104 85.0552 196.955 84.9317 196.765C84.8083 196.574 84.7439 196.352 84.7469 196.125C84.7499 195.898 84.8201 195.678 84.9485 195.491C85.077 195.304 85.258 195.159 85.4686 195.075C85.6793 194.991 85.9101 194.972 86.1319 195.019C86.3536 195.066 86.5564 195.178 86.7146 195.341C86.8728 195.503 86.9792 195.709 87.0204 195.932C87.0617 196.155 87.0358 196.385 86.9462 196.593C86.8251 196.872 86.5989 197.091 86.317 197.203C86.035 197.316 85.7201 197.312 85.4407 197.194Z" fill="#263238"/>
<path d="M86.7395 192.372C86.5899 192.389 86.4384 192.377 86.2935 192.336C86.1487 192.295 86.0133 192.226 85.8952 192.132C85.7771 192.039 85.6786 191.923 85.6052 191.792C85.5319 191.66 85.4851 191.515 85.4677 191.366C85.4502 191.216 85.4624 191.065 85.5035 190.92C85.5447 190.775 85.6139 190.64 85.7073 190.522C85.8008 190.403 85.9166 190.305 86.0481 190.232C86.1796 190.158 86.3242 190.111 86.4738 190.094C86.6234 190.077 86.7749 190.089 86.9198 190.13C87.0647 190.171 87.2 190.24 87.3181 190.334C87.4362 190.427 87.5347 190.543 87.6081 190.674C87.6815 190.806 87.7282 190.951 87.7456 191.1C87.7631 191.25 87.7509 191.401 87.7098 191.546C87.6686 191.691 87.5994 191.826 87.506 191.944C87.4125 192.063 87.2968 192.161 87.1653 192.234C87.0337 192.308 86.8891 192.355 86.7395 192.372Z" fill="#263238"/>
<path d="M85.4506 187.511C85.269 187.647 85.0513 187.726 84.8248 187.738C84.5984 187.75 84.3734 187.695 84.1784 187.579C83.9834 187.463 83.8271 187.292 83.7293 187.088C83.6315 186.883 83.5966 186.654 83.6289 186.43C83.6613 186.205 83.7595 185.996 83.9111 185.827C84.0627 185.658 84.2609 185.538 84.4807 185.482C84.7005 185.427 84.9319 185.437 85.1457 185.513C85.3595 185.588 85.5461 185.725 85.6818 185.907C85.8624 186.151 85.9395 186.456 85.8962 186.757C85.8529 187.057 85.6927 187.328 85.4506 187.511Z" fill="#263238"/>
<path d="M81.9081 183.964C81.8186 184.172 81.6694 184.349 81.4792 184.473C81.289 184.596 81.0665 184.661 80.8397 184.658C80.613 184.655 80.3922 184.584 80.2054 184.456C80.0185 184.327 79.874 184.146 79.79 183.936C79.706 183.725 79.6864 183.494 79.7336 183.273C79.7808 183.051 79.8928 182.848 80.0552 182.69C80.2177 182.532 80.4235 182.425 80.6464 182.384C80.8694 182.343 81.0996 182.369 81.3079 182.458C81.5871 182.578 81.8072 182.804 81.9197 183.087C82.0323 183.369 82.0281 183.684 81.9081 183.964Z" fill="#263238"/>
<path d="M106.257 192.372H103.202C103.108 185.501 100.312 178.943 95.4194 174.117C90.527 169.291 83.9314 166.586 77.0594 166.586C70.1875 166.586 63.5918 169.291 58.6994 174.117C53.807 178.943 51.0113 185.501 50.917 192.372H47.8617C47.9614 184.694 51.0814 177.364 56.5462 171.97C62.011 166.575 69.3807 163.551 77.0594 163.551C84.7381 163.551 92.1078 166.575 97.5726 171.97C103.037 177.364 106.157 184.694 106.257 192.372Z" fill="#F5951D"/>
<path d="M178.532 192.372H175.472C175.482 184.631 178.562 177.211 184.036 171.738C189.51 166.265 196.931 163.186 204.672 163.177V166.232C197.742 166.24 191.097 168.996 186.197 173.897C181.296 178.797 178.54 185.442 178.532 192.372Z" fill="#F5951D"/>
<path d="M84.2353 153.017H46.0807L42.3513 161.219H84.2353V153.017Z" fill="#F5951D"/>
<path d="M84.2353 125.16H46.0807V153.012H84.2353V125.16Z" fill="#F5951D"/>
<g opacity="0.1">
<path opacity="0.1" d="M80.8158 128.043H64.5798V129.672H80.8158V128.043Z" fill="black"/>
<path opacity="0.1" d="M80.8158 131.497H64.5798V133.125H80.8158V131.497Z" fill="black"/>
<path opacity="0.1" d="M80.8158 134.956H64.5798V136.584H80.8158V134.956Z" fill="black"/>
<path opacity="0.1" d="M80.8158 138.409H64.5798V140.038H80.8158V138.409Z" fill="black"/>
<path opacity="0.1" d="M80.8158 141.868H64.5798V143.497H80.8158V141.868Z" fill="black"/>
</g>
<path d="M185.11 75.0644H171.241V74.0263H184.677L186.891 71.8123V51.1483H176.279L165.169 58.4348L164.599 57.5689L175.969 50.1102H187.929V72.2453L185.11 75.0644Z" fill="#263238"/>
<path d="M185.223 52.5751H177.09V71.5466H185.223V52.5751Z" fill="#263238"/>
<path d="M187.408 67.9403H185.223V68.9784H187.408V67.9403Z" fill="#263238"/>
<path d="M187.408 56.1962H185.223V57.2344H187.408V56.1962Z" fill="#263238"/>
<path d="M166.956 88.4151L146.253 109.118L148.984 111.849L169.687 91.1461L166.956 88.4151Z" fill="#263238"/>
<path d="M166.394 105.008L162.744 108.658L156.53 104.304L161.922 98.9117L166.394 105.008Z" fill="#37474F"/>
<path d="M165.441 105.959L163.788 107.611L173.856 117.679L175.509 116.027L165.441 105.959Z" fill="#263238"/>
<path d="M189.223 161.219L178.616 110.321L154.212 38.6909H84.8454L84.2353 125.16H77.2292L81.18 35.0206H156.663L184.682 108.393L197.454 161.219H189.223Z" fill="#37474F"/>
<path d="M178.616 110.321L169.464 122.144V137.189L159.91 161.219H189.223L178.616 110.321Z" fill="#263238"/>
<path d="M136.456 161.219H84.2352V124.845H123.92L136.456 161.219Z" fill="#37474F"/>
<path d="M131.935 116.845H90.4395V124.85H131.935V116.845Z" fill="#263238"/>
<path d="M84.7617 79.4186L90.4394 116.845H101.829L92.1122 77.5146L84.7617 79.4186Z" fill="#263238"/>
<path d="M118.39 60.2208C116.884 59.5664 112.619 59.8961 110.857 61.7312C109.096 63.5664 108.545 66.9858 109.175 67.4532C109.805 67.9206 112.855 68.2502 115.128 67.5172C117.401 66.7841 119.133 60.5406 118.39 60.2208Z" fill="#263238"/>
<path d="M118.395 60.2306C118.449 60.2306 118.474 60.1421 118.395 60.1273C117.027 59.8272 115.443 59.9994 114.075 60.1273C112.94 60.1616 111.825 60.4349 110.803 60.9293C110.324 61.1878 109.907 61.5475 109.581 61.9833C109.255 62.4191 109.027 62.9207 108.914 63.4532C108.582 64.7326 108.582 66.0755 108.914 67.3548C108.914 67.3892 108.988 67.3892 108.988 67.3548C108.801 64.9391 108.791 62.0314 111.379 60.9096C113.588 59.9502 116.082 60.2749 118.395 60.2306Z" fill="#263238"/>
<path d="M109.519 66.912C108.107 66.8234 104.024 68.7422 102.912 71.2416C101.8 73.741 103.167 78.0214 103.787 78.4346C104.407 78.8479 107.935 76.9291 109.288 75.2809C110.188 74.1838 109.947 72.6438 109.928 71.158C109.893 68.9489 109.741 66.912 109.519 66.912Z" fill="#263238"/>
<path d="M110.178 75.0989C111.108 72.5159 110.114 69.5786 109.686 66.9956C109.686 66.9891 109.684 66.9829 109.679 66.9782C109.675 66.9736 109.668 66.971 109.662 66.971C109.655 66.971 109.649 66.9736 109.644 66.9782C109.64 66.9829 109.637 66.9891 109.637 66.9956C109.686 69.4015 110.67 71.7484 110.237 74.1739C110.142 74.8899 109.875 75.5724 109.46 76.1634C109.044 76.7543 108.493 77.2364 107.851 77.5687C106.68 78.1296 105.327 78.228 104.058 78.415C103.974 78.415 104.004 78.5527 104.058 78.5429C106.592 78.228 109.219 77.7704 110.178 75.0989Z" fill="#263238"/>
<path d="M109.16 67.0891C109.234 67.0891 109.209 66.9464 109.135 66.9661C106.995 67.5122 104.378 68.4028 102.941 70.1789C101.391 72.1026 102.085 74.5724 102.715 76.7077C102.715 76.7372 102.769 76.7077 102.759 76.7077C102.149 74.5478 101.573 71.9009 103.251 70.0608C104.732 68.4716 107.153 67.6303 109.16 67.0891Z" fill="#263238"/>
<path d="M104.117 78.1345C104.948 78.7741 106.006 80.5945 105.977 82.5035C105.928 85.7605 107.236 85.3571 110.538 86.8232C113.327 88.068 113.357 91.448 111.522 92.7814C111.522 92.7814 112.791 90.9314 111.03 89.5834C108.889 87.9745 103.064 89.4702 100.983 85.6474C98.2524 80.7274 104.117 78.1345 104.117 78.1345Z" fill="#263238"/>
<path d="M105.091 79.8221C105.062 79.7729 105.145 79.7188 105.18 79.768C105.507 80.2367 105.744 80.7622 105.878 81.3177C106.055 82.041 105.937 82.7642 106.06 83.4924C106.375 85.3423 108.481 85.6621 109.996 86.0508C112.009 86.5428 113.44 88.1074 113.155 90.2722C113.155 90.2787 113.152 90.2849 113.148 90.2895C113.143 90.2942 113.137 90.2968 113.13 90.2968C113.124 90.2968 113.118 90.2942 113.113 90.2895C113.108 90.2849 113.106 90.2787 113.106 90.2722C113.181 89.6031 113.072 88.9263 112.79 88.3149C112.508 87.7035 112.064 87.1808 111.507 86.8036C110.405 86.0852 109.017 86.1049 107.837 85.5834C107.025 85.2242 106.247 84.7126 106.006 83.8171C105.914 83.3159 105.876 82.8062 105.893 82.2968C105.842 81.4168 105.566 80.5647 105.091 79.8221Z" fill="#263238"/>
<path d="M103.512 78.4199C103.512 78.4199 103.556 78.4199 103.512 78.4543C102.149 79.3842 100.717 80.3042 100.068 81.8983C99.384 83.6252 99.9843 85.5883 101.195 86.9265C102.553 88.4025 104.348 88.1516 106.174 88.127C107.492 88.127 108.821 88.1959 109.992 88.8601C110.026 88.8601 109.992 88.9388 109.957 88.9241C108.028 88.0926 106.075 88.3533 104.053 88.314C103.294 88.3175 102.548 88.1065 101.903 87.7052C101.259 87.304 100.74 86.7288 100.407 86.0459C98.6411 82.8725 100.624 79.9648 103.512 78.4199Z" fill="#263238"/>
<path d="M117.465 58.548C117.396 58.4175 117.278 58.3198 117.136 58.2765C116.995 58.2331 116.843 58.2476 116.712 58.3168C116.582 58.3859 116.484 58.5041 116.441 58.6452C116.397 58.7864 116.412 58.939 116.481 59.0695C116.55 59.2 116.668 59.2977 116.809 59.341C116.951 59.3844 117.103 59.3699 117.234 59.3008C117.364 59.2316 117.462 59.1134 117.505 58.9723C117.549 58.8311 117.534 58.6785 117.465 58.548Z" fill="#FFC727"/>
<path d="M117.711 59.532C117.633 59.4168 117.516 59.3345 117.381 59.301C117.246 59.2676 117.104 59.2853 116.981 59.3508C116.859 59.4164 116.765 59.525 116.718 59.6557C116.671 59.7864 116.674 59.9299 116.727 60.0584C116.805 60.1736 116.922 60.2559 117.057 60.2894C117.192 60.3229 117.334 60.3051 117.457 60.2396C117.579 60.1741 117.673 60.0654 117.72 59.9347C117.767 59.804 117.764 59.6605 117.711 59.532Z" fill="#FFC727"/>
<path d="M118.129 60.516C118.051 60.4034 117.934 60.3234 117.801 60.2911C117.668 60.2588 117.527 60.2764 117.406 60.3406C117.285 60.4048 117.191 60.5112 117.143 60.6396C117.095 60.768 117.096 60.9096 117.145 61.0375C117.223 61.1501 117.34 61.2301 117.473 61.2624C117.607 61.2947 117.747 61.2771 117.868 61.2129C117.989 61.1487 118.083 61.0423 118.131 60.9139C118.179 60.7855 118.178 60.644 118.129 60.516Z" fill="#FFC727"/>
<path d="M118.656 61.3918C118.577 61.2792 118.461 61.1992 118.327 61.1669C118.194 61.1346 118.054 61.1522 117.932 61.2164C117.811 61.2806 117.718 61.3869 117.67 61.5153C117.622 61.6437 117.622 61.7853 117.672 61.9133C117.75 62.0258 117.867 62.1058 118 62.1381C118.133 62.1705 118.274 62.1528 118.395 62.0886C118.516 62.0244 118.609 61.9181 118.657 61.7897C118.705 61.6613 118.705 61.5197 118.656 61.3918Z" fill="#FFC727"/>
<path d="M119.339 62.179C119.261 62.0664 119.144 61.9864 119.011 61.9541C118.878 61.9218 118.737 61.9394 118.616 62.0036C118.495 62.0678 118.402 62.1741 118.354 62.3025C118.306 62.4309 118.306 62.5725 118.355 62.7005C118.434 62.813 118.551 62.893 118.684 62.9253C118.817 62.9577 118.957 62.9401 119.079 62.8758C119.2 62.8116 119.293 62.7053 119.341 62.5769C119.389 62.4485 119.389 62.3069 119.339 62.179Z" fill="#FFC727"/>
<path d="M120.127 62.8087C120.048 62.6962 119.932 62.6162 119.798 62.5838C119.665 62.5515 119.525 62.5691 119.404 62.6333C119.282 62.6976 119.189 62.8039 119.141 62.9323C119.093 63.0607 119.094 63.2023 119.143 63.3302C119.221 63.4428 119.338 63.5228 119.471 63.5551C119.604 63.5874 119.745 63.5698 119.866 63.5056C119.987 63.4414 120.08 63.335 120.128 63.2066C120.177 63.0782 120.176 62.9367 120.127 62.8087Z" fill="#FFC727"/>
<path d="M162.66 160.933C161.632 161.297 131.846 160.845 130.71 160.141C130.577 160.062 129.903 154.355 129.903 154.355L132.806 132.279L152.353 132.058L149.042 150.926C149.042 150.926 153.391 152.8 156.987 154.444C158.559 155.109 160.088 155.868 161.568 156.717C162.734 157.622 163.683 160.574 162.66 160.933Z" fill="#D3766A"/>
<path d="M162.66 160.933C161.637 161.297 131.841 160.845 130.715 160.146C130.577 160.062 129.903 154.355 129.903 154.355L130.808 147.551L149.573 147.959L149.051 150.911C149.051 150.911 153.401 152.786 156.997 154.429C158.57 155.093 160.102 155.852 161.583 156.702C162.734 157.627 163.683 160.579 162.66 160.933Z" fill="#EBEBEB"/>
<path d="M162.645 160.973C161.597 161.327 131.649 161.361 130.483 160.638C130.045 160.372 129.785 156.003 129.622 150.719V150.552L148.958 150.311V150.641C148.958 150.641 160.436 155.757 161.612 156.687C162.788 157.617 163.693 160.618 162.645 160.973Z" fill="#F5951D"/>
<path d="M162.296 159.807C157.243 159.688 136.85 159.693 131.846 159.959C131.807 159.959 131.807 159.989 131.846 159.993C136.855 160.22 157.243 160.053 162.296 159.89C162.409 159.9 162.409 159.811 162.296 159.807Z" fill="#263238"/>
<path d="M150.577 150.695C148.584 150.326 146.149 150.636 144.638 152.053C144.579 152.107 144.638 152.19 144.722 152.171C146.621 151.556 148.58 151.145 150.567 150.946C150.596 150.941 150.623 150.927 150.643 150.904C150.662 150.882 150.674 150.854 150.675 150.824C150.676 150.795 150.667 150.765 150.649 150.742C150.631 150.718 150.605 150.702 150.577 150.695Z" fill="#263238"/>
<path d="M152.008 151.561C150.04 151.192 147.58 151.497 146.075 152.919C146.016 152.973 146.075 153.056 146.158 153.037C148.057 152.417 150.016 152.007 152.003 151.812C152.033 151.806 152.059 151.791 152.078 151.769C152.097 151.746 152.108 151.718 152.109 151.688C152.109 151.658 152.1 151.63 152.081 151.606C152.063 151.583 152.037 151.567 152.008 151.561Z" fill="#263238"/>
<path d="M153.44 152.422C151.472 152.053 149.012 152.363 147.507 153.78C147.448 153.834 147.507 153.917 147.59 153.898C149.491 153.282 151.452 152.872 153.44 152.673C153.469 152.667 153.495 152.651 153.514 152.628C153.533 152.605 153.543 152.577 153.543 152.547C153.543 152.517 153.533 152.489 153.514 152.466C153.495 152.443 153.469 152.427 153.44 152.422Z" fill="#263238"/>
<path d="M150.518 148.633L129.622 148.746C129.622 148.746 135.925 116.934 135.152 115.92C134.316 114.823 109.19 120.894 102.488 112.378C97.9227 106.567 100.84 94.5624 100.84 94.5624L125.553 94.8822C125.553 94.8822 125.588 95.4628 125.608 98.3262C125.608 98.3262 136.599 97.0125 145.179 98.1195C152.18 99.0199 155.757 104.658 155.733 108.324C155.624 124.506 150.518 148.633 150.518 148.633Z" fill="#455A64"/>
<path d="M150.163 144.933C147.752 144.761 145.342 144.717 142.921 144.678C140.5 144.638 138.094 144.633 135.679 144.678C134.316 144.707 132.958 144.805 131.595 144.835C131.585 144.835 131.575 144.839 131.567 144.846C131.56 144.854 131.556 144.864 131.556 144.874C131.556 144.885 131.56 144.895 131.567 144.902C131.575 144.91 131.585 144.914 131.595 144.914C132.81 144.914 134.021 145.017 135.236 145.042C136.451 145.066 137.632 145.086 138.832 145.096C141.248 145.096 143.664 145.096 146.075 145.096C147.438 145.096 148.795 145.061 150.158 145.007C150.217 145.032 150.217 144.938 150.163 144.933Z" fill="#263238"/>
<path d="M117.244 96.6927C117.214 96.7814 117.176 96.8671 117.13 96.9486C117.125 96.9556 117.122 96.9642 117.122 96.9732C117.122 96.9821 117.125 96.9908 117.13 96.9978C116.845 97.785 116.712 98.6312 116.442 99.4184C116.181 100.265 115.635 100.995 114.897 101.485C113.352 102.469 111.522 102.907 109.75 103.286C109.691 103.286 109.711 103.379 109.75 103.384C110.767 103.42 111.783 103.297 112.761 103.02C113.678 102.797 114.548 102.412 115.33 101.883C116.064 101.365 116.598 100.612 116.845 99.7481C116.97 99.2884 117.069 98.8218 117.14 98.3508C117.259 97.8114 117.337 97.2637 117.371 96.7124C117.366 96.701 117.358 96.6911 117.347 96.6835C117.337 96.676 117.325 96.671 117.313 96.6691C117.3 96.6672 117.287 96.6683 117.275 96.6724C117.263 96.6765 117.252 96.6835 117.244 96.6927Z" fill="#263238"/>
<path d="M133.066 142.985C134.655 135.187 138.764 114.321 138.08 113.273C137.755 113.076 135.236 113.317 132.318 113.593C124.51 114.331 111.433 115.561 106.395 111.974C101.091 108.196 103 96.6042 103.084 96.1122C103.084 96.004 103.315 95.7973 103.295 96.1122C103.295 96.2352 101.519 108.004 106.621 111.645C111.541 115.153 124.525 113.923 132.284 113.19C136.043 112.835 137.868 112.673 138.311 112.948C139.507 113.691 134.424 138.193 133.243 143.162C133.219 143.265 132.968 143.472 133.066 142.985Z" fill="#263238"/>
<path d="M126.429 84.6978L127.541 98.6608C127.541 98.6608 104.978 97.5292 99.4086 96.7666C99.4086 96.7666 106.341 74.2674 112.781 68.1272C116.004 65.0572 119.522 65.5295 121.637 67.96C122.168 68.575 127.403 76.1567 127.895 79.6351C128.02 80.5346 127.954 81.4503 127.701 82.3225C127.449 83.1948 127.015 84.0041 126.429 84.6978Z" fill="#EBEBEB"/>
<path d="M127.546 98.6608L126.429 84.6978C127.016 84.0041 127.45 83.1951 127.704 82.323C127.958 81.451 128.027 80.5353 127.905 79.6351C127.413 76.1518 122.178 68.575 121.647 67.96C121.45 67.7298 121.234 67.5159 121.002 67.3204L124.348 77.8246L115.33 66.42C114.366 66.7913 113.497 67.3728 112.786 68.1223C106.341 74.2576 99.4086 96.7616 99.4086 96.7616C104.978 97.5292 127.546 98.6608 127.546 98.6608Z" fill="#F5951D"/>
<path d="M101.731 89.3374L126.946 91.1627L126.774 88.9339L102.449 87.1824C102.223 87.9302 101.928 88.6486 101.731 89.3374Z" fill="#EBEBEB"/>
<path d="M100.501 93.1405L127.261 95.0692L127.079 92.8404L101.195 90.9757C100.968 91.7629 100.683 92.496 100.501 93.1405Z" fill="#EBEBEB"/>
<path d="M116.722 66.8333C116.756 67.2908 118.4 70.4692 120.417 70.6906C121.076 70.7644 121.627 67.1924 121.627 67.1924L121.731 66.9366L123.143 63.3745L119.246 59.901L118.675 59.409C118.675 59.409 118.355 60.393 117.967 61.6574L117.908 61.8346C117.908 61.9084 117.863 61.9723 117.844 62.0363C117.785 62.2232 117.721 62.4151 117.667 62.607C117.613 62.7989 117.578 62.8924 117.539 63.0449C117.499 63.1974 117.455 63.3499 117.411 63.5024C117.106 64.5957 116.875 65.7086 116.722 66.8333Z" fill="#D3766A"/>
<path d="M117.967 61.682C118.175 62.7787 118.619 63.8168 119.269 64.7242C119.919 65.6317 120.759 66.3866 121.731 66.9366L123.143 63.3745L119.246 59.901L118.675 59.409C118.675 59.409 118.355 60.4324 117.967 61.682Z" fill="#263238"/>
<path d="M129.75 58.3758C129.48 65.0965 125.426 65.6918 123.979 65.6328C122.66 65.5836 118.188 65.2294 117.76 58.5185C117.332 51.8076 120.54 49.8052 123.556 49.7707C126.572 49.7363 130.016 51.66 129.75 58.3758Z" fill="#D3766A"/>
<path d="M128.402 56.3783C128.248 56.362 128.095 56.3357 127.945 56.2996C127.779 56.2957 127.62 56.2368 127.492 56.1323C127.458 56.0904 127.44 56.0383 127.44 55.9847C127.44 55.931 127.458 55.879 127.492 55.8371C127.567 55.7625 127.659 55.7087 127.761 55.6811C127.863 55.6535 127.97 55.653 128.072 55.6796C128.287 55.7032 128.484 55.8047 128.628 55.965C128.66 56.0044 128.678 56.0521 128.683 56.1022C128.687 56.1523 128.676 56.2025 128.652 56.2466C128.628 56.2907 128.591 56.3267 128.547 56.3501C128.502 56.3735 128.452 56.3833 128.402 56.3783Z" fill="#263238"/>
<path d="M123.763 56.3045C123.92 56.3045 124.063 56.2602 124.22 56.2356C124.385 56.2321 124.545 56.1771 124.678 56.0782C124.71 56.0356 124.727 55.9838 124.727 55.9306C124.727 55.8773 124.71 55.8255 124.678 55.783C124.605 55.7062 124.514 55.6499 124.413 55.6196C124.312 55.5894 124.205 55.5863 124.102 55.6108C123.886 55.6302 123.685 55.7283 123.536 55.8863C123.503 55.9256 123.483 55.9738 123.478 56.0248C123.473 56.0758 123.483 56.1271 123.508 56.1722C123.532 56.2172 123.569 56.2539 123.615 56.2775C123.66 56.3011 123.712 56.3105 123.763 56.3045Z" fill="#263238"/>
<path d="M124.692 58.0855C124.692 58.0855 124.658 58.0855 124.658 58.1249C124.658 58.5824 124.574 59.1089 124.166 59.2417C124.166 59.2417 124.166 59.2712 124.166 59.2417C124.663 59.2171 124.766 58.5185 124.692 58.0855Z" fill="#263238"/>
<path d="M124.304 57.5886C123.571 57.5099 123.458 58.981 124.137 59.0646C124.815 59.1482 124.904 57.6624 124.304 57.5886Z" fill="#263238"/>
<path d="M124.009 57.6476C123.871 57.7214 123.733 57.8592 123.576 57.8592C123.418 57.8592 123.276 57.7018 123.167 57.5443H123.143C123.113 57.8248 123.202 58.1249 123.502 58.1888C123.802 58.2528 123.994 58.0117 124.082 57.7362C124.102 57.6968 124.063 57.6181 124.009 57.6476Z" fill="#263238"/>
<path d="M127.364 58.179C127.364 58.179 127.398 58.179 127.394 58.2233C127.339 58.6759 127.359 59.2073 127.758 59.3942C127.758 59.3942 127.758 59.4238 127.758 59.3942C127.236 59.3057 127.221 58.6021 127.364 58.179Z" fill="#263238"/>
<path d="M127.792 57.7362C128.53 57.7362 128.461 59.2122 127.792 59.2122C127.123 59.2122 127.172 57.7313 127.792 57.7362Z" fill="#263238"/>
<path d="M128.092 57.8494C128.205 57.933 128.318 58.0806 128.456 58.0954C128.594 58.1101 128.742 57.9576 128.855 57.81C128.855 58.0954 128.747 58.3856 128.471 58.425C128.195 58.4644 128.048 58.2134 127.979 57.933C128.004 57.8936 128.048 57.8149 128.092 57.8494Z" fill="#263238"/>
<path d="M126.582 60.2257C126.61 60.5628 126.619 60.9011 126.611 61.2392C126.611 61.2688 126.533 61.2786 126.424 61.2786C126.144 61.31 125.861 61.2642 125.605 61.1463C125.35 61.0284 125.131 60.8427 124.973 60.6095C124.973 60.575 124.997 60.5455 125.027 60.5652C125.419 60.8742 125.901 61.0469 126.4 61.0572C126.424 60.9686 126.272 59.8813 126.321 59.8813C126.57 59.9192 126.814 59.9903 127.044 60.0929C126.98 58.6562 126.69 57.2393 126.646 55.8076C126.646 55.7958 126.65 55.7846 126.659 55.7762C126.667 55.7679 126.678 55.7633 126.69 55.7633C126.702 55.7633 126.713 55.7679 126.721 55.7762C126.73 55.7846 126.734 55.7958 126.734 55.8076C127.091 57.3152 127.299 58.8544 127.354 60.4028C127.364 60.575 126.71 60.2897 126.582 60.2257Z" fill="#263238"/>
<path d="M118.808 59.0794C118.808 59.0794 117.617 56.8112 116.604 57.2098C115.59 57.6083 116.304 60.7669 117.362 61.3229C117.493 61.4025 117.639 61.455 117.79 61.4771C117.942 61.4992 118.097 61.4904 118.245 61.4514C118.393 61.4123 118.532 61.3438 118.654 61.2499C118.775 61.1559 118.876 61.0385 118.951 60.9047L118.808 59.0794Z" fill="#D3766A"/>
<path d="M116.83 58.1101C116.83 58.1101 116.806 58.1101 116.83 58.1396C117.165 58.3621 117.448 58.6522 117.664 58.9912C117.879 59.3302 118.021 59.7105 118.08 60.1076C118.045 60.0241 117.991 59.9492 117.924 59.8881C117.857 59.827 117.778 59.7811 117.691 59.7535C117.605 59.7259 117.514 59.7174 117.424 59.7284C117.334 59.7394 117.247 59.7698 117.17 59.8174V59.8616C117.312 59.8338 117.46 59.8517 117.591 59.9126C117.723 59.9736 117.832 60.0745 117.903 60.2011C118.023 60.411 118.119 60.6338 118.188 60.8653C118.218 60.9391 118.351 60.9194 118.331 60.8358C118.478 59.8321 117.883 58.3463 116.83 58.1101Z" fill="#263238"/>
<path d="M118.06 58.3413C118.788 58.3413 120.845 56.5209 121.194 53.0228C121.194 53.0228 120.663 56.1421 120.387 56.5849C120.112 57.0277 121.539 55.5517 121.863 52.7326C122.7 53.444 123.635 54.0322 124.638 54.4792C125.937 54.9711 126.759 55.0154 126.862 54.9269C126.965 54.8383 125.052 54.0609 124.574 53.4017C124.574 53.4017 127.984 55.3697 129.607 55.6107C129.794 55.6403 130.346 51.7682 127.954 49.9085C125.563 48.0487 121.411 49.4952 120.25 50.4448C120.25 50.4448 118.97 50.5186 117.44 52.275C115.91 54.0314 117.278 58.3217 118.06 58.3413Z" fill="#263238"/>
<path d="M130.316 54.1692C130.316 54.1692 129.544 46.5973 122.784 47.232C116.023 47.8667 116.673 55.4435 116.673 55.4435L130.316 54.1692Z" fill="#F5951D"/>
<path d="M116.22 56.0127L130.867 54.6513L130.767 53.5785L116.12 54.9399L116.22 56.0127Z" fill="#F5951D"/>
<path d="M123.546 54.2578L126.596 53.9724L125.189 46.6121L122.139 46.8974L123.546 54.2578Z" fill="#5ECD7D"/>
<path d="M112.998 73.9919C114.154 81.795 118.602 94.6559 120.816 95.8465C124.953 98.1196 137.43 99.5414 141.686 99.4283C143.521 99.3791 144.805 87.9893 143.753 86.3312C143.133 85.3472 126.847 85.8786 126.503 85.5982C125.972 85.1701 120.904 76.3584 117.765 72.4962C113.126 66.8038 112.358 69.6475 112.998 73.9919Z" fill="#D3766A"/>
<path d="M141.406 86.1C141.406 86.1 147.157 85.672 150.705 85.608C152.673 85.5736 156.082 85.8146 157.548 86.4493C159.743 87.4038 168.308 92.801 167.044 94.9068C165.897 96.8108 159.133 91.2414 159.133 91.2414C159.133 91.2414 166.458 96.2549 164.658 98.2967C162.857 100.338 156.048 93.0274 156.048 93.0274C156.048 93.0274 163.462 98.3508 161.273 100.161C159.62 101.529 153.081 95.2414 153.081 95.2414C153.081 95.2414 159.418 99.8612 157.78 101.342C155.969 102.981 149.563 97.5685 149.563 97.5685C144.766 100.629 141.224 100.122 138.739 99.4627C138.154 99.3151 141.406 86.1 141.406 86.1Z" fill="#D3766A"/>
<path d="M156.707 89.3374C157.588 89.8982 158.488 90.4542 159.315 91.0889C160.141 91.7236 160.953 92.3878 161.72 93.0962C162.74 94.0049 163.653 95.0266 164.441 96.1417C162.896 94.2623 159.964 91.945 159.132 91.3103C158.301 90.6756 157.509 90.0065 156.672 89.3718L156.707 89.3374Z" fill="#263238"/>
<path d="M154.36 92.2943C155.457 93.052 156.574 93.7703 157.637 94.5772C158.699 95.384 159.605 96.2401 160.623 97.1208C160.697 97.1848 160.623 97.2044 160.559 97.1208C159.526 96.2844 158.508 95.5907 157.465 94.769C156.421 93.9474 155.408 93.0815 154.34 92.309C154.326 92.3041 154.345 92.2795 154.36 92.2943Z" fill="#263238"/>
<path d="M151.895 94.464C153.602 95.5921 155.188 96.8929 156.628 98.3459C156.702 98.4148 156.628 98.4295 156.54 98.3459C154.99 97.0224 153.784 95.9794 151.856 94.5034C151.826 94.5034 151.856 94.464 151.895 94.464Z" fill="#263238"/>
<path d="M122.936 78.7889L114.242 83.8368C114.242 83.8368 111.989 76.014 112.397 71.5368C112.806 67.0596 114.857 67.8862 116.978 70.3954C119.098 72.9046 122.936 78.7889 122.936 78.7889Z" fill="#EBEBEB"/>
<path d="M121.426 77.736C121.48 77.7016 121.524 77.736 121.47 77.7704C119.123 79.3217 116.681 80.725 114.159 81.9721C114.159 81.9721 114.129 81.9721 114.159 81.9426C115.251 81.0914 120.806 78.1001 121.426 77.736Z" fill="#263238"/>
<path d="M118.597 72.3978C120.112 74.4937 121.642 76.7471 123.059 78.8381C123.084 78.8774 122.675 79.03 122.518 79.1038C122.454 79.1333 122.444 79.0595 122.518 79.025C122.627 78.9636 122.729 78.891 122.823 78.8086C121.386 76.693 119.959 74.5724 118.592 72.4126C118.562 72.3978 118.587 72.383 118.597 72.3978Z" fill="#263238"/>
<path d="M319.249 130.744H235.643V166.016H319.249V130.744Z" fill="#F5951D"/>
<path opacity="0.2" d="M319.244 130.744H282.221V166.016H319.244V130.744Z" fill="black"/>
<path d="M317.424 163.585C314.567 161.076 311.734 158.56 308.927 156.038L300.563 148.451L292.297 140.83C289.555 138.288 286.842 135.736 284.159 133.175C287.016 135.677 289.855 138.19 292.676 140.712L301.04 148.299L309.306 155.915C312.034 158.463 314.74 161.02 317.424 163.585Z" fill="#F5951D"/>
<path d="M317.424 133.175C314.737 135.733 312.025 138.285 309.286 140.83L301.04 148.451L292.676 156.038C289.872 158.56 287.039 161.076 284.179 163.585C286.865 161.02 289.578 158.467 292.317 155.925L300.548 148.308L308.912 140.712C311.726 138.196 314.563 135.684 317.424 133.175Z" fill="#F5951D"/>
<path opacity="0.7" d="M255.348 136.087H256.007L256.539 135.644L257.031 136.087H257.331H257.65H258.108L258.28 135.93L258.502 136.087H259.053H259.19H259.372L259.451 135.974L259.614 136.087L259.85 135.89L260.11 136.087H260.484V130.744H255.348V136.087Z" fill="white"/>
<path d="M242.871 163.713H243.117V160.225H242.871V163.713Z" fill="white"/>
<path d="M242.275 163.713H242.521V160.225H242.275V163.713Z" fill="white"/>
<path d="M241.68 163.713H241.926V160.225H241.68V163.713Z" fill="white"/>
<path d="M241.085 163.713H241.331V160.225H241.085V163.713Z" fill="white"/>
<path d="M240.494 163.713H240.74V160.225H240.494V163.713Z" fill="white"/>
<path d="M239.904 163.713H240.15V160.225H239.904V163.713Z" fill="white"/>
<path d="M239.309 163.713H239.555V160.225H239.309V163.713Z" fill="white"/>
<path d="M238.718 163.713H238.964V160.225H238.718V163.713Z" fill="white"/>
<path d="M238.123 163.713H238.369V160.225H238.123V163.713Z" fill="white"/>
<path d="M245.542 163.447L244.588 163.708H246.822L245.872 163.442V162.163C246.551 162.07 246.822 161.401 246.822 160.225H244.588C244.588 161.396 244.858 162.07 245.542 162.163V163.447Z" fill="white"/>
<path d="M247.343 162.001H247.924V163.708H249.419V162.001H250.005L248.672 160.225L247.343 162.001Z" fill="white"/>
<path opacity="0.1" d="M235.643 166.016V164.667L282.221 161.597V166.011L235.643 166.016Z" fill="black"/>
<path d="M286.408 95.4726H236.731V130.744H286.408V95.4726Z" fill="#F5951D"/>
<path opacity="0.2" d="M286.403 95.4726H269.488V130.744H286.403V95.4726Z" fill="black"/>
<path d="M285.237 128.314C283.987 125.804 282.746 123.289 281.512 120.766L277.842 113.16L274.221 105.539C273.021 102.994 271.832 100.442 270.654 97.8834C271.907 100.386 273.148 102.902 274.378 105.431L278.049 113.017L281.67 120.638C282.87 123.197 284.059 125.755 285.237 128.314Z" fill="#F5951D"/>
<path d="M285.237 97.908C284.063 100.466 282.874 103.018 281.67 105.564L278.049 113.16L274.378 120.747C273.148 123.269 271.907 125.785 270.654 128.294C271.832 125.736 273.021 123.182 274.221 120.633L277.842 113.017L281.512 105.431C282.742 102.921 283.984 100.414 285.237 97.908Z" fill="#F5951D"/>
<path opacity="0.7" d="M249.793 102.705H250.452L250.984 102.1L251.476 102.705H251.781H252.096H252.553L252.726 102.489L252.947 102.705H253.503H253.636H253.818L253.896 102.552L254.064 102.705L254.295 102.434L254.556 102.705H254.93V95.4726H249.793V102.705Z" fill="white"/>
<path d="M243.953 128.442H244.199V124.953H243.953V128.442Z" fill="white"/>
<path d="M243.363 128.442H243.609V124.953H243.363V128.442Z" fill="white"/>
<path d="M242.767 128.442H243.013V124.953H242.767V128.442Z" fill="white"/>
<path d="M242.172 128.442H242.418V124.953H242.172V128.442Z" fill="white"/>
<path d="M241.582 128.442H241.828V124.953H241.582V128.442Z" fill="white"/>
<path d="M240.986 128.442H241.232V124.953H240.986V128.442Z" fill="white"/>
<path d="M240.396 128.442H240.642V124.953H240.396V128.442Z" fill="white"/>
<path d="M239.801 128.442H240.047V124.953H239.801V128.442Z" fill="white"/>
<path d="M239.21 128.442H239.456V124.953H239.21V128.442Z" fill="white"/>
<path d="M246.625 128.176L245.675 128.437H247.904L246.949 128.171V126.892C247.633 126.798 247.904 126.129 247.904 124.953H245.67C245.67 126.124 245.941 126.798 246.62 126.892L246.625 128.176Z" fill="white"/>
<path d="M248.426 126.734H249.011V128.442H250.502V126.734H251.087L249.754 124.953L248.426 126.734Z" fill="white"/>
<path opacity="0.1" d="M236.731 130.744V129.396L269.488 126.326V130.739L236.731 130.744Z" fill="black"/>
<path d="M321.724 95.4726H272.046V130.744H321.724V95.4726Z" fill="#F5951D"/>
<path opacity="0.2" d="M321.719 95.4726H304.804V130.744H321.719V95.4726Z" fill="black"/>
<path d="M320.553 128.314C319.303 125.804 318.063 123.289 316.833 120.766L313.163 113.16L309.537 105.539C308.336 103.01 307.144 100.466 305.96 97.908C307.216 100.411 308.458 102.926 309.684 105.455L313.355 113.042L316.976 120.663C318.183 123.205 319.375 125.755 320.553 128.314Z" fill="#F5951D"/>
<path d="M320.553 97.908C319.378 100.466 318.189 103.018 316.986 105.564L313.365 113.16L309.694 120.747C308.464 123.269 307.223 125.785 305.97 128.294C307.151 125.736 308.34 123.182 309.537 120.633L313.163 113.017L316.833 105.431C318.06 102.921 319.3 100.414 320.553 97.908Z" fill="#F5951D"/>
<path opacity="0.7" d="M285.109 102.705H285.768L286.3 102.1L286.797 102.705H287.097H287.416H287.869L288.046 102.489L288.268 102.705H288.819H288.952H289.138L289.217 102.552L289.38 102.705L289.611 102.434L289.876 102.705H290.245V95.4726H285.109V102.705Z" fill="white"/>
<path d="M279.269 128.442H279.515V124.953H279.269V128.442Z" fill="white"/>
<path d="M278.679 128.442H278.925V124.953H278.679V128.442Z" fill="white"/>
<path d="M278.083 128.442H278.329V124.953H278.083V128.442Z" fill="white"/>
<path d="M277.493 128.442H277.739V124.953H277.493V128.442Z" fill="white"/>
<path d="M276.898 128.442H277.144V124.953H276.898V128.442Z" fill="white"/>
<path d="M276.307 128.442H276.553V124.953H276.307V128.442Z" fill="white"/>
<path d="M275.707 128.442H275.953V124.953H275.707V128.442Z" fill="white"/>
<path d="M275.116 128.442H275.362V124.953H275.116V128.442Z" fill="white"/>
<path d="M274.526 128.442H274.772V124.953H274.526V128.442Z" fill="white"/>
<path d="M281.941 128.176L280.991 128.437H283.225L282.27 128.171V126.892C282.954 126.798 283.225 126.129 283.225 124.953H280.991C280.991 126.124 281.262 126.798 281.941 126.892V128.176Z" fill="white"/>
<path d="M283.746 126.734H284.327V128.442H285.817V126.734H286.403L285.075 124.953L283.746 126.734Z" fill="white"/>
<path opacity="0.1" d="M272.046 130.744V129.396L304.804 126.326V130.739L272.046 130.744Z" fill="black"/>
<path d="M304.012 60.2011H243.953V95.4726H304.012V60.2011Z" fill="#F5951D"/>
<path opacity="0.2" d="M304.012 60.2011H287.097V95.4726H304.012V60.2011Z" fill="black"/>
<path d="M302.846 93.0421C301.593 90.5329 300.351 88.0172 299.121 85.4948L295.451 77.9082L291.83 70.2871C290.626 67.7418 289.437 65.19 288.263 62.6316C289.512 65.1408 290.752 67.6566 291.982 70.1789L295.652 77.7655L299.279 85.3866C300.479 87.9319 301.668 90.4837 302.846 93.0421Z" fill="#F5951D"/>
<path d="M302.846 62.6316C301.665 65.19 300.476 67.7418 299.279 70.2871L295.652 77.9082L291.982 85.4948C290.755 88.0172 289.516 90.5329 288.263 93.0421C289.44 90.4837 290.629 87.9319 291.83 85.3866L295.451 77.7655L299.121 70.1789C300.351 67.6566 301.593 65.1408 302.846 62.6316Z" fill="#F5951D"/>
<path opacity="0.7" d="M262.954 67.4335H263.618L264.15 66.8333L264.642 67.4335H264.942H265.262H265.714L265.891 67.217L266.113 67.4335H266.664H266.802H266.984L267.062 67.281L267.225 67.4335L267.461 67.1629L267.722 67.4335H268.091V60.2011H262.954V67.4335Z" fill="white"/>
<path d="M251.176 93.17H251.422V89.6818H251.176V93.17Z" fill="white"/>
<path d="M250.585 93.17H250.831V89.6818H250.585V93.17Z" fill="white"/>
<path d="M249.99 93.17H250.236V89.6818H249.99V93.17Z" fill="white"/>
<path d="M249.4 93.17H249.646V89.6818H249.4V93.17Z" fill="white"/>
<path d="M248.799 93.17H249.045V89.6818H248.799V93.17Z" fill="white"/>
<path d="M248.209 93.17H248.455V89.6818H248.209V93.17Z" fill="white"/>
<path d="M247.619 93.17H247.865V89.6818H247.619V93.17Z" fill="white"/>
<path d="M247.023 93.17H247.269V89.6818H247.023V93.17Z" fill="white"/>
<path d="M246.433 93.17H246.679V89.6818H246.433V93.17Z" fill="white"/>
<path d="M253.847 92.9044L252.898 93.17H255.131L254.177 92.8994V91.6202C254.861 91.5317 255.131 90.8576 255.131 89.6818H252.898C252.898 90.8527 253.168 91.5317 253.847 91.6202V92.9044Z" fill="white"/>
<path d="M255.648 91.4628H256.234V93.17H257.724V91.4628H258.31L256.981 89.6818L255.648 91.4628Z" fill="white"/>
<path opacity="0.1" d="M243.953 95.4726V94.1294L287.097 91.0544V95.4677L243.953 95.4726Z" fill="black"/>
<path d="M246.133 167.61H239.505V173.499H246.133V167.61Z" fill="#F5951D"/>
<path opacity="0.3" d="M246.133 167.61H239.505V173.499H246.133V167.61Z" fill="black"/>
<path opacity="0.3" d="M246.128 168.909L239.505 169.71V167.61H246.128V168.909Z" fill="black"/>
<path d="M280.774 167.61H274.147V173.499H280.774V167.61Z" fill="#F5951D"/>
<path opacity="0.3" d="M280.774 167.61H274.147V173.499H280.774V167.61Z" fill="black"/>
<path opacity="0.3" d="M280.774 168.909L274.147 169.71V167.61H280.774V168.909Z" fill="black"/>
<path d="M315.421 167.61H308.794V173.499H315.421V167.61Z" fill="#F5951D"/>
<path opacity="0.3" d="M315.421 167.61H308.794V173.499H315.421V167.61Z" fill="black"/>
<path opacity="0.3" d="M315.421 168.909L308.794 169.71V167.61H315.421V168.909Z" fill="black"/>
<path d="M319.072 166.016H235.855V167.61H319.072V166.016Z" fill="#F5951D"/>
<path opacity="0.3" d="M319.072 166.016H235.855V167.61H319.072V166.016Z" fill="black"/>
<path d="M319.072 173.499H235.855V175.093H319.072V173.499Z" fill="#F5951D"/>
<path opacity="0.3" d="M319.072 173.499H235.855V175.093H319.072V173.499Z" fill="black"/>
</svg>
