<svg width="360" height="240" viewBox="0 0 360 240" fill="none" xmlns="http://www.w3.org/2000/svg">
<path d="M92.3858 152.626H29.3474V201.245H92.3858V152.626Z" fill="#EBEBEB"/>
<path d="M76.5937 200.899C76.5217 200.899 76.4641 190.066 76.4641 176.698C76.4641 163.33 76.5217 152.491 76.5937 152.491C76.6657 152.491 76.7185 163.33 76.7185 176.698C76.7185 190.066 76.6609 200.899 76.5937 200.899Z" fill="#E0E0E0"/>
<path d="M87.0433 190.176H82.2097V195.638H87.0433V190.176Z" fill="#FAFAFA"/>
<path d="M55.7424 152.75H48.5808V163.123H55.7424V152.75Z" fill="#E0E0E0"/>
<path d="M55.7424 190.723H48.5808V201.096H55.7424V190.723Z" fill="#E0E0E0"/>
<path d="M102.245 104.117H39.2065V152.736H102.245V104.117Z" fill="#EBEBEB"/>
<path d="M86.4481 152.39C86.3808 152.39 86.3232 141.557 86.3232 128.189C86.3232 114.821 86.3808 103.987 86.4481 103.987C86.5153 103.987 86.5729 114.821 86.5729 128.189C86.5729 141.557 86.5201 152.39 86.4481 152.39Z" fill="#E0E0E0"/>
<path d="M96.8978 141.667H92.0642V147.13H96.8978V141.667Z" fill="#FAFAFA"/>
<path d="M65.5969 104.242H58.4353V114.614H65.5969V104.242Z" fill="#E0E0E0"/>
<path d="M65.5969 142.219H58.4353V152.592H65.5969V142.219Z" fill="#E0E0E0"/>
<path d="M97.9104 65.1504H47.2224V104.242H97.9104V65.1504Z" fill="#F5F5F5"/>
<path d="M85.2097 103.968C85.1569 103.968 85.1089 95.2512 85.1089 84.504C85.1089 73.7568 85.1569 65.0448 85.2097 65.0448C85.2625 65.0448 85.3105 73.7568 85.3105 84.504C85.3105 95.2512 85.2673 103.968 85.2097 103.968Z" fill="#E0E0E0"/>
<path d="M93.6146 95.3424H89.7266V99.7344H93.6146V95.3424Z" fill="#FAFAFA"/>
<path d="M68.4432 65.2512H62.688V73.5936H68.4432V65.2512Z" fill="#E0E0E0"/>
<path d="M68.4432 95.784H62.688V104.126H68.4432V95.784Z" fill="#E0E0E0"/>
<path d="M324.173 92.2896H276.562V129.01H324.173V92.2896Z" fill="#F5F5F5"/>
<path d="M312.245 128.755C312.192 128.755 312.149 120.566 312.149 110.472C312.149 100.378 312.192 92.1936 312.245 92.1936C312.298 92.1936 312.336 100.378 312.336 110.472C312.336 120.566 312.298 128.755 312.245 128.755Z" fill="#E0E0E0"/>
<path d="M320.131 120.653H316.483V124.781H320.131V120.653Z" fill="#FAFAFA"/>
<path d="M296.496 92.3856H291.086V100.219H296.496V92.3856Z" fill="#E0E0E0"/>
<path d="M296.496 121.07H291.086V128.904H296.496V121.07Z" fill="#E0E0E0"/>
<path d="M340.128 171.23H285.254V213.557H340.128V171.23Z" fill="#EBEBEB"/>
<path d="M326.4 213.254C326.342 213.254 326.294 203.822 326.294 192.187C326.294 180.552 326.342 171.115 326.4 171.115C326.458 171.115 326.51 180.547 326.51 192.187C326.51 203.827 326.443 213.254 326.4 213.254Z" fill="#E0E0E0"/>
<path d="M335.477 203.918H331.272V208.675H335.477V203.918Z" fill="#FAFAFA"/>
<path d="M308.232 171.336H301.997V180.365H308.232V171.336Z" fill="#E0E0E0"/>
<path d="M308.232 204.398H301.997V213.427H308.232V204.398Z" fill="#E0E0E0"/>
<path d="M332.549 129.014H277.675V171.341H332.549V129.014Z" fill="#EBEBEB"/>
<path d="M318.802 171.038C318.739 171.038 318.691 161.606 318.691 149.971C318.691 138.336 318.739 128.899 318.802 128.899C318.864 128.899 318.912 138.331 318.912 149.971C318.912 161.611 318.864 171.038 318.802 171.038Z" fill="#E0E0E0"/>
<path d="M327.898 161.702H323.693V166.459H327.898V161.702Z" fill="#FAFAFA"/>
<path d="M300.653 129.12H294.418V138.149H300.653V129.12Z" fill="#E0E0E0"/>
<path d="M300.653 162.182H294.418V171.211H300.653V162.182Z" fill="#E0E0E0"/>
<path d="M231.346 92.88H183.734V129.6H231.346V92.88Z" fill="#F5F5F5"/>
<path d="M219.418 129.346C219.365 129.346 219.326 121.157 219.326 111.062C219.326 100.968 219.365 92.784 219.418 92.784C219.47 92.784 219.514 100.944 219.514 111.062C219.514 121.181 219.47 129.346 219.418 129.346Z" fill="#E0E0E0"/>
<path d="M227.309 121.243H223.661V125.371H227.309V121.243Z" fill="#FAFAFA"/>
<path d="M203.669 92.976H198.259V100.81H203.669V92.976Z" fill="#E0E0E0"/>
<path d="M203.669 121.661H198.259V129.494H203.669V121.661Z" fill="#E0E0E0"/>
<path d="M235.57 56.256H187.958V92.976H235.57V56.256Z" fill="#EBEBEB"/>
<path d="M223.642 92.7168C223.589 92.7168 223.546 84.5568 223.546 74.4384C223.546 64.32 223.589 56.1552 223.642 56.1552C223.694 56.1552 223.738 64.3152 223.738 74.4384C223.738 84.5616 223.68 92.7168 223.642 92.7168Z" fill="#E0E0E0"/>
<path d="M231.533 84.6192H227.885V88.7472H231.533V84.6192Z" fill="#FAFAFA"/>
<path d="M207.893 56.3472H202.483V64.1808H207.893V56.3472Z" fill="#E0E0E0"/>
<path d="M207.893 85.032H202.483V92.8656H207.893V85.032Z" fill="#E0E0E0"/>
<path d="M233.784 30.768H199.719V57.0432H233.784V30.768Z" fill="#EBEBEB"/>
<path d="M225.254 56.8608C225.216 56.8608 225.187 51.0048 225.187 43.7808C225.187 36.5568 225.216 30.72 225.254 30.72C225.293 30.72 225.322 36.576 225.322 43.8C225.322 51.024 225.288 56.8608 225.254 56.8608Z" fill="#E0E0E0"/>
<path d="M230.899 51.0672H228.288V54.0192H230.899V51.0672Z" fill="#FAFAFA"/>
<path d="M213.984 30.84H210.115V36.4464H213.984V30.84Z" fill="#E0E0E0"/>
<path d="M213.984 51.36H210.115V56.9664H213.984V51.36Z" fill="#E0E0E0"/>
<path d="M247.306 171.821H192.432V214.147H247.306V171.821Z" fill="#EBEBEB"/>
<path d="M233.558 213.845C233.496 213.845 233.448 204.413 233.448 192.778C233.448 181.142 233.496 171.706 233.558 171.706C233.621 171.706 233.664 181.138 233.664 192.778C233.664 204.418 233.616 213.845 233.558 213.845Z" fill="#E0E0E0"/>
<path d="M242.65 204.509H238.445V209.266H242.65V204.509Z" fill="#FAFAFA"/>
<path d="M215.405 171.926H209.17V180.955H215.405V171.926Z" fill="#E0E0E0"/>
<path d="M215.405 204.989H209.17V214.018H215.405V204.989Z" fill="#E0E0E0"/>
<path d="M239.722 129.605H184.848V171.931H239.722V129.605Z" fill="#EBEBEB"/>
<path d="M225.979 171.629C225.917 171.629 225.869 162.197 225.869 150.562C225.869 138.926 225.917 129.49 225.979 129.49C226.042 129.49 226.085 138.922 226.085 150.562C226.085 162.202 226.037 171.629 225.979 171.629Z" fill="#E0E0E0"/>
<path d="M235.07 162.293H230.866V167.05H235.07V162.293Z" fill="#FAFAFA"/>
<path d="M207.826 129.71H201.591V138.739H207.826V129.71Z" fill="#E0E0E0"/>
<path d="M207.826 162.773H201.591V171.802H207.826V162.773Z" fill="#E0E0E0"/>
<path d="M120.384 205.762V201.245H27.9841C27.6569 201.245 27.3431 201.375 27.1118 201.606C26.8805 201.837 26.7505 202.151 26.7505 202.478V204.528C26.7505 204.855 26.8805 205.169 27.1118 205.4C27.3431 205.632 27.6569 205.762 27.9841 205.762H30.5569V207.84C30.5569 207.999 30.5255 208.157 30.4644 208.305C30.4034 208.452 30.314 208.586 30.2012 208.699C30.0884 208.811 29.9546 208.901 29.8072 208.962C29.6599 209.023 29.502 209.054 29.3425 209.054H27.9649C27.6477 209.054 27.3431 209.178 27.1162 209.4C26.8893 209.621 26.758 209.923 26.7505 210.24V212.328C26.7505 212.65 26.8784 212.959 27.1062 213.187C27.3339 213.414 27.6428 213.542 27.9649 213.542H120.384V209.026H98.8465V205.752L120.384 205.762ZM52.7041 205.762H58.2433V209.035H52.7041V205.762ZM49.0129 209.035H43.4785V205.762H49.0129V209.035ZM61.9201 205.762H67.4545V209.035H61.9201V205.762ZM71.1457 205.762H76.6849V209.035H71.1601L71.1457 205.762ZM80.3761 205.762H85.9201V209.035H80.3905L80.3761 205.762ZM34.2337 205.762H39.7873V209.035H34.2481L34.2337 205.762ZM95.1409 209.035H89.6161V205.762H95.1553L95.1409 209.035Z" fill="#E0E0E0"/>
<path d="M117.269 111.6H67.2625V150.173H117.269V111.6Z" fill="#F5951D"/>
<path opacity="0.3" d="M117.269 111.6H67.2625V150.173H117.269V111.6Z" fill="black"/>
<path d="M104.741 149.899C104.698 149.899 104.659 141.302 104.659 130.699C104.659 120.096 104.698 111.499 104.741 111.499C104.784 111.499 104.822 120.096 104.822 130.699C104.822 141.302 104.784 149.899 104.741 149.899Z" fill="#263238"/>
<path d="M113.031 141.394H109.195V145.728H113.031V141.394Z" fill="#F5F5F5"/>
<path d="M88.1952 111.701H82.5168V119.933H88.1952V111.701Z" fill="#263238"/>
<path d="M88.1952 141.826H82.5168V150.058H88.1952V141.826Z" fill="#263238"/>
<path d="M116.837 111.6H116.707H116.333H114.893L109.579 111.624H92.0544H74.5248L69.216 111.595H67.776H67.4016H67.272H67.4016H67.776H69.216L74.5248 111.571H92.0544H109.579L114.893 111.595H116.333H116.707L116.837 111.6Z" fill="#263238"/>
<path d="M158.899 111.552H108.893V150.125H158.899V111.552Z" fill="#F5951D"/>
<path d="M146.371 149.851C146.328 149.851 146.29 141.254 146.29 130.651C146.29 120.048 146.328 111.451 146.371 111.451C146.414 111.451 146.453 120.043 146.453 130.651C146.453 141.259 146.4 149.851 146.371 149.851Z" fill="#263238"/>
<path d="M154.661 141.346H150.826V145.68H154.661V141.346Z" fill="#F5F5F5"/>
<path opacity="0.5" d="M129.826 111.653H124.147V119.885H129.826V111.653Z" fill="white"/>
<path opacity="0.5" d="M129.826 141.778H124.147V150.01H129.826V141.778Z" fill="white"/>
<path d="M158.462 111.552H158.338H157.958H156.518L151.21 111.576H133.685H116.155L110.842 111.552H109.402H109.023H108.898H109.023H109.402H110.842L116.155 111.523L133.685 111.499L151.21 111.523L156.518 111.552H157.958H158.338H158.462Z" fill="#263238"/>
<path d="M161.707 72.9792H111.701V111.552H161.707V72.9792Z" fill="#F5951D"/>
<path d="M149.179 111.278C149.131 111.278 149.098 102.682 149.098 92.0784C149.098 81.4752 149.131 72.8784 149.179 72.8784C149.227 72.8784 149.261 81.4704 149.261 92.0784C149.261 102.686 149.222 111.278 149.179 111.278Z" fill="#263238"/>
<path d="M157.469 102.773H153.634V107.107H157.469V102.773Z" fill="#F5F5F5"/>
<path d="M132.633 73.08H126.955V81.312H132.633V73.08Z" fill="#263238"/>
<path d="M132.633 103.205H126.955V111.437H132.633V103.205Z" fill="#263238"/>
<path d="M161.28 72.96C161.239 72.9672 161.196 72.9672 161.155 72.96H160.776H159.336H154.027L136.502 72.984L118.973 72.96H113.659H112.219H111.84C111.799 72.9672 111.756 72.9672 111.715 72.96H111.84H112.219H113.659L118.973 72.9312H136.502H154.027L159.336 72.96H160.776H161.155H161.28Z" fill="#263238"/>
<path d="M156.36 193.118V188.602H63.9647C63.6371 188.602 63.3228 188.731 63.0907 188.963C62.8586 189.194 62.7276 189.508 62.7263 189.835V191.885C62.7276 192.212 62.8586 192.526 63.0907 192.757C63.3228 192.989 63.6371 193.118 63.9647 193.118H66.5375V195.173C66.5375 195.496 66.4091 195.806 66.1804 196.035C65.9518 196.264 65.6417 196.392 65.3183 196.392H63.9455C63.623 196.392 63.3136 196.52 63.0851 196.747C62.8566 196.975 62.7276 197.284 62.7263 197.606V199.68C62.7276 200.003 62.8566 200.311 63.0851 200.539C63.3136 200.767 63.623 200.894 63.9455 200.894H156.36V196.378H134.822V193.104L156.36 193.118ZM88.6799 193.118H94.2143V196.392H88.6847L88.6799 193.118ZM84.9887 196.392H79.4543V193.118H84.9935L84.9887 196.392ZM97.9199 193.118H103.459V196.392H97.9199V193.118ZM107.15 193.118H112.685V196.392H107.141L107.15 193.118ZM116.376 193.118H121.92V196.392H116.366L116.376 193.118ZM70.2383 193.118H75.7727V196.392H70.2287L70.2383 193.118ZM131.141 196.392H125.592V193.118H131.131L131.141 196.392Z" fill="#455A64"/>
<path d="M230.837 115.301C230.988 115.146 231.107 114.963 231.187 114.762C231.267 114.56 231.305 114.345 231.301 114.129C231.296 113.913 231.249 113.7 231.161 113.502C231.073 113.304 230.947 113.126 230.789 112.978L215.203 98.2464C214.892 97.9541 214.481 97.7915 214.054 97.7915C213.627 97.7915 213.216 97.9541 212.904 98.2464C212.74 98.3986 212.609 98.582 212.517 98.7858C212.425 98.9896 212.374 99.2098 212.368 99.4333C212.363 99.6568 212.401 99.8793 212.483 100.088C212.564 100.296 212.686 100.486 212.842 100.646L219.058 107.184L215.823 110.299L214.138 108.96L202.383 122.424L196.099 116.381L188.525 138.658L190.027 168.898H207.451L206.232 132.96L217.92 116.314L218.011 112.354L221.371 108.912L228.615 115.382C228.929 115.662 229.339 115.81 229.759 115.795C230.179 115.779 230.577 115.602 230.871 115.301H230.837Z" fill="#263238"/>
<path d="M183.84 174.499C183.773 174.499 183.715 146.909 183.715 112.882C183.715 78.8544 183.773 51.2544 183.84 51.2544C183.907 51.2544 183.965 78.84 183.965 112.882C183.965 146.923 183.893 174.499 183.84 174.499Z" fill="#263238"/>
<path d="M222.84 166.728L233.438 137.28L229.454 135.667V129.979L258.432 129.533C259.115 129.52 259.77 129.259 260.275 128.799C260.78 128.339 261.101 127.711 261.178 127.032L265.44 89.1984C265.536 88.3523 265.939 87.571 266.574 87.0036C267.209 86.4361 268.03 86.1221 268.882 86.1216C269.349 86.1212 269.811 86.2153 270.24 86.3981C270.67 86.581 271.058 86.8489 271.381 87.1856C271.705 87.5224 271.956 87.9211 272.122 88.3577C272.287 88.7944 272.362 89.26 272.342 89.7264L270.72 128.712L285.85 128.794L286.363 135.902L241.618 137.654L229.949 166.306L222.84 166.728Z" fill="#455A64"/>
<path d="M229.507 166.008L191.837 166.306V168.816L207.442 168.614L232.296 168.422L292.555 159.917L285.725 133.92H244.925C244.22 133.91 243.522 134.071 242.893 134.391C242.265 134.71 241.723 135.178 241.315 135.754L229.507 166.008Z" fill="#263238"/>
<path d="M211.454 57.2928L184.094 144.619L184.286 168.912H192.96V144.773L215.395 57.528L276.182 57.1872L287.808 148.066H294.667L280.522 57.8256C280.299 56.6452 279.671 55.5796 278.747 54.8128C277.822 54.0459 276.659 53.626 275.458 53.6256H216.389C215.281 53.6251 214.203 53.9816 213.314 54.6422C212.426 55.3028 211.773 56.2323 211.454 57.2928Z" fill="#455A64"/>
<path d="M179.155 196.968V173.64L184.262 168.912L232.262 168.293L240.902 161.266C242.512 159.959 244.492 159.193 246.562 159.077L255.806 158.554C255.806 158.554 259.954 155.698 263.966 152.866C269.049 149.264 275.123 147.329 281.352 147.326H307.958C308.925 147.326 309.851 147.71 310.535 148.393C311.218 149.077 311.602 150.003 311.602 150.97V196.968H179.155Z" fill="#F5951D"/>
<path d="M311.592 189.451H178.685V197.122H311.592V189.451Z" fill="#263238"/>
<path d="M185.563 196.882C185.515 200.132 186.432 203.324 188.198 206.053C189.964 208.782 192.5 210.927 195.485 212.215C198.47 213.503 201.769 213.877 204.967 213.289C208.164 212.702 211.115 211.18 213.447 208.915C215.779 206.65 217.387 203.744 218.068 200.565C218.748 197.387 218.471 194.077 217.271 191.056C216.07 188.035 214.001 185.438 211.324 183.593C208.648 181.748 205.484 180.738 202.234 180.691C197.876 180.628 193.672 182.299 190.546 185.335C187.42 188.371 185.628 192.524 185.563 196.882Z" fill="#263238"/>
<path d="M185.568 196.843C185.568 196.843 185.568 196.867 185.568 196.882C185.543 201.215 187.231 205.383 190.264 208.478C193.297 211.574 197.43 213.346 201.763 213.409C206.096 213.472 210.279 211.822 213.401 208.816C216.523 205.811 218.332 201.694 218.434 197.362C218.434 197.362 218.434 197.333 218.434 197.318L185.568 196.843Z" fill="#263238"/>
<path d="M190.459 196.954C190.43 199.23 191.076 201.465 192.316 203.374C193.556 205.284 195.334 206.783 197.426 207.683C199.517 208.583 201.829 208.843 204.068 208.43C206.307 208.017 208.373 206.95 210.006 205.363C211.639 203.776 212.765 201.741 213.243 199.515C213.72 197.288 213.526 194.971 212.687 192.854C211.847 190.737 210.4 188.917 208.526 187.623C206.653 186.329 204.438 185.619 202.162 185.582C200.646 185.558 199.14 185.834 197.731 186.392C196.322 186.951 195.037 187.783 193.95 188.839C192.863 189.895 191.995 191.156 191.396 192.548C190.797 193.941 190.479 195.438 190.459 196.954Z" fill="#FAFAFA"/>
<path d="M202.162 185.582C200.646 185.558 199.14 185.834 197.731 186.392C196.322 186.951 195.037 187.783 193.95 188.839C192.863 189.895 191.995 191.156 191.396 192.548C190.797 193.941 190.479 195.438 190.459 196.954L213.533 197.285C213.557 195.769 213.282 194.264 212.723 192.855C212.164 191.445 211.333 190.16 210.276 189.073C209.22 187.986 207.959 187.118 206.567 186.519C205.174 185.92 203.677 185.602 202.162 185.582Z" fill="#E0E0E0"/>
<path d="M194.966 197.021C194.949 198.41 195.345 199.774 196.103 200.939C196.861 202.104 197.947 203.018 199.224 203.565C200.502 204.113 201.913 204.27 203.279 204.015C204.646 203.761 205.906 203.107 206.901 202.136C207.895 201.166 208.58 199.922 208.868 198.562C209.156 197.203 209.034 195.788 208.518 194.498C208.002 193.207 207.115 192.099 205.969 191.312C204.823 190.526 203.47 190.097 202.08 190.08C200.217 190.058 198.421 190.777 197.087 192.078C195.753 193.38 194.99 195.157 194.966 197.021Z" fill="#263238"/>
<path d="M265.983 196.882C265.934 200.132 266.851 203.324 268.617 206.053C270.383 208.782 272.919 210.927 275.904 212.215C278.889 213.503 282.188 213.877 285.386 213.289C288.583 212.702 291.534 211.18 293.866 208.915C296.198 206.65 297.806 203.744 298.487 200.565C299.168 197.387 298.89 194.077 297.69 191.056C296.489 188.035 294.42 185.438 291.744 183.593C289.067 181.748 285.903 180.738 282.653 180.691C278.296 180.628 274.092 182.299 270.965 185.335C267.839 188.371 266.047 192.524 265.983 196.882Z" fill="#263238"/>
<path d="M265.987 196.843C265.987 196.843 265.987 196.867 265.987 196.882C265.963 201.215 267.65 205.383 270.683 208.478C273.716 211.574 277.849 213.346 282.182 213.409C286.515 213.472 290.698 211.822 293.82 208.816C296.942 205.811 298.751 201.694 298.853 197.362C298.853 197.362 298.853 197.333 298.853 197.318L265.987 196.843Z" fill="#263238"/>
<path d="M270.878 196.954C270.849 199.23 271.495 201.465 272.735 203.374C273.975 205.284 275.753 206.783 277.845 207.683C279.936 208.583 282.248 208.843 284.487 208.43C286.726 208.017 288.793 206.95 290.426 205.363C292.059 203.776 293.185 201.741 293.662 199.515C294.139 197.288 293.945 194.971 293.106 192.854C292.267 190.737 290.819 188.917 288.946 187.623C287.072 186.329 284.857 185.619 282.581 185.582C281.065 185.558 279.56 185.834 278.15 186.392C276.741 186.951 275.456 187.783 274.369 188.839C273.282 189.895 272.414 191.156 271.815 192.548C271.216 193.941 270.898 195.438 270.878 196.954Z" fill="#FAFAFA"/>
<path d="M282.581 185.582C281.065 185.558 279.56 185.834 278.151 186.392C276.741 186.951 275.456 187.783 274.369 188.839C273.282 189.895 272.414 191.156 271.815 192.548C271.216 193.941 270.898 195.438 270.878 196.954L293.952 197.285C293.976 195.769 293.701 194.264 293.142 192.855C292.583 191.445 291.752 190.16 290.695 189.073C289.639 187.986 288.378 187.118 286.986 186.519C285.594 185.92 284.097 185.602 282.581 185.582Z" fill="#E0E0E0"/>
<path d="M275.39 197.021C275.373 198.41 275.769 199.773 276.526 200.937C277.283 202.102 278.369 203.016 279.645 203.564C280.922 204.112 282.332 204.269 283.698 204.016C285.064 203.763 286.324 203.11 287.319 202.141C288.315 201.172 289 199.93 289.29 198.571C289.579 197.212 289.46 195.798 288.946 194.508C288.432 193.217 287.547 192.107 286.403 191.319C285.259 190.531 283.907 190.1 282.518 190.08C281.594 190.067 280.677 190.236 279.818 190.578C278.96 190.919 278.177 191.427 277.515 192.072C276.853 192.717 276.324 193.486 275.96 194.335C275.595 195.184 275.402 196.097 275.39 197.021Z" fill="#263238"/>
<path d="M303.801 185.424C303.772 185.388 303.744 185.349 303.72 185.309L303.509 184.963L303.173 184.397C303.026 184.137 302.866 183.886 302.693 183.643C301.638 182.057 300.394 180.607 298.987 179.323C298.565 178.896 298.051 178.526 297.547 178.099C297.043 177.672 296.467 177.307 295.891 176.899C295.315 176.491 294.682 176.117 294 175.786C293.669 175.613 293.333 175.426 292.987 175.258L291.907 174.778C290.375 174.132 288.779 173.649 287.146 173.338C285.392 173 283.606 172.865 281.822 172.934C278.365 173.127 274.993 174.088 271.954 175.747L270.926 176.323C270.595 176.525 270.283 176.746 269.966 176.947C269.318 177.341 268.762 177.821 268.19 178.238C267.619 178.656 267.125 179.131 266.654 179.587C266.184 180.043 265.723 180.48 265.339 180.946C264.06 182.358 262.959 183.921 262.061 185.602C261.91 185.859 261.776 186.125 261.658 186.398C261.547 186.629 261.451 186.826 261.374 186.994L261.197 187.358C261.178 187.4 261.156 187.441 261.13 187.478C261.138 187.433 261.152 187.39 261.173 187.349L261.326 186.974L261.586 186.37C261.699 186.092 261.829 185.821 261.974 185.558C262.845 183.85 263.933 182.261 265.21 180.83C265.589 180.35 266.064 179.928 266.52 179.448C266.976 178.968 267.523 178.546 268.061 178.075C268.598 177.605 269.194 177.168 269.842 176.765C270.158 176.558 270.475 176.338 270.802 176.131L271.834 175.541C273.309 174.74 274.865 174.097 276.475 173.621C278.209 173.111 279.995 172.802 281.798 172.699C285.294 172.563 288.776 173.211 291.989 174.595L293.074 175.075C293.424 175.243 293.76 175.435 294.096 175.613C294.782 175.949 295.382 176.381 296.016 176.746C296.65 177.11 297.163 177.552 297.677 177.97C298.19 178.387 298.694 178.781 299.117 179.213C300.522 180.517 301.754 181.997 302.784 183.614C302.958 183.861 303.118 184.118 303.264 184.382L303.576 184.963C303.658 185.112 303.72 185.227 303.768 185.323C303.816 185.419 303.806 185.419 303.801 185.424Z" fill="#263238"/>
<path d="M223.454 188.448C223.426 188.408 223.404 188.364 223.387 188.318C223.349 188.218 223.296 188.088 223.229 187.925L222.97 187.286C222.854 187.037 222.725 186.749 222.581 186.427C221.744 184.613 220.702 182.901 219.475 181.325C217.685 178.962 215.402 177.018 212.784 175.627C211.216 174.862 209.554 174.308 207.84 173.981C206.004 173.603 204.131 173.432 202.258 173.472C200.384 173.498 198.519 173.738 196.699 174.187C195.006 174.611 193.374 175.248 191.842 176.083C189.224 177.475 186.883 179.335 184.934 181.57C183.639 183.084 182.512 184.736 181.574 186.494C181.238 187.118 180.984 187.608 180.826 187.934C180.749 188.093 180.682 188.218 180.634 188.314C180.615 188.358 180.591 188.4 180.562 188.438C180.57 188.391 180.586 188.346 180.61 188.304L180.782 187.915C180.926 187.57 181.166 187.075 181.488 186.442C182.397 184.653 183.508 182.975 184.8 181.44C186.746 179.17 189.096 177.28 191.731 175.867C193.279 175.023 194.927 174.377 196.637 173.947C198.475 173.493 200.359 173.25 202.253 173.222C204.147 173.189 206.039 173.37 207.893 173.76C209.626 174.095 211.306 174.66 212.89 175.44C215.529 176.855 217.823 178.835 219.61 181.238C220.831 182.833 221.858 184.569 222.667 186.408L223.032 187.277C223.123 187.531 223.205 187.757 223.267 187.925C223.33 188.093 223.373 188.222 223.406 188.328C223.427 188.366 223.443 188.406 223.454 188.448Z" fill="#263238"/>
<path d="M179.121 188.602H106.267V197.122H179.121V188.602Z" fill="#263238"/>
<path d="M177.149 192.216C177.149 192.636 177.024 193.046 176.791 193.395C176.558 193.744 176.227 194.016 175.839 194.176C175.451 194.337 175.025 194.379 174.613 194.297C174.202 194.215 173.824 194.013 173.527 193.716C173.23 193.419 173.028 193.041 172.946 192.63C172.864 192.218 172.906 191.792 173.067 191.404C173.228 191.016 173.5 190.685 173.848 190.452C174.197 190.219 174.608 190.094 175.027 190.094C175.59 190.094 176.129 190.318 176.527 190.716C176.925 191.114 177.149 191.653 177.149 192.216Z" fill="#455A64"/>
<path d="M178.166 52.9536H172.085V173.76H178.166V52.9536Z" fill="#455A64"/>
<path d="M264.653 180.643C264.653 180.71 254.4 180.768 241.757 180.768C229.114 180.768 218.861 180.71 218.861 180.643C218.861 180.576 229.109 180.518 241.757 180.518C254.405 180.518 264.653 180.576 264.653 180.643Z" fill="#263238"/>
<path d="M255.322 178.834C255.25 178.834 255.197 174.374 255.197 168.874C255.197 163.373 255.25 158.918 255.322 158.918C255.394 158.918 255.446 163.373 255.446 168.874C255.446 174.374 255.389 178.834 255.322 178.834Z" fill="#263238"/>
<path d="M183.845 50.184H171.432V55.7232H183.845V50.184Z" fill="#263238"/>
<path d="M179.122 172.762H171.13V188.707H179.122V172.762Z" fill="#263238"/>
<path d="M160.565 150.139H110.558V188.712H160.565V150.139Z" fill="#F5951D"/>
<path opacity="0.3" d="M160.565 150.139H110.558V188.712H160.565V150.139Z" fill="black"/>
<path d="M148.037 188.438C147.994 188.438 147.955 179.842 147.955 169.238C147.955 158.635 147.994 150.038 148.037 150.038C148.08 150.038 148.119 158.635 148.119 169.238C148.119 179.842 148.08 188.438 148.037 188.438Z" fill="#263238"/>
<path d="M156.326 179.933H152.491V184.267H156.326V179.933Z" fill="#F5F5F5"/>
<path d="M131.491 150.24H125.813V158.472H131.491V150.24Z" fill="#263238"/>
<path d="M131.491 180.365H125.813V188.597H131.491V180.365Z" fill="#263238"/>
<path d="M160.128 150.139H160.003H159.624H158.184L152.87 150.163L135.36 150.24H117.83L112.522 150.216H111.082H110.702H110.578C110.619 150.212 110.661 150.212 110.702 150.216H111.082H112.522L117.83 150.192L135.36 150.168L152.885 150.192L158.198 150.216H159.638H160.018C160.052 150.187 160.089 150.161 160.128 150.139Z" fill="#263238"/>
<path d="M108.11 150.139H58.104V188.712H108.11V150.139Z" fill="#F5951D"/>
<path d="M95.5872 188.438C95.5392 188.438 95.5056 179.842 95.5056 169.238C95.5056 158.635 95.5392 150.038 95.5872 150.038C95.6352 150.038 95.664 158.635 95.664 169.238C95.664 179.842 95.6304 188.438 95.5872 188.438Z" fill="#263238"/>
<path d="M103.877 179.933H100.042V184.267H103.877V179.933Z" fill="#F5F5F5"/>
<path opacity="0.5" d="M79.0417 150.24H73.3633V158.472H79.0417V150.24Z" fill="white"/>
<path opacity="0.5" d="M79.0417 180.365H73.3633V188.597H79.0417V180.365Z" fill="white"/>
<path d="M107.678 150.139H107.549H107.174H105.734L100.426 150.163H82.9007H65.3711L60.0575 150.139H58.6175H58.2431H58.1135C58.1566 150.135 58.2 150.135 58.2431 150.139H58.6175H60.0575L65.3711 150.115L82.9007 150.091L100.426 150.115L105.734 150.139H107.174H107.549C107.592 150.135 107.635 150.135 107.678 150.139Z" fill="#263238"/>
<path d="M313.69 160.622C316.267 161.246 318.432 163.862 318.389 166.517C318.334 167.846 317.845 169.121 316.996 170.146C316.147 171.171 314.986 171.889 313.69 172.19" fill="#F5951D"/>
<g opacity="0.6">
<path opacity="0.6" d="M313.69 160.622C316.267 161.246 318.432 163.862 318.389 166.517C318.334 167.846 317.845 169.121 316.996 170.146C316.147 171.171 314.986 171.889 313.69 172.19" fill="white"/>
</g>
<path d="M313.795 159.134H311.592V173.731H313.795V159.134Z" fill="#F5951D"/>
<path opacity="0.3" d="M313.795 159.134H311.592V173.731H313.795V159.134Z" fill="black"/>
<path d="M208.968 100.642C208.703 100.436 208.521 100.142 208.455 99.8134C208.389 99.4847 208.443 99.1432 208.608 98.8512C208.978 98.208 209.41 97.4496 209.606 97.1328C209.847 96.7581 210.066 96.3703 210.264 95.9712C210.325 95.7327 210.452 95.5161 210.63 95.3463C210.808 95.1765 211.031 95.0604 211.272 95.0112C211.858 94.9358 212.453 94.9536 213.034 95.064L219.038 96.36L221.837 97.7424L219.115 100.142L217.603 99.6624C217.147 100.056 215.366 100.262 214.762 100.19C213.989 100.094 212.443 99.5904 211.565 99.7584L210.715 99.8784L211.118 100.214C211.857 100.161 212.596 100.312 213.254 100.651C213.36 100.722 213.44 100.824 213.485 100.943C213.529 101.062 213.535 101.192 213.503 101.314C213.47 101.437 213.4 101.546 213.302 101.627C213.204 101.708 213.083 101.756 212.957 101.765L210.984 101.894C210.45 101.644 209.936 101.352 209.448 101.021C209.295 100.886 209.135 100.759 208.968 100.642Z" fill="#FFBE9D"/>
<path d="M210.72 99.8976C210.623 99.9638 210.514 100.01 210.398 100.032C210.085 100.123 209.752 100.123 209.438 100.032C209.213 99.9581 209.014 99.8195 208.867 99.6336C208.783 99.5208 208.723 99.3916 208.692 99.2544C208.661 99.1172 208.658 98.975 208.685 98.8368C208.721 98.6784 208.809 98.5365 208.934 98.4336C209.06 98.3422 209.199 98.2725 209.347 98.2272C209.634 98.1318 209.928 98.0564 210.226 98.0016C210.792 97.8925 211.364 97.8187 211.939 97.7808C212.203 97.7808 212.453 97.752 212.693 97.752H212.875H213.019C213.119 97.7379 213.219 97.7187 213.317 97.6944C213.725 97.563 214.14 97.4525 214.56 97.3632C214.187 97.5839 213.782 97.7458 213.36 97.8432C213.258 97.8772 213.154 97.9029 213.048 97.92C212.984 97.9277 212.92 97.9277 212.856 97.92H212.693C212.467 97.92 212.213 97.9488 211.958 97.9728C211.393 98.0228 210.831 98.1013 210.274 98.208C209.988 98.2608 209.706 98.3314 209.429 98.4192C209.15 98.5008 208.949 98.6256 208.91 98.8512C208.889 98.9583 208.889 99.0686 208.911 99.1756C208.932 99.2827 208.974 99.3845 209.035 99.4752C209.16 99.6355 209.326 99.7583 209.515 99.8304C209.802 99.9307 210.108 99.9587 210.408 99.912C210.59 99.9072 210.72 99.8736 210.72 99.8976Z" fill="#6291A9"/>
<path d="M211.464 96.768C211.531 96.768 211.646 97.0656 211.526 97.4448C211.406 97.824 211.138 98.0256 211.094 97.9728C211.051 97.92 211.195 97.6896 211.291 97.3728C211.387 97.056 211.392 96.7776 211.464 96.768Z" fill="#6291A9"/>
<path d="M212.405 97.1472C212.472 97.1472 212.491 97.3872 212.323 97.6272C212.155 97.8672 211.93 97.8864 211.906 97.8192C211.882 97.752 212.006 97.6368 212.126 97.4736C212.246 97.3104 212.333 97.1376 212.405 97.1472Z" fill="#6291A9"/>
<path d="M236.045 95.808C236.87 95.4624 231.302 101.189 231.302 101.189L221.011 97.3488L217.377 99.5808L228.441 107.371C229.578 108.173 230.965 108.541 232.35 108.409C233.735 108.277 235.027 107.654 235.992 106.651L242.525 99.1008L236.045 95.808Z" fill="#FFBE9D"/>
<path d="M242.078 72.864C240.638 72.5856 239.746 72.144 239.707 71.592C239.63 70.4496 243.254 69.2784 247.805 68.9664C252.355 68.6544 256.099 69.336 256.181 70.4736C256.214 71.0256 255.394 71.5824 254.021 72.048" fill="#F5951D"/>
<g opacity="0.4">
<path opacity="0.4" d="M242.88 72.768C241.608 72.528 240.778 72.1344 240.778 71.6448C240.778 70.2768 243.922 69.5904 247.954 69.3168C251.986 69.0432 255.312 69.6432 255.379 70.656C255.413 71.136 254.683 71.616 253.459 72.048" fill="black"/>
</g>
<path d="M240.802 70.9776C240.802 70.9776 241.651 66.0576 241.738 65.8128C241.824 65.568 243.058 63.36 246.317 62.5296L249.043 62.3424C249.043 62.3424 252.998 63.3264 253.766 64.224C254.534 65.1216 255.149 69.672 255.149 69.672L247.392 68.5296L242.28 70.1472L240.802 70.9776Z" fill="#F5951D"/>
<path d="M247.171 61.92L246 61.9968C245.727 62.359 245.591 62.8062 245.616 63.2592C245.616 64.1088 245.822 69.936 245.822 69.936L249.23 69.552L248.64 62.3712L249.816 62.5536L249.754 62.1456L249.422 61.8048L247.171 61.92Z" fill="#F5951D"/>
<path d="M254.295 88.7376L245.942 88.92C245.837 88.0416 245.914 82.5456 245.914 82.5456C245.914 82.5456 242.736 82.2672 242.482 79.1232C242.227 75.9792 242.285 69.6624 242.285 69.6624L242.318 69.384C245.856 67.5744 250.066 67.1472 253.359 69.3552L253.839 69.6816L254.295 88.7376Z" fill="#FFBE9D"/>
<path d="M245.914 82.56C247.368 82.4566 248.762 81.9386 249.931 81.0672C249.931 81.0672 249.062 83.4672 245.904 83.376L245.914 82.56Z" fill="#6291A9"/>
<path d="M253.694 72.96C253.747 72.96 255.811 72.1776 255.888 74.3328C255.965 76.488 253.786 76.1184 253.781 76.0608C253.776 76.0032 253.694 72.96 253.694 72.96Z" fill="#FFBE9D"/>
<path d="M254.4 75.2208C254.4 75.2208 254.438 75.2496 254.501 75.2736C254.545 75.2927 254.594 75.3026 254.642 75.3026C254.691 75.3026 254.739 75.2927 254.784 75.2736C254.92 75.1803 255.029 75.0523 255.099 74.903C255.169 74.7536 255.198 74.5883 255.182 74.424C255.182 74.2392 255.139 74.0569 255.058 73.8912C255.035 73.8246 254.996 73.7646 254.945 73.7161C254.894 73.6676 254.832 73.6322 254.765 73.6128C254.721 73.6035 254.676 73.6094 254.637 73.6296C254.598 73.6497 254.567 73.6827 254.549 73.7232C254.52 73.7856 254.549 73.8288 254.525 73.8336C254.501 73.8384 254.477 73.8 254.491 73.7088C254.503 73.655 254.532 73.6063 254.573 73.5696C254.631 73.5229 254.705 73.5005 254.779 73.5072C254.868 73.5214 254.952 73.5585 255.023 73.6149C255.094 73.6712 255.149 73.7449 255.182 73.8288C255.285 74.003 255.345 74.1985 255.36 74.4C255.381 74.5937 255.343 74.7893 255.25 74.9608C255.158 75.1323 255.015 75.2715 254.841 75.36C254.784 75.3798 254.724 75.3862 254.664 75.3787C254.604 75.3712 254.546 75.35 254.496 75.3168C254.4 75.2736 254.4 75.2256 254.4 75.2208Z" fill="#6291A9"/>
<path d="M243.326 73.5456C243.339 73.6635 243.396 73.7725 243.484 73.8514C243.573 73.9303 243.688 73.9735 243.806 73.9728C243.922 73.9728 244.033 73.9268 244.115 73.8449C244.197 73.7629 244.243 73.6518 244.243 73.536C244.23 73.4181 244.174 73.3091 244.085 73.2302C243.997 73.1513 243.882 73.1081 243.763 73.1088C243.647 73.1088 243.536 73.1548 243.454 73.2367C243.372 73.3187 243.326 73.4298 243.326 73.5456Z" fill="#263238"/>
<path d="M243.183 73.104C243.24 73.1568 243.567 72.8832 244.051 72.8496C244.536 72.816 244.906 73.0368 244.954 72.9744C245.002 72.912 244.911 72.8448 244.752 72.744C244.532 72.6144 244.278 72.5542 244.023 72.5712C243.771 72.5876 243.53 72.6834 243.336 72.8448C243.197 72.96 243.154 73.08 243.183 73.104Z" fill="#263238"/>
<path d="M248.093 73.368C248.096 73.4277 248.111 73.4862 248.137 73.5401C248.162 73.594 248.199 73.6423 248.243 73.682C248.288 73.7217 248.34 73.7522 248.397 73.7717C248.453 73.7911 248.513 73.7991 248.573 73.7952C248.63 73.7952 248.686 73.7839 248.739 73.7619C248.792 73.7398 248.84 73.7076 248.88 73.667C248.92 73.6263 248.952 73.5782 248.973 73.5252C248.995 73.4722 249.005 73.4155 249.005 73.3584C249.002 73.2987 248.987 73.2402 248.961 73.1863C248.935 73.1324 248.899 73.0841 248.854 73.0444C248.809 73.0046 248.757 72.9742 248.701 72.9547C248.644 72.9353 248.584 72.9273 248.525 72.9312C248.468 72.9312 248.411 72.9425 248.358 72.9645C248.306 72.9865 248.258 73.0188 248.218 73.0594C248.177 73.1 248.146 73.1482 248.124 73.2012C248.103 73.2542 248.092 73.3109 248.093 73.368Z" fill="#263238"/>
<path d="M247.944 72.8688C248.002 72.9264 248.323 72.6528 248.808 72.6192C249.293 72.5856 249.662 72.8064 249.71 72.744C249.758 72.6816 249.672 72.6144 249.509 72.5088C249.291 72.3786 249.037 72.3199 248.784 72.3408C248.532 72.3549 248.291 72.4509 248.098 72.6144C247.958 72.7392 247.915 72.8448 247.944 72.8688Z" fill="#263238"/>
<path d="M246.432 76.5744C246.171 76.5156 245.903 76.4866 245.635 76.488C245.51 76.488 245.39 76.488 245.366 76.3824C245.347 76.2562 245.367 76.127 245.424 76.0128L245.726 75.0528C246.008 74.2322 246.226 73.3914 246.379 72.5376C246.028 73.3323 245.742 74.1542 245.525 74.9952C245.424 75.3312 245.328 75.6528 245.237 75.9552C245.174 76.1074 245.163 76.2765 245.208 76.4352C245.229 76.4771 245.26 76.5136 245.297 76.5419C245.334 76.5702 245.378 76.5895 245.424 76.5984C245.494 76.6075 245.565 76.6075 245.635 76.5984C245.901 76.6259 246.169 76.6178 246.432 76.5744Z" fill="#263238"/>
<path d="M247.877 76.8C247.795 76.8 247.834 77.3232 247.397 77.7264C246.96 78.1296 246.437 78.1104 246.437 78.2064C246.437 78.3024 246.566 78.2976 246.806 78.288C247.112 78.27 247.403 78.1462 247.627 77.9376C247.842 77.734 247.971 77.4557 247.987 77.16C247.978 76.9344 247.91 76.8 247.877 76.8Z" fill="#263238"/>
<path d="M247.68 70.9824C247.738 71.112 248.213 71.016 248.784 71.0496C249.355 71.0832 249.825 71.2032 249.893 71.0784C249.96 70.9536 249.835 70.9008 249.643 70.7856C249.387 70.6434 249.101 70.5644 248.808 70.5552C248.515 70.5403 248.222 70.5945 247.954 70.7136C247.762 70.8144 247.68 70.9248 247.68 70.9824Z" fill="#263238"/>
<path d="M243.264 71.6928C243.36 71.7936 243.682 71.6592 244.085 71.6256C244.488 71.592 244.829 71.6496 244.901 71.5296C244.973 71.4096 244.867 71.3664 244.714 71.2704C244.506 71.1596 244.271 71.1129 244.036 71.1359C243.802 71.159 243.58 71.2509 243.399 71.4C243.264 71.52 243.226 71.64 243.264 71.6928Z" fill="#263238"/>
<path d="M253.92 70.92C253.896 71.7984 253.982 72.6768 253.958 73.5552C253.93 73.887 253.846 74.2116 253.709 74.5152C253.663 74.6911 253.564 74.8483 253.424 74.9647C253.285 75.0811 253.112 75.1508 252.931 75.164C252.75 75.1773 252.569 75.1334 252.414 75.0385C252.259 74.9437 252.138 74.8026 252.067 74.6352C251.896 74.2885 251.804 73.9081 251.798 73.5216C251.795 73.1346 251.73 72.7506 251.606 72.384C251.402 72.0039 251.157 71.6467 250.877 71.3184C250.739 71.1516 250.642 70.9551 250.593 70.7444C250.544 70.5337 250.544 70.3145 250.594 70.104C251.755 70.0684 252.905 70.3488 253.92 70.9152" fill="#263238"/>
<path d="M242.285 71.3088L242.232 69.5472L247.272 67.6656L253.824 69.1056L253.949 70.9968C250.163 69.6128 245.991 69.7244 242.285 71.3088Z" fill="#455A64"/>
<path d="M242.53 69.1536L242.318 69.384L240.547 70.6752C242.866 69.898 245.274 69.4143 247.714 69.2352C250.393 69.1741 253.07 69.4254 255.691 69.984L253.157 68.6832C252.745 68.299 252.261 68.0013 251.733 67.8075C251.204 67.6138 250.642 67.528 250.08 67.5552L245.453 67.776C244.899 67.8023 244.356 67.9375 243.854 68.1738C243.352 68.4102 242.902 68.7432 242.53 69.1536Z" fill="#F5951D"/>
<path d="M245.76 67.6176C245.845 66.7997 245.868 65.9765 245.827 65.1552C245.847 64.3324 245.806 63.5093 245.702 62.6928C245.611 63.5103 245.589 64.334 245.635 65.1552C245.612 65.978 245.654 66.8013 245.76 67.6176Z" fill="#263238"/>
<path d="M249.811 62.5536C249.527 62.449 249.23 62.3844 248.928 62.3616C248.835 62.3688 248.747 62.4108 248.683 62.4792C248.619 62.5476 248.583 62.6375 248.583 62.7312L248.611 63.2496C248.645 63.6192 248.674 64.0128 248.707 64.4208C248.775 65.256 248.851 66.0096 248.914 66.552C248.928 66.8494 248.976 67.1442 249.058 67.4304C249.092 67.1354 249.092 66.8374 249.058 66.5424C249.029 65.9952 248.976 65.2416 248.904 64.4112C248.866 63.9984 248.832 63.6048 248.799 63.2352C248.799 63.0624 248.76 62.8944 248.746 62.7312C248.745 62.6742 248.765 62.619 248.802 62.5757C248.839 62.5325 248.891 62.5041 248.947 62.496C249.233 62.5385 249.522 62.5577 249.811 62.5536Z" fill="#263238"/>
<path d="M240.427 70.6608C240.427 70.6608 240.638 70.5552 241.027 70.3872C241.219 70.3008 241.454 70.2048 241.723 70.056C242.035 69.8947 242.301 69.6569 242.496 69.3648C242.722 69.0288 242.736 68.5824 242.976 68.2464C243.216 67.9104 243.715 67.8576 244.205 67.8096C245.194 67.6992 246.283 67.6176 247.43 67.5696C248.578 67.5216 249.677 67.512 250.67 67.5216C251.127 67.4834 251.582 67.6019 251.962 67.8576C252.115 68.0045 252.255 68.1652 252.379 68.3376L252.576 68.5728L252.677 68.6832C252.718 68.7208 252.765 68.7515 252.816 68.7744C253.526 69.0576 254.107 69.2544 254.506 69.384C254.707 69.4674 254.914 69.5379 255.125 69.5952C255.078 69.5613 255.029 69.5324 254.976 69.5088C254.875 69.4608 254.726 69.3936 254.53 69.312C254.146 69.144 253.57 68.9424 252.878 68.6496C252.842 68.633 252.809 68.6121 252.778 68.5872L252.686 68.4768L252.499 68.2416C252.368 68.0702 252.224 67.9097 252.067 67.7616C251.664 67.4714 251.171 67.3321 250.675 67.368C249.677 67.368 248.578 67.368 247.426 67.4016C246.274 67.4352 245.174 67.536 244.181 67.656C243.935 67.6752 243.691 67.7138 243.451 67.7712C243.221 67.8298 243.019 67.9674 242.88 68.16C242.602 68.5536 242.602 69 242.4 69.2976C242.224 69.5767 241.979 69.8063 241.69 69.9648C241.435 70.1184 241.21 70.2288 241.013 70.3248C240.816 70.4208 240.682 70.5024 240.586 70.56C240.528 70.5858 240.475 70.6197 240.427 70.6608Z" fill="#263238"/>
<path d="M241.138 70.8864C241.184 70.8667 241.228 70.8409 241.267 70.8096C241.349 70.752 241.474 70.6752 241.637 70.584C242.111 70.348 242.608 70.1599 243.12 70.0224C244.817 69.5766 246.569 69.373 248.323 69.4176C249.355 69.4176 250.334 69.4176 251.203 69.456C252.072 69.4944 252.888 69.6336 253.55 69.744C253.848 69.7945 254.143 69.8602 254.434 69.9408C254.654 69.9808 254.862 70.0693 255.043 70.2C255.115 70.2574 255.173 70.3305 255.212 70.4137C255.251 70.4969 255.271 70.5881 255.269 70.68C255.296 70.6336 255.306 70.5794 255.298 70.5264C255.281 70.3737 255.209 70.2322 255.096 70.128C254.914 69.9763 254.698 69.8694 254.467 69.816C254.174 69.7249 253.876 69.6496 253.574 69.5904C252.795 69.4381 252.009 69.3275 251.218 69.2592C250.32 69.192 249.331 69.2112 248.304 69.2064C246.533 69.1588 244.765 69.3838 243.062 69.8736C242.544 70.0205 242.045 70.2317 241.579 70.5024C241.453 70.5762 241.334 70.6614 241.224 70.7568C241.166 70.8432 241.133 70.8816 241.138 70.8864Z" fill="#263238"/>
<path d="M246.504 62.112C246.664 62.1242 246.824 62.1242 246.984 62.112L248.146 62.0688C248.597 62.0688 249.014 61.9968 249.302 62.0256C249.38 62.0286 249.457 62.0486 249.527 62.0843C249.596 62.1199 249.657 62.1703 249.706 62.232C249.706 62.232 249.706 62.184 249.638 62.1216C249.547 62.0376 249.431 61.9854 249.307 61.9728C248.919 61.9426 248.529 61.9426 248.141 61.9728L246.979 62.04C246.818 62.046 246.659 62.0702 246.504 62.112Z" fill="#FAFAFA"/>
<path d="M246.302 67.8096C246.384 67.8179 246.466 67.8179 246.547 67.8096H247.21C247.771 67.8096 248.544 67.8096 249.398 67.8096L250.603 67.8384C250.925 67.8366 251.246 67.8623 251.563 67.9152C251.778 67.9598 251.971 68.0767 252.11 68.2464C252.157 68.3103 252.196 68.3796 252.226 68.4528C252.217 68.3707 252.185 68.2926 252.135 68.2272C251.998 68.0431 251.801 67.9137 251.578 67.8624C251.261 67.8012 250.94 67.769 250.618 67.7664C250.248 67.7664 249.84 67.7376 249.413 67.7328C248.554 67.7328 247.781 67.7328 247.219 67.7568L246.557 67.7904C246.472 67.7893 246.387 67.7957 246.302 67.8096Z" fill="#FAFAFA"/>
<path d="M248.832 66.9552C248.838 66.8978 248.838 66.8398 248.832 66.7824C248.832 66.624 248.789 66.4704 248.765 66.3024C248.712 65.904 248.645 65.3424 248.582 64.7424C248.52 64.1424 248.486 63.5808 248.462 63.1824C248.462 63.0192 248.453 62.8592 248.433 62.7024C248.442 62.6451 248.442 62.5869 248.433 62.5296C248.426 62.587 248.426 62.645 248.433 62.7024C248.433 62.8128 248.433 62.976 248.433 63.1824C248.433 63.5856 248.472 64.1424 248.53 64.752C248.587 65.3616 248.669 65.9136 248.736 66.3072C248.77 66.5088 248.803 66.6672 248.827 66.7872C248.821 66.8431 248.822 66.8997 248.832 66.9552Z" fill="#FAFAFA"/>
<path d="M252.826 68.8656C252.874 68.8936 252.926 68.9161 252.979 68.9328L253.402 69.0912L254.803 69.5712C255.062 69.6535 255.315 69.7513 255.562 69.864C255.759 69.9549 255.917 70.1132 256.008 70.3104C256.067 70.4447 256.082 70.5942 256.051 70.7376C256.018 70.8336 255.979 70.8816 255.989 70.8864C256.029 70.8474 256.061 70.7999 256.08 70.7472C256.135 70.6001 256.135 70.4383 256.08 70.2912C255.984 70.0781 255.813 69.9074 255.6 69.8112C255.353 69.6899 255.096 69.5888 254.832 69.5088L253.421 69.0288L252.994 68.8944C252.939 68.878 252.883 68.8683 252.826 68.8656Z" fill="#FAFAFA"/>
<path d="M217.349 154.646L217.786 162.442C217.786 162.442 210.01 165.499 209.952 166.944L225.091 166.646L224.909 154.478L217.349 154.646Z" fill="#FF725E"/>
<g opacity="0.4">
<path opacity="0.4" d="M217.349 154.646L217.786 162.442C217.786 162.442 210.01 165.499 209.952 166.944L225.091 166.646L224.909 154.478L217.349 154.646Z" fill="black"/>
</g>
<path d="M222.451 161.693C222.598 161.733 222.724 161.827 222.806 161.956C222.888 162.084 222.918 162.239 222.893 162.389C222.857 162.537 222.766 162.665 222.638 162.747C222.51 162.83 222.356 162.859 222.206 162.83C222.048 162.79 221.91 162.692 221.821 162.555C221.732 162.418 221.698 162.252 221.726 162.091C221.78 161.941 221.889 161.818 222.031 161.747C222.173 161.675 222.337 161.661 222.49 161.707" fill="#E0E0E0"/>
<path d="M225.091 166.646L225.024 165.422L210.533 166.166C210.533 166.166 209.866 166.474 209.952 166.944L225.091 166.646Z" fill="#E0E0E0"/>
<path d="M217.541 162.37C217.541 162.442 217.91 162.466 218.28 162.696C218.65 162.926 218.851 163.234 218.919 163.205C218.986 163.176 218.866 162.749 218.415 162.48C217.963 162.211 217.522 162.302 217.541 162.37Z" fill="#263238"/>
<path d="M215.962 163.056C215.962 163.128 216.269 163.248 216.528 163.536C216.787 163.824 216.864 164.174 216.936 164.17C217.008 164.165 217.051 163.742 216.725 163.368C216.398 162.994 215.962 162.984 215.962 163.056Z" fill="#263238"/>
<path d="M215.098 164.976C215.165 164.976 215.261 164.616 215.064 164.218C214.867 163.819 214.517 163.661 214.488 163.738C214.459 163.814 214.675 164.011 214.834 164.342C214.992 164.674 215.04 164.966 215.098 164.976Z" fill="#263238"/>
<path d="M217.637 160.579C217.67 160.646 218.006 160.541 218.424 160.579C218.842 160.618 219.173 160.723 219.206 160.661C219.24 160.598 218.928 160.339 218.434 160.32C217.939 160.301 217.598 160.522 217.637 160.579Z" fill="#263238"/>
<g opacity="0.3">
<path opacity="0.3" d="M217.44 156.192L217.512 157.579L224.952 157.363L224.938 156.11L217.44 156.192Z" fill="black"/>
</g>
<path d="M217.579 159.01C217.828 159.075 218.089 159.075 218.337 159.01C218.609 158.953 218.873 158.866 219.125 158.75C219.273 158.679 219.417 158.598 219.557 158.51C219.639 158.459 219.715 158.398 219.782 158.328C219.828 158.274 219.855 158.206 219.859 158.135C219.864 158.064 219.845 157.994 219.806 157.934C219.769 157.883 219.719 157.842 219.663 157.814C219.606 157.785 219.543 157.771 219.48 157.771C219.384 157.769 219.288 157.784 219.197 157.814C219.031 157.855 218.87 157.913 218.717 157.987C218.463 158.11 218.23 158.272 218.025 158.467C217.685 158.798 217.57 159.077 217.594 159.091C217.618 159.106 217.795 158.88 218.145 158.611C218.352 158.452 218.577 158.319 218.817 158.218C218.957 158.158 219.102 158.11 219.249 158.074C219.408 158.026 219.542 158.026 219.585 158.074C219.629 158.122 219.585 158.112 219.585 158.16C219.537 158.211 219.482 158.257 219.422 158.294C219.294 158.381 219.161 158.459 219.024 158.53C218.792 158.651 218.549 158.751 218.299 158.827C218.054 158.868 217.814 158.929 217.579 159.01Z" fill="#263238"/>
<path d="M217.675 159.11C217.704 159.11 217.843 158.856 217.862 158.376C217.868 158.095 217.827 157.814 217.742 157.546C217.692 157.379 217.624 157.218 217.541 157.066C217.499 156.968 217.433 156.883 217.349 156.818C217.265 156.753 217.166 156.711 217.061 156.696C216.994 156.699 216.929 156.721 216.874 156.759C216.818 156.797 216.775 156.85 216.749 156.912C216.713 157.001 216.689 157.095 216.677 157.19C216.653 157.359 216.653 157.53 216.677 157.699C216.725 157.982 216.842 158.249 217.018 158.477C217.32 158.866 217.632 158.957 217.637 158.923C217.642 158.89 217.402 158.746 217.157 158.376C217.021 158.16 216.935 157.918 216.902 157.666C216.881 157.521 216.881 157.374 216.902 157.229C216.902 157.066 216.979 156.936 217.042 156.95C217.104 156.965 217.248 157.066 217.31 157.195C217.39 157.324 217.456 157.461 217.507 157.603C217.598 157.845 217.653 158.099 217.67 158.357C217.709 158.822 217.637 159.101 217.675 159.11Z" fill="#263238"/>
<path d="M258.24 121.541C258.24 121.541 256.584 130.027 253.838 130.147C250.478 130.291 226.07 130.627 226.07 130.627L227.52 157.8L216.874 157.546L212.64 130.766C212.167 128.364 212.569 125.871 213.773 123.739L213.859 123.59C214.769 122.094 216.048 120.857 217.573 119.997C219.099 119.137 220.82 118.683 222.571 118.68L242.842 118.373L258.24 121.541Z" fill="#263238"/>
<path d="M221.491 154.646L221.923 162.442C221.923 162.442 214.147 165.499 214.09 166.944L229.229 166.646L229.046 154.478L221.491 154.646Z" fill="#FF725E"/>
<path d="M226.589 161.693C226.736 161.733 226.862 161.827 226.944 161.956C227.025 162.084 227.056 162.239 227.03 162.389C226.996 162.537 226.905 162.666 226.777 162.749C226.649 162.831 226.493 162.861 226.344 162.83C226.186 162.79 226.048 162.692 225.959 162.555C225.87 162.418 225.836 162.252 225.864 162.091C225.918 161.941 226.027 161.818 226.169 161.747C226.311 161.675 226.475 161.661 226.627 161.707" fill="#E0E0E0"/>
<path d="M229.229 166.646L229.162 165.422L214.67 166.166C214.67 166.166 214.003 166.474 214.09 166.944L229.229 166.646Z" fill="#E0E0E0"/>
<path d="M221.678 162.37C221.678 162.442 222.053 162.466 222.418 162.696C222.782 162.926 222.989 163.234 223.056 163.205C223.123 163.176 223.003 162.749 222.552 162.48C222.101 162.211 221.659 162.302 221.678 162.37Z" fill="#263238"/>
<path d="M220.104 163.056C220.104 163.128 220.411 163.248 220.666 163.536C220.92 163.824 221.002 164.174 221.074 164.17C221.146 164.165 221.189 163.742 220.862 163.368C220.536 162.994 220.104 162.984 220.104 163.056Z" fill="#263238"/>
<path d="M219.235 164.976C219.307 164.976 219.398 164.616 219.202 164.218C219.005 163.819 218.654 163.661 218.626 163.738C218.597 163.814 218.813 164.011 218.971 164.342C219.13 164.674 219.163 164.966 219.235 164.976Z" fill="#263238"/>
<path d="M221.76 160.579C221.794 160.646 222.13 160.541 222.547 160.579C222.965 160.618 223.296 160.723 223.33 160.661C223.363 160.598 223.051 160.339 222.557 160.32C222.062 160.301 221.76 160.522 221.76 160.579Z" fill="#263238"/>
<g opacity="0.3">
<path opacity="0.3" d="M221.578 156.192L221.654 157.579L229.09 157.363L229.075 156.11L221.578 156.192Z" fill="black"/>
</g>
<path d="M221.717 159.01C221.965 159.075 222.227 159.075 222.475 159.01C222.746 158.953 223.01 158.866 223.262 158.75C223.411 158.68 223.556 158.6 223.694 158.51C223.777 158.459 223.853 158.398 223.92 158.328C223.966 158.274 223.993 158.206 223.997 158.135C224.001 158.064 223.983 157.994 223.944 157.934C223.906 157.883 223.857 157.842 223.8 157.814C223.744 157.785 223.681 157.771 223.618 157.771C223.521 157.769 223.426 157.784 223.334 157.814C223.169 157.855 223.008 157.913 222.854 157.987C222.601 158.109 222.369 158.271 222.168 158.467C221.822 158.798 221.688 159.077 221.731 159.091C221.774 159.106 221.933 158.88 222.283 158.611C222.489 158.452 222.715 158.319 222.955 158.218C223.095 158.158 223.24 158.11 223.387 158.074C223.546 158.026 223.68 158.026 223.723 158.074C223.766 158.122 223.723 158.112 223.723 158.16C223.675 158.211 223.62 158.257 223.56 158.294C223.432 158.381 223.299 158.459 223.162 158.53C222.93 158.651 222.687 158.751 222.437 158.827C222.192 158.868 221.951 158.929 221.717 159.01Z" fill="#263238"/>
<path d="M221.813 159.11C221.842 159.11 221.981 158.856 222 158.376C222.008 158.094 221.967 157.814 221.88 157.546C221.83 157.379 221.762 157.218 221.678 157.066C221.637 156.968 221.571 156.883 221.487 156.818C221.403 156.753 221.303 156.711 221.198 156.696C221.131 156.699 221.066 156.721 221.011 156.759C220.956 156.797 220.913 156.85 220.886 156.912C220.851 157.001 220.827 157.095 220.815 157.19C220.79 157.359 220.79 157.53 220.815 157.699C220.863 157.982 220.98 158.249 221.155 158.477C221.458 158.866 221.77 158.957 221.774 158.923C221.779 158.89 221.539 158.746 221.294 158.376C221.159 158.16 221.072 157.918 221.04 157.666C221.019 157.521 221.019 157.374 221.04 157.229C221.064 157.066 221.122 156.936 221.179 156.95C221.237 156.965 221.386 157.066 221.448 157.195C221.528 157.324 221.594 157.461 221.645 157.603C221.735 157.845 221.79 158.099 221.808 158.357C221.846 158.822 221.76 159.101 221.813 159.11Z" fill="#263238"/>
<path d="M260.909 121.541C260.909 121.541 259.258 130.027 256.507 130.147C253.147 130.291 228.739 130.627 228.739 130.627L230.222 157.8L219.576 157.546L215.318 130.766C214.846 128.364 215.247 125.871 216.451 123.739L216.538 123.59C217.448 122.093 218.728 120.855 220.254 119.996C221.78 119.136 223.502 118.683 225.254 118.68L245.52 118.373L260.909 121.541Z" fill="#263238"/>
<path d="M240.144 87.4704L243.36 108.821L241.186 118.421L260.933 124.234C262.718 121.68 262.786 113.573 262.723 107.837C262.613 97.728 263.059 97.2384 262.622 93.6912C262.186 90.144 261.442 87.8688 259.57 86.7504L254.184 84C254.184 84 251.15 85.92 249.302 85.8288C249.302 85.8288 247.109 85.92 245.894 84.7536C245.894 84.7392 241.44 86.0832 240.144 87.4704Z" fill="#F5951D"/>
<path d="M240.144 87.4704L233.563 96.5424L242.525 101.803L241.838 98.5056L240.144 87.4704Z" fill="#F5951D"/>
<path d="M224.463 118.81C224.425 118.818 224.385 118.818 224.347 118.81L224.016 118.834C223.834 118.846 223.653 118.868 223.474 118.901C223.23 118.93 222.987 118.975 222.749 119.035C221.22 119.411 219.808 120.159 218.64 121.214C217.837 121.938 217.146 122.778 216.591 123.706C215.955 124.769 215.56 125.958 215.434 127.19C215.319 128.56 215.371 129.938 215.587 131.294C215.784 132.734 216.067 134.174 216.216 135.706C216.557 138.73 217.013 141.6 217.44 144.206C217.867 146.813 218.28 149.15 218.611 151.128C218.943 153.106 219.202 154.694 219.36 155.803C219.432 156.341 219.49 156.763 219.533 157.08C219.533 157.214 219.562 157.32 219.571 157.411C219.576 157.449 219.576 157.488 219.571 157.526C219.556 157.491 219.546 157.454 219.543 157.416C219.543 157.325 219.504 157.219 219.475 157.085L219.259 155.818C219.058 154.694 218.779 153.11 218.434 151.157C218.088 149.203 217.671 146.837 217.21 144.245C216.749 141.653 216.303 138.768 215.962 135.73C215.808 134.218 215.535 132.758 215.343 131.328C215.123 129.952 215.076 128.554 215.203 127.166C215.336 125.903 215.747 124.685 216.408 123.6C216.979 122.657 217.692 121.807 218.52 121.08C219.717 120.021 221.164 119.284 222.725 118.939C223.296 118.818 223.88 118.774 224.463 118.81Z" fill="#455A64"/>
<path d="M232.027 112.219C232.027 112.219 239.645 114.677 245.568 116.822C246.574 117.187 247.654 117.298 248.713 117.144C249.771 116.99 250.775 116.576 251.635 115.939C252.736 115.128 253.551 113.988 253.963 112.685L258.019 99.9072L251.246 97.536L246.72 109.022L229.872 106.81" fill="#FFBE9D"/>
<path d="M221.952 109.584L221.89 108.979C221.931 108.533 222.117 108.112 222.418 107.779C222.581 107.598 222.776 107.448 222.994 107.338L224.986 106.296C225.282 106.145 225.617 106.092 225.946 106.142L230.03 106.838L234.72 107.453L233.76 112.8L231.59 112.08C231.59 112.08 230.021 112.949 229.051 112.742C229.051 112.742 228.154 113.342 227.784 112.901C227.784 112.901 226.982 113.592 226.68 113.549C226.378 113.506 225.782 113.155 225.806 112.949L225.83 112.67C225.677 112.755 225.503 112.795 225.328 112.787C225.152 112.78 224.983 112.724 224.837 112.627C224.629 112.466 224.471 112.25 224.381 112.003C224.007 111.964 223.653 111.812 223.368 111.566C223.179 111.29 223.053 110.975 222.998 110.645C222.998 110.645 222.101 110.208 221.952 109.584Z" fill="#FFBE9D"/>
<path d="M224.967 107.65C224.995 107.65 225.043 107.87 224.943 108.206C224.794 108.632 224.547 109.017 224.223 109.33C223.863 109.699 223.527 110.002 223.32 110.251C223.114 110.501 223.003 110.674 222.97 110.659C222.936 110.645 222.97 110.434 223.181 110.146C223.435 109.789 223.723 109.458 224.04 109.157C224.34 108.862 224.59 108.52 224.779 108.144C224.909 107.856 224.923 107.65 224.967 107.65Z" fill="#6291A9"/>
<path d="M225.744 109.786C225.516 110.644 225.02 111.407 224.328 111.965C224.505 111.567 224.731 111.193 225 110.851C225.389 110.256 225.677 109.752 225.744 109.786Z" fill="#6291A9"/>
<path d="M226.786 111.197C226.843 111.235 226.675 111.581 226.407 111.974C226.138 112.368 225.879 112.656 225.821 112.613C225.763 112.57 225.936 112.224 226.2 111.835C226.464 111.446 226.728 111.158 226.786 111.197Z" fill="#6291A9"/>
<path d="M226.594 110.635C226.594 110.664 226.488 110.669 226.363 110.592C226.282 110.538 226.213 110.467 226.161 110.384C226.109 110.302 226.075 110.209 226.061 110.112C226.044 110.017 226.048 109.92 226.073 109.827C226.098 109.734 226.143 109.648 226.205 109.574C226.296 109.464 226.387 109.435 226.411 109.459C226.435 109.483 226.253 109.752 226.306 110.074C226.358 110.395 226.622 110.573 226.594 110.635Z" fill="#6291A9"/>
<path d="M227.731 112.07C227.731 112.099 227.645 112.104 227.539 112.07C227.472 112.03 227.413 111.977 227.367 111.913C227.321 111.85 227.288 111.777 227.27 111.701C227.241 111.617 227.237 111.526 227.26 111.441C227.283 111.355 227.332 111.278 227.4 111.221C227.525 111.134 227.621 111.192 227.611 111.221C227.558 111.271 227.521 111.335 227.504 111.406C227.487 111.476 227.491 111.551 227.515 111.619C227.568 111.864 227.76 112.008 227.731 112.07Z" fill="#6291A9"/>
<path d="M225.931 109.109C225.931 109.138 225.826 109.162 225.682 109.109C225.586 109.062 225.503 108.992 225.443 108.904C225.382 108.816 225.345 108.714 225.336 108.608C225.326 108.502 225.344 108.395 225.388 108.297C225.431 108.2 225.5 108.116 225.586 108.053C225.715 107.962 225.821 107.971 225.826 108C225.83 108.029 225.557 108.245 225.586 108.586C225.614 108.926 225.95 109.051 225.931 109.109Z" fill="#6291A9"/>
<path d="M258.053 88.4832C256.507 87.8112 254.602 88.4832 253.483 89.6544C252.365 90.8256 251.851 92.3568 251.371 93.8448C250.891 95.3328 249.749 98.1984 249.283 99.6336L258.062 103.392C258.811 101.366 259.509 99.3232 260.155 97.2624C260.702 95.5344 261.211 93.672 260.578 91.9536" fill="#F5951D"/>
<path d="M260.578 91.9536C260.617 92.0197 260.648 92.0907 260.669 92.1648C260.745 92.3717 260.801 92.5855 260.837 92.8032C260.974 93.6188 260.953 94.4532 260.774 95.2608C260.506 96.4905 260.151 97.6999 259.714 98.88C259.234 100.253 258.754 101.784 258.182 103.43L258.139 103.55L258.014 103.498L251.832 100.858L249.23 99.744L249.125 99.696L249.158 99.6C249.869 97.5072 250.661 95.592 251.256 93.84C251.517 92.991 251.837 92.1617 252.216 91.3584C252.555 90.6414 253.02 89.9911 253.589 89.4384C254.458 88.6186 255.61 88.1648 256.805 88.1712C257.132 88.1814 257.455 88.2396 257.765 88.344C257.869 88.3804 257.97 88.4254 258.067 88.4784C257.663 88.3443 257.24 88.2699 256.814 88.2576C255.657 88.2828 254.551 88.7439 253.718 89.5488C253.176 90.0891 252.734 90.7213 252.413 91.416C252.049 92.216 251.741 93.0404 251.491 93.8832C250.91 95.664 250.118 97.5888 249.422 99.6672L249.35 99.5232L251.957 100.637L258.13 103.286L257.962 103.354C258.528 101.707 259.056 100.186 259.531 98.8176C259.978 97.6477 260.349 96.45 260.64 95.232C260.826 94.4461 260.871 93.6337 260.774 92.832C260.674 92.2512 260.558 91.9584 260.578 91.9536Z" fill="#263238"/>
<path d="M249.326 113.405C249.298 113.405 249.23 112.925 248.933 112.046C248.75 111.528 248.507 111.034 248.208 110.573C247.827 109.967 247.303 109.464 246.682 109.109H246.706L237.197 107.87L231.437 107.098L228.936 106.752L226.762 106.402L225.802 106.253C225.533 106.205 225.255 106.254 225.019 106.392L223.786 106.987L223.003 107.357C222.914 107.406 222.819 107.443 222.72 107.467C222.802 107.408 222.889 107.355 222.979 107.309L223.742 106.901L224.957 106.267C225.218 106.111 225.525 106.05 225.826 106.094L226.786 106.229L228.96 106.546L231.466 106.872L237.226 107.626L246.72 108.926H246.749C247.399 109.302 247.942 109.837 248.328 110.482C248.623 110.957 248.857 111.469 249.024 112.003C249.13 112.338 249.213 112.68 249.274 113.026C249.305 113.15 249.323 113.277 249.326 113.405Z" fill="#6291A9"/>
<path d="M243.36 108.48C243.294 108.254 243.25 108.023 243.23 107.789C243.149 107.309 243.048 106.666 242.928 105.902C242.654 104.266 242.294 102.086 241.896 99.6624C241.498 97.2384 241.133 95.0736 240.864 93.4224C240.744 92.6592 240.648 92.0208 240.571 91.5312C240.521 91.3009 240.496 91.066 240.494 90.8304C240.573 91.0517 240.631 91.2799 240.667 91.512L241.037 93.3936C241.339 94.9824 241.738 97.176 242.146 99.6336C242.554 102.091 242.89 104.275 243.106 105.874C243.216 106.675 243.288 107.314 243.331 107.794C243.363 108.021 243.373 108.251 243.36 108.48Z" fill="#263238"/>
<path d="M334.32 213.552C334.32 213.624 264.845 213.677 179.165 213.677C93.4848 213.677 24 213.624 24 213.552C24 213.48 93.4608 213.427 179.174 213.427C264.888 213.427 334.32 213.485 334.32 213.552Z" fill="#263238"/>
<path d="M33.3024 197.549C32.5296 198.59 31.0944 198.197 30.4464 197.549C29.7984 196.901 29.5344 195.936 29.2992 195.034C28.7664 192.974 28.2336 190.814 28.728 188.746C28.8478 188.116 29.1403 187.533 29.5728 187.061C29.7908 186.828 30.066 186.657 30.371 186.564C30.6759 186.472 30.9999 186.461 31.3104 186.533C32.0352 186.744 32.4672 187.469 32.7792 188.155C33.6828 190.18 34.1271 192.38 34.08 194.597C34.118 195.637 33.8456 196.664 33.2976 197.549" fill="#F5951D"/>
<g opacity="0.2">
<path opacity="0.2" d="M33.3024 197.549C32.5296 198.59 31.0944 198.197 30.4464 197.549C29.7984 196.901 29.5344 195.936 29.2992 195.034C28.7664 192.974 28.2336 190.814 28.728 188.746C28.8478 188.116 29.1403 187.533 29.5728 187.061C29.7908 186.828 30.066 186.657 30.371 186.564C30.6759 186.472 30.9999 186.461 31.3104 186.533C32.0352 186.744 32.4672 187.469 32.7792 188.155C33.6828 190.18 34.1271 192.38 34.08 194.597C34.118 195.637 33.8456 196.664 33.2976 197.549" fill="black"/>
</g>
<path d="M30.3744 202.843C29.1464 202.228 27.7538 202.021 26.4 202.253C25.6616 202.301 24.9597 202.591 24.4032 203.078C23.8944 203.611 23.7792 204.566 24.3312 205.051C24.6907 205.304 25.1261 205.426 25.5648 205.397C26.6208 205.397 27.7968 205.258 28.6224 205.915C29.1024 206.294 29.4 206.904 29.9712 207.096C30.2568 207.171 30.5591 207.151 30.8321 207.038C31.1051 206.926 31.3337 206.727 31.4832 206.472C31.7722 205.95 31.8496 205.336 31.6992 204.758C31.6402 204.359 31.49 203.978 31.2603 203.646C31.0305 203.314 30.7274 203.039 30.3744 202.843Z" fill="#F5951D"/>
<path d="M35.2993 199.123C34.9301 198.615 34.6911 198.025 34.6032 197.403C34.5153 196.781 34.5813 196.147 34.7953 195.557C35.2277 194.378 35.9768 193.342 36.9601 192.562C38.0906 191.612 39.3948 190.892 40.8001 190.44C41.3439 190.237 41.9254 190.155 42.5041 190.2C42.7925 190.224 43.0707 190.319 43.3142 190.475C43.5577 190.631 43.7591 190.845 43.9009 191.098C44.2801 191.861 43.8721 192.768 43.4209 193.498C42.6603 194.797 41.7984 196.034 40.8433 197.198C40.0753 198.134 39.2017 199.056 38.0593 199.459C36.9169 199.862 35.7457 199.776 35.1793 198.979" fill="#F5951D"/>
<path d="M32.9231 213.552C32.8873 213.395 32.8696 213.233 32.8703 213.072C32.8415 212.717 32.8127 212.275 32.7743 211.752C32.7267 211.108 32.645 210.467 32.5295 209.832C32.3785 209.051 32.165 208.284 31.8911 207.538C31.6239 206.789 31.2505 206.082 30.7823 205.44C30.4015 204.919 29.9096 204.49 29.3423 204.182C28.9579 203.977 28.543 203.834 28.1135 203.76C27.9509 203.752 27.7897 203.725 27.6335 203.678C27.7931 203.662 27.954 203.662 28.1135 203.678C28.5595 203.723 28.9937 203.849 29.3951 204.048C29.9933 204.352 30.5138 204.788 30.9167 205.325C31.4034 205.976 31.7901 206.696 32.0639 207.461C32.3469 208.207 32.5638 208.976 32.7119 209.76C32.8193 210.408 32.8883 211.062 32.9183 211.718C32.9183 212.28 32.9471 212.731 32.9471 213.043C32.9562 213.213 32.9481 213.384 32.9231 213.552Z" fill="#263238"/>
<path d="M32.8608 212.534C32.8504 212.46 32.8504 212.384 32.8608 212.309C32.8608 212.141 32.8608 211.93 32.8608 211.67C32.8608 211.118 32.8992 210.312 32.8944 209.323C32.8944 207.336 32.8032 204.595 32.5536 201.576C32.304 198.557 31.9344 195.816 31.5936 193.896C31.512 193.416 31.4304 192.965 31.3488 192.581C31.2672 192.197 31.2096 191.861 31.1472 191.587C31.0848 191.314 31.0464 191.107 31.0128 190.963C30.9941 190.891 30.9829 190.817 30.9792 190.742C30.9792 190.742 31.0128 190.814 31.0512 190.954C31.0896 191.093 31.152 191.318 31.2192 191.573C31.2864 191.827 31.3728 192.173 31.4592 192.557C31.5456 192.941 31.6416 193.382 31.7328 193.872C32.2122 196.412 32.5551 198.975 32.76 201.552C33.0096 204.576 33.0864 207.312 33.048 209.318C33.048 210.312 32.9904 211.118 32.9472 211.67C32.9472 211.93 32.9088 212.15 32.8944 212.309C32.8883 212.385 32.877 212.46 32.8608 212.534Z" fill="#263238"/>
<path d="M32.9904 207.24C32.9703 207.016 32.9703 206.792 32.9904 206.568C33.0288 206.141 33.1008 205.522 33.2448 204.768C33.6256 202.796 34.2445 200.878 35.088 199.056C35.9002 197.214 37.0385 195.535 38.448 194.098C38.6944 193.853 38.9557 193.624 39.2304 193.411C39.3504 193.315 39.456 193.219 39.5616 193.142L39.864 192.946C40.0454 192.818 40.2364 192.704 40.4352 192.605C39.7741 193.097 39.1441 193.629 38.5488 194.198C37.1793 195.646 36.0659 197.317 35.256 199.138C34.7985 200.132 34.4057 201.155 34.08 202.2C33.8034 203.051 33.5711 203.917 33.384 204.792C33.2256 205.541 33.1296 206.155 33.0672 206.578C33.0565 206.8 33.0309 207.021 32.9904 207.24Z" fill="#263238"/>
</svg>
