<svg width="292" height="292" viewBox="0 0 292 292" fill="none" xmlns="http://www.w3.org/2000/svg">
<path d="M259.693 61.4076C266.117 79.424 265.533 99.9049 261.2 118.225C252.662 154.521 229.664 187.195 198.344 207.454C167.024 227.713 127.814 235.352 91.2092 228.262C73.1402 224.758 55.3399 217.575 42.048 204.844C22.1336 185.759 13.8467 154.269 21.2051 127.756C24.9801 114.364 32.3738 102.272 42.5736 92.8093C53.6696 82.5192 69.315 78.3961 82.4725 71.2597C101.902 60.7477 117.758 44.5125 136.96 33.5625C155.741 22.8578 177.775 17.4674 199.249 19.8969C218.912 22.1219 244.381 32.3069 254.647 50.3525C256.646 53.8844 258.335 57.5833 259.693 61.4076Z" fill="#F5951D"/>
<path opacity="0.7" d="M259.693 61.4076C266.117 79.424 265.533 99.9049 261.2 118.225C252.662 154.521 229.664 187.195 198.344 207.454C167.024 227.713 127.814 235.352 91.2092 228.262C73.1402 224.758 55.3399 217.575 42.048 204.844C22.1336 185.759 13.8467 154.269 21.2051 127.756C24.9801 114.364 32.3738 102.272 42.5736 92.8093C53.6696 82.5192 69.315 78.3961 82.4725 71.2597C101.902 60.7477 117.758 44.5125 136.96 33.5625C155.741 22.8578 177.775 17.4674 199.249 19.8969C218.912 22.1219 244.381 32.3069 254.647 50.3525C256.646 53.8844 258.335 57.5833 259.693 61.4076Z" fill="white"/>
<path d="M145.93 263.6C213.904 263.6 269.008 249.685 269.008 232.52C269.008 215.354 213.904 201.439 145.93 201.439C77.9557 201.439 22.8518 215.354 22.8518 232.52C22.8518 249.685 77.9557 263.6 145.93 263.6Z" fill="#F5951D"/>
<path opacity="0.5" d="M145.93 263.6C213.904 263.6 269.008 249.685 269.008 232.52C269.008 215.354 213.904 201.439 145.93 201.439C77.9557 201.439 22.8518 215.354 22.8518 232.52C22.8518 249.685 77.9557 263.6 145.93 263.6Z" fill="white"/>
<path d="M223.263 82.198V160.115L220.285 159.747V84.6391C220.284 83.9213 220.123 83.2128 219.815 82.5644C219.507 81.9161 219.059 81.3442 218.504 80.8898C214.153 77.3508 203.033 68.7835 199.121 70.4538C195.453 72.0189 179.183 125.449 171.205 152.301C168.513 161.353 166.767 167.386 166.767 167.386L162.907 168.075C162.907 168.075 164.659 161.482 167.392 151.647C175.159 123.72 190.88 69.7179 197.042 66.9206C197.158 66.8675 197.282 66.834 197.409 66.8213C199.161 66.6519 201.416 67.2534 203.833 68.2988C204.528 68.5966 205.241 68.9295 205.965 69.2974C207.133 69.8814 208.348 70.553 209.539 71.2655C210.176 71.6451 210.812 72.0306 211.443 72.4335C212.611 73.1694 213.738 73.9227 214.819 74.6644L216.045 75.517C217.184 76.3346 218.247 77.1114 219.181 77.8122C220.115 78.513 220.787 79.0386 221.406 79.5233L222.27 80.2066C222.549 80.4275 222.778 80.7053 222.941 81.0215C223.104 81.3377 223.198 81.685 223.216 82.0403C223.237 82.0911 223.253 82.144 223.263 82.198Z" fill="#F5951D" stroke="#263238" stroke-miterlimit="10"/>
<path d="M226.405 64.6605L203.869 68.293L198.029 69.2332C197.947 69.2387 197.865 69.2387 197.783 69.2332C197.468 69.2449 197.157 69.1473 196.905 68.9569C196.653 68.7664 196.474 68.4948 196.399 68.1878C196.355 67.9343 196.391 67.6733 196.503 67.4417C196.616 67.21 196.798 67.0196 197.024 66.8972C197.176 66.8104 197.342 66.7511 197.515 66.722L225.88 62.1551C226.231 62.0824 226.598 62.148 226.902 62.3383C227.207 62.5287 227.426 62.8291 227.515 63.1771C227.544 63.3479 227.538 63.5228 227.497 63.6912C227.456 63.8595 227.382 64.0179 227.278 64.1566C227.174 64.2953 227.043 64.4115 226.893 64.4981C226.743 64.5847 226.577 64.64 226.405 64.6605Z" fill="#F5951D" stroke="#263238" stroke-miterlimit="10"/>
<path d="M234.079 67.0315L209.551 71.2597L206.818 71.7269C206.738 71.7327 206.658 71.7327 206.578 71.7269C206.272 71.7254 205.976 71.619 205.739 71.4256C205.502 71.2322 205.339 70.9634 205.276 70.664C205.226 70.3856 205.27 70.0985 205.401 69.8478C205.532 69.5972 205.743 69.3974 206 69.2799C206.116 69.2218 206.24 69.1805 206.368 69.1573L233.6 64.4853C233.946 64.4181 234.305 64.4903 234.598 64.686C234.891 64.8818 235.095 65.1853 235.165 65.5306C235.194 65.7007 235.189 65.8749 235.15 66.043C235.111 66.211 235.039 66.3696 234.938 66.5094C234.836 66.6492 234.708 66.7674 234.561 66.857C234.413 66.9467 234.25 67.006 234.079 67.0315Z" fill="#F5951D" stroke="#263238" stroke-miterlimit="10"/>
<path d="M239.86 70.08L214.854 74.6469L212.045 75.1608C211.965 75.1694 211.885 75.1694 211.805 75.1608C211.477 75.1591 211.161 75.0405 210.912 74.8265C210.664 74.6124 210.5 74.3168 210.45 73.9928C210.383 73.6436 210.452 73.2819 210.643 72.9821C210.834 72.6823 211.133 72.4671 211.478 72.381H211.56L239.376 67.3002C239.555 67.2692 239.739 67.2739 239.917 67.3141C240.094 67.3543 240.262 67.4292 240.411 67.5344C240.56 67.6397 240.686 67.7733 240.783 67.9275C240.88 68.0817 240.946 68.2535 240.976 68.4331C241.046 68.7994 240.968 69.1786 240.759 69.4873C240.55 69.7961 240.227 70.0093 239.86 70.08Z" fill="#F5951D" stroke="#263238" stroke-miterlimit="10"/>
<path d="M245.239 73.1343L219.216 77.8063L216.752 78.2443C216.668 78.2529 216.584 78.2529 216.501 78.2443C216.166 78.2399 215.844 78.1168 215.591 77.8971C215.339 77.6773 215.173 77.3751 215.122 77.0443C215.072 76.7134 215.14 76.3754 215.316 76.0904C215.491 75.8053 215.762 75.5918 216.08 75.4878C216.137 75.4681 216.196 75.4544 216.255 75.447L244.743 70.337C244.929 70.2952 245.122 70.2915 245.309 70.3262C245.497 70.3609 245.676 70.4333 245.835 70.539C245.994 70.6446 246.13 70.7813 246.234 70.9409C246.339 71.1005 246.41 71.2796 246.444 71.4675C246.477 71.6554 246.472 71.8481 246.429 72.034C246.386 72.22 246.306 72.3953 246.194 72.5494C246.081 72.7035 245.939 72.8332 245.775 72.9308C245.61 73.0283 245.428 73.0916 245.239 73.1168V73.1343Z" fill="#F5951D" stroke="#263238" stroke-miterlimit="10"/>
<path d="M251.348 76.8077C251.166 76.9613 250.946 77.0623 250.711 77.0997L223.263 82.0286L222.241 82.2097C222.158 82.2155 222.074 82.2155 221.99 82.2097C221.665 82.207 221.351 82.0923 221.1 81.8848C220.85 81.6773 220.678 81.3898 220.615 81.0708C220.552 80.7517 220.601 80.4206 220.754 80.1334C220.906 79.8462 221.153 79.6204 221.453 79.4941C221.544 79.4547 221.641 79.4273 221.739 79.4123L250.227 74.3023C250.497 74.2531 250.775 74.2856 251.027 74.3958C251.251 74.4906 251.447 74.642 251.595 74.8353C251.744 75.0286 251.839 75.2571 251.873 75.4984C251.906 75.7398 251.877 75.9857 251.787 76.2121C251.697 76.4385 251.55 76.6377 251.359 76.7902L251.348 76.8077Z" fill="#F5951D" stroke="#263238" stroke-miterlimit="10"/>
<path opacity="0.3" d="M250.711 77.088L223.263 82.017C223.269 82.0733 223.269 82.13 223.263 82.1863V123.65L220.285 127.832V84.6391C220.284 83.9213 220.123 83.2128 219.815 82.5644C219.507 81.9161 219.059 81.3442 218.504 80.8898C214.153 77.3508 203.034 68.7835 199.121 70.4538C195.453 72.0189 179.183 125.449 171.206 152.301L167.888 152.885L167.392 151.636C175.159 123.709 190.881 69.7062 197.042 66.9089C197.194 66.8221 197.36 66.7628 197.532 66.7337L225.897 62.1668C226.249 62.0941 226.615 62.1597 226.92 62.35C227.224 62.5404 227.444 62.8408 227.532 63.1888C227.559 63.3605 227.55 63.5357 227.506 63.7038C227.462 63.8719 227.385 64.0293 227.278 64.1665C227.172 64.3037 227.038 64.4177 226.886 64.5016C226.734 64.5855 226.566 64.6376 226.394 64.6546L203.857 68.2871C204.552 68.585 205.264 68.9178 205.989 69.2858C206.105 69.2276 206.229 69.1863 206.357 69.1631L233.588 64.4911C233.934 64.424 234.293 64.4961 234.586 64.6919C234.879 64.8876 235.083 65.1912 235.154 65.5365C235.184 65.707 235.179 65.8818 235.14 66.0505C235.102 66.2193 235.03 66.3786 234.928 66.519C234.827 66.6594 234.699 66.7782 234.551 66.8682C234.403 66.9582 234.239 67.0177 234.067 67.0432L209.539 71.2714C210.176 71.651 210.812 72.0364 211.443 72.4394H211.525L239.341 67.3586C239.52 67.3276 239.704 67.3323 239.882 67.3725C240.06 67.4127 240.228 67.4876 240.376 67.5928C240.525 67.6981 240.651 67.8317 240.748 67.9859C240.845 68.1401 240.911 68.3119 240.941 68.4915C241.008 68.856 240.928 69.2322 240.719 69.5383C240.511 69.8445 240.189 70.0559 239.826 70.1267L214.819 74.6936L216.045 75.5462C216.102 75.5265 216.161 75.5128 216.22 75.5054L244.708 70.3954C244.894 70.3536 245.087 70.3499 245.274 70.3846C245.462 70.4193 245.641 70.4917 245.8 70.5973C245.959 70.703 246.095 70.8397 246.199 70.9993C246.304 71.1589 246.375 71.338 246.409 71.5259C246.442 71.7138 246.437 71.9065 246.394 72.0924C246.351 72.2784 246.271 72.4537 246.159 72.6078C246.046 72.7619 245.904 72.8916 245.74 72.9892C245.575 73.0867 245.393 73.15 245.204 73.1752L219.181 77.8472C220.04 78.4896 220.787 79.0736 221.406 79.5583C221.498 79.519 221.594 79.4915 221.692 79.4766L250.18 74.3666C250.45 74.3173 250.729 74.3499 250.98 74.46C251.108 75.2834 251.214 76.0835 251.313 76.8544C251.135 76.9815 250.928 77.0618 250.711 77.088Z" fill="black"/>
<path d="M261.287 190.419C261.287 190.419 257.024 182.967 247.085 185.461C242.78 186.045 239.37 194.361 239.37 204.517C239.37 215.029 243.037 223.584 247.546 223.608L247.581 223.771C247.581 223.771 255.371 225.523 259.968 221.587C264.564 217.651 261.287 190.419 261.287 190.419Z" fill="#263238"/>
<path d="M257.509 222.405C261.595 222.405 264.908 214.705 264.908 205.206C264.908 195.707 261.595 188.007 257.509 188.007C253.422 188.007 250.11 195.707 250.11 205.206C250.11 214.705 253.422 222.405 257.509 222.405Z" fill="#263238"/>
<path opacity="0.3" d="M257.509 222.405C261.595 222.405 264.908 214.705 264.908 205.206C264.908 195.707 261.595 188.007 257.509 188.007C253.422 188.007 250.11 195.707 250.11 205.206C250.11 214.705 253.422 222.405 257.509 222.405Z" fill="black"/>
<path d="M259.168 204.096C259.168 209.528 257.316 213.925 255.033 213.925C254.747 213.925 254.466 213.859 254.21 213.732C252.329 212.81 250.91 208.85 250.91 204.096C250.91 199.343 252.329 195.389 254.21 194.466C254.465 194.338 254.747 194.27 255.033 194.268C257.316 194.268 259.168 198.671 259.168 204.096Z" fill="white" stroke="#263238" stroke-miterlimit="10"/>
<path d="M257.509 204.096C257.509 208.85 256.096 212.81 254.209 213.732C252.329 212.81 250.91 208.85 250.91 204.096C250.91 199.343 252.329 195.389 254.209 194.466C256.096 195.389 257.509 199.348 257.509 204.096Z" fill="white" stroke="#263238" stroke-miterlimit="10"/>
<path d="M263.466 177.933C263.466 181.513 263.845 184.55 261.06 186.027C258.274 187.505 253.327 189.829 251.132 200.925C249.164 210.853 251.389 214.182 248.048 215.087C245.449 215.8 225.71 220.588 217.16 222.679L213.23 223.631L191.92 209.358L191.4 209.008L189.035 207.419L191.4 196.382L191.675 195.097L202.899 179.381L222.171 159.958L231.515 154.258C231.515 154.258 253.643 154.532 254.823 155.846C256.002 157.16 256.312 157.873 256.884 163.205C257.456 168.537 256.779 170.651 260.388 171.696C263.512 172.59 263.53 173.95 263.483 176.625C263.477 177.022 263.466 177.46 263.466 177.933Z" fill="#F5951D"/>
<path opacity="0.3" d="M250.91 155.052C250.91 155.052 250.723 155.192 250.717 155.21C249.088 156.512 241.28 160.314 236.549 167.018C231.819 173.722 227.147 182.307 227.246 187.382C228.093 187.946 228.694 188.81 228.928 189.8V193.234C220.051 201.27 213.744 208.289 213.744 208.289L191.92 209.341H191.4V195.465L191.675 195.079L202.899 179.364L222.171 159.94L231.515 154.24C231.515 154.24 244.246 154.404 250.91 155.052Z" fill="black"/>
<path d="M216.174 222.866L247.289 215.373C248.043 215.184 248.715 214.756 249.205 214.153C249.694 213.549 249.975 212.803 250.005 212.027C250.209 206.964 251.027 196.09 254.379 191.47C256.808 188.112 259.302 186.658 261.06 186.027C261.761 185.779 262.369 185.319 262.798 184.712C263.228 184.104 263.459 183.378 263.46 182.634V175.235C263.461 174.397 263.171 173.586 262.637 172.94C262.104 172.294 261.363 171.854 260.54 171.696H260.417C259.656 171.555 258.961 171.171 258.435 170.603C257.909 170.035 257.58 169.312 257.497 168.542L256.376 158.422C256.287 157.588 255.91 156.812 255.31 156.228C254.709 155.644 253.924 155.287 253.088 155.221C246.705 154.719 231.48 153.791 221.833 155.478" stroke="#263238" stroke-linecap="round" stroke-linejoin="round"/>
<path d="M246.396 179.364C249.217 177.374 252.141 175.534 255.155 173.851" stroke="#263238" stroke-linecap="round" stroke-linejoin="round"/>
<path d="M214.503 207.04C222.736 198.644 231.503 190.788 240.748 183.522" stroke="#263238" stroke-linecap="round" stroke-linejoin="round"/>
<path d="M216.623 199.763C216.623 199.763 208.05 183.837 192.726 194.641" stroke="#263238" stroke-linecap="round" stroke-linejoin="round"/>
<path d="M228.893 193.374C228.893 193.374 229.646 187.75 225.459 186.243C221.272 184.737 204.675 185.332 204.675 185.332" stroke="#263238" stroke-linecap="round" stroke-linejoin="round"/>
<path d="M227.246 187.382C227.246 187.382 227.988 169.862 248.042 157.236" stroke="#263238" stroke-linecap="round" stroke-linejoin="round"/>
<path d="M214.065 204.838C214.065 204.838 209.306 196.51 198.192 199.296C193.386 199.973 189.572 209.224 189.572 220.588C189.572 232.356 193.66 241.899 198.735 241.922L198.77 242.109C198.77 242.109 207.484 244.083 212.623 239.668C217.762 235.253 214.065 204.838 214.065 204.838Z" fill="#263238"/>
<path d="M209.843 240.585C214.41 240.585 218.112 231.98 218.112 221.365C218.112 210.751 214.41 202.146 209.843 202.146C205.276 202.146 201.573 210.751 201.573 221.365C201.573 231.98 205.276 240.585 209.843 240.585Z" fill="#222221"/>
<path opacity="0.3" d="M209.843 240.585C214.41 240.585 218.112 231.98 218.112 221.365C218.112 210.751 214.41 202.146 209.843 202.146C205.276 202.146 201.573 210.751 201.573 221.365C201.573 231.98 205.276 240.585 209.843 240.585Z" fill="black"/>
<path d="M211.7 220.121C211.7 226.189 209.627 231.106 207.075 231.106C206.754 231.104 206.439 231.028 206.152 230.884C204.05 229.857 202.467 225.43 202.467 220.121C202.467 214.813 204.05 210.386 206.152 209.358C206.439 209.214 206.754 209.138 207.075 209.136C209.656 209.136 211.7 214.059 211.7 220.121Z" fill="white" stroke="#263238" stroke-miterlimit="10"/>
<path d="M209.843 220.121C209.843 225.43 208.26 229.857 206.152 230.884C204.05 229.857 202.467 225.43 202.467 220.121C202.467 214.813 204.05 210.386 206.152 209.358C208.26 210.386 209.843 214.813 209.843 220.121Z" fill="white" stroke="#263238" stroke-miterlimit="10"/>
<path opacity="0.1" d="M261.048 186.027C258.257 187.511 253.316 189.829 251.12 200.925C249.152 210.853 251.377 214.182 248.037 215.087C245.438 215.8 225.699 220.588 217.149 222.679L216.617 218.288L244.515 212.226C244.515 212.226 243.516 179.965 263.478 176.602C263.478 177.016 263.478 177.454 263.478 177.927C263.466 181.513 263.846 184.544 261.048 186.027Z" fill="black"/>
<path opacity="0.1" d="M227.246 186.226C227.246 186.226 230.937 188.766 232.882 186.81C234.826 184.854 248.066 175.807 254.204 174.353C254.204 174.353 234.108 188.369 227.626 194.414C227.626 194.414 230.966 192.632 227.626 187.99L227.246 186.226Z" fill="black"/>
<path d="M188.323 130.921C188.323 130.921 189.642 145.562 196.499 149.23C200.083 149.477 203.657 148.617 206.736 146.765C209.113 145.282 213.89 131.283 214.328 129.928L203.962 128.381L201.976 142.356C201.976 142.356 197.439 137.935 194.805 133.497C195.144 131.85 193.584 130.874 193.152 129.449C191.155 122.985 188.323 130.921 188.323 130.921Z" fill="white" stroke="#263238" stroke-linecap="round" stroke-linejoin="round"/>
<path d="M226.592 109.173C226.592 109.173 229.512 109.173 230.727 111.778C230.727 111.778 241.759 116.309 243.89 119.475C246.022 122.64 245.058 135.19 242.413 140.598C240.764 143.884 238.019 146.491 234.651 147.968L233.6 152.728L210.666 152.488L208.424 138.093L208.511 131.347L203.875 128.754C203.875 128.754 205.247 118.184 207.221 117.191C209.195 116.198 217.832 112.654 217.832 112.654C217.832 112.654 218.416 110.902 219.584 110.405C220.752 109.909 226.592 109.173 226.592 109.173Z" fill="#F5951D"/>
<path d="M243.131 138.227C243.131 138.227 240.316 148.336 238.459 150.31C238.459 150.31 233.466 150.707 229.699 149.784C225.932 148.862 210.427 142.572 208.564 140.645C206.701 138.718 210.211 136.358 210.211 136.358C212.671 137.23 215.178 137.962 217.721 138.548C222.148 139.588 229.88 140.3 232.052 141.591L233.839 136.066C235.452 135.723 237.12 135.739 238.726 136.112C240.331 136.486 241.835 137.208 243.131 138.227Z" fill="white"/>
<path d="M214.328 92.891C214.328 92.891 213.931 95.9979 215.134 101.885C216.337 107.771 217.312 109.307 218.994 109.132C220.676 108.957 220.676 109.909 220.676 109.909V113.588C220.676 113.588 222.352 120.193 223.374 120.567C224.396 120.941 227.392 115.521 228.122 113.985C228.852 112.449 228.858 105.622 228.858 105.622L229.202 100.244C229.847 100.123 230.417 99.7527 230.79 99.2136C231.163 98.6745 231.308 98.0099 231.194 97.3645C230.826 94.9467 228.046 91.7406 228.046 91.7406C228.046 91.7406 219.309 89.6557 214.328 92.891Z" fill="white"/>
<path d="M191.394 149.23C191.394 149.23 204.242 150 205.556 151.455C206.87 152.909 206.572 156.395 206.572 156.395L209.224 158.282L204.674 190.88C204.674 190.88 196.224 188.69 191.394 197.445V149.23Z" fill="#263238"/>
<path d="M217.552 96.8564C217.686 97.5314 217.66 98.2283 217.477 98.8915C217.293 99.5547 216.957 100.166 216.495 100.676C216.431 100.734 216.378 100.804 216.337 100.88C216.295 101.005 216.294 101.141 216.334 101.267C216.374 101.393 216.453 101.503 216.559 101.581C216.695 101.702 216.856 101.792 217.031 101.842C217.206 101.893 217.391 101.904 217.57 101.874C217.75 101.845 217.921 101.775 218.07 101.671C218.22 101.566 218.344 101.43 218.434 101.271" stroke="#263238" stroke-linecap="round" stroke-linejoin="round"/>
<path d="M217.365 95.2796C217.217 95.1611 217.047 95.0732 216.864 95.0208C216.682 94.9684 216.491 94.9526 216.303 94.9743C216.115 94.996 215.932 95.0548 215.767 95.1473C215.601 95.2398 215.456 95.3642 215.338 95.5132" stroke="#263238" stroke-linecap="round" stroke-linejoin="round"/>
<path d="M219.952 94.9642C220.384 94.7611 220.877 94.7289 221.332 94.874C221.787 95.0192 222.17 95.3309 222.405 95.7468" stroke="#263238" stroke-linecap="round" stroke-linejoin="round"/>
<path d="M216.827 97.4871C216.827 97.9952 216.606 98.404 216.331 98.404C216.057 98.404 215.835 97.9952 215.835 97.4871C215.835 96.979 216.057 96.5644 216.331 96.5644C216.606 96.5644 216.827 96.979 216.827 97.4871Z" fill="#263238"/>
<path d="M220.565 98.4098C220.839 98.4098 221.062 97.9967 221.062 97.4871C221.062 96.9775 220.839 96.5644 220.565 96.5644C220.291 96.5644 220.069 96.9775 220.069 97.4871C220.069 97.9967 220.291 98.4098 220.565 98.4098Z" fill="#263238"/>
<path d="M217.996 103.631C217.996 103.631 220.945 104.156 221.733 102.521" stroke="#263238" stroke-linecap="round" stroke-linejoin="round"/>
<path d="M215.835 89.352C215.835 89.352 213.528 92.9962 214.667 99.3559C215.805 105.716 217.032 108.7 219.017 109.115C221.003 109.529 226.609 106.329 227.906 104.956C229.202 103.584 229.226 100.226 229.226 100.226" stroke="#263238" stroke-linecap="round" stroke-linejoin="round"/>
<path d="M227.567 97.3645C227.567 97.3645 227.97 95.1219 229.062 94.7482C230.154 94.3744 231.212 96.1965 231.212 97.3645C231.212 98.5325 230.195 100.518 228.811 100.244" stroke="#263238" stroke-linecap="round" stroke-linejoin="round"/>
<path d="M228.747 94.9175C227.795 95.4756 226.709 95.7624 225.605 95.7468C224.122 95.5891 222.06 92.9728 219.181 93.2064C216.302 93.44 213.867 95.3964 212.927 94.6138C211.986 93.8313 213.4 91.723 213.4 91.723L214.059 90.8879C214.059 90.8879 213.884 89.1009 213.884 87.6117C213.884 86.1225 216.273 83.8274 221.196 83.5237C226.119 83.22 228.309 85.1238 229.103 85.9998C229.29 86.2101 230.855 87.9738 231.229 89.6323C231.638 91.5128 230.92 94.2342 230.744 95.7702C229.985 94.2226 228.747 94.9175 228.747 94.9175Z" fill="#263238"/>
<path d="M215.835 90.9697C215.835 90.9697 219.894 88.5519 224.595 91.9742" stroke="white" stroke-linecap="round" stroke-linejoin="round"/>
<path d="M220.694 108.963V113.588C220.694 113.588 222.194 120.117 223.392 120.567C224.589 121.016 227.445 115.69 228.064 114.265C228.385 113.5 228.531 111.713 228.601 110.212L229.238 100.244" stroke="#263238" stroke-linecap="round" stroke-linejoin="round"/>
<path d="M220.565 110.212C220.565 110.212 218.515 110.288 218.288 111.637C218.06 112.986 218.218 118.838 217.768 119.738C217.318 120.637 216.565 121.238 216.863 121.542C217.161 121.846 221.254 118.418 222.323 118.967" stroke="#263238" stroke-linecap="round" stroke-linejoin="round"/>
<path d="M225.383 118.943C226.588 119.427 227.693 120.13 228.642 121.016C229.997 122.366 231.048 120.917 230.668 120.59C230.289 120.263 229.769 119.364 230.37 116.964C230.972 114.563 230.838 110.218 228.618 109.372" stroke="#263238" stroke-linecap="round" stroke-linejoin="round"/>
<path d="M203.816 129.006C204.675 124.287 205.919 118.032 207.209 117.191C209.072 115.982 218.223 112.63 218.223 112.63" stroke="#263238" stroke-linecap="round" stroke-linejoin="round"/>
<path d="M207.513 131.984L210.316 151.402L233.571 152.728L234.388 150.473" stroke="#263238" stroke-linecap="round" stroke-linejoin="round"/>
<path d="M209.709 137.631L202.753 134.495" stroke="#222221" stroke-linecap="round" stroke-linejoin="round"/>
<path d="M206.736 139.827C205.225 135.623 202.346 132.049 198.56 129.677C194.828 127.429 190.781 126.938 187.155 128.299C183.528 129.66 180.795 132.685 179.463 136.831C179.136 137.861 178.904 138.919 178.768 139.991L181.566 140.364C181.673 139.458 181.869 138.564 182.15 137.696C183.213 134.39 185.332 131.99 188.136 130.939C189.153 130.555 190.231 130.358 191.318 130.355C193.365 130.389 195.363 130.985 197.094 132.077C198.663 133.039 200.047 134.273 201.182 135.722C202.399 137.251 203.365 138.964 204.044 140.797C205.451 144.357 205.621 148.287 204.529 151.957C203.466 155.262 201.346 157.662 198.543 158.714C196.191 159.553 193.606 159.455 191.324 158.439V161.453C192.624 161.885 193.984 162.107 195.354 162.113C196.78 162.112 198.194 161.855 199.53 161.353C203.156 159.993 205.889 156.962 207.221 152.815C207.789 151.013 208.076 149.134 208.073 147.244C208.073 144.712 207.62 142.2 206.736 139.827Z" fill="#263238"/>
<path d="M191.254 128.965C191.254 128.965 189.788 139.115 193.38 142.28C196.972 145.445 205.235 140.89 205.235 140.89L206.52 144.645C206.52 144.645 195.874 146.432 197.176 157.114L191.126 157.902V141.579L186.162 140.943C186.162 140.943 186.471 135.903 182.956 133.129C185.374 131.135 188.21 129.711 191.254 128.965Z" fill="#263238"/>
<path d="M208.844 141.199C214.684 143.249 220.664 147.25 225.961 148.867C232.146 150.754 238.085 150.573 238.441 150.31C240.158 146.936 241.576 143.418 242.681 139.798C245.017 131.838 246.325 122.208 243.908 119.457C240.748 115.866 230.744 111.76 230.744 111.76" stroke="#263238" stroke-linecap="round" stroke-linejoin="round"/>
<path d="M220.694 109.909C220.694 109.909 220.834 112.957 222.323 112.63C223.812 112.303 227.953 109.266 228.998 103.713C228.044 105.003 226.808 106.058 225.383 106.796C222.924 108.104 221.178 108.811 221.178 108.811L220.694 109.909Z" fill="#263238"/>
<path d="M209.323 134.448C209.037 133.316 208.523 132.042 207.46 131.78C207.221 131.725 206.975 131.706 206.73 131.721C204.657 131.768 202.467 132.504 201.27 134.197C201.084 134.428 200.97 134.708 200.943 135.003C200.935 135.151 200.978 135.298 201.065 135.418C201.153 135.538 201.278 135.625 201.422 135.663C201.629 135.673 201.834 135.616 202.006 135.5C202.802 135.01 203.655 134.618 204.546 134.332C205.055 134.168 205.602 134.168 206.111 134.332C206.21 134.46 206.374 134.84 206.473 134.968C204.803 135.073 201.982 136.09 201.328 137.777C201.265 137.908 201.246 138.056 201.276 138.198C201.387 138.589 201.947 138.572 202.344 138.472C203.76 138.12 205.201 137.878 206.654 137.748C206.117 137.824 205.591 138.052 205.06 138.134C204.102 138.268 203.022 138.49 202.531 139.302C202.482 139.371 202.449 139.45 202.434 139.534C202.419 139.618 202.422 139.704 202.444 139.786C202.52 139.991 202.771 140.072 202.993 140.102C203.726 140.124 204.459 140.073 205.183 139.95C205.546 139.891 205.918 139.92 206.267 140.035C206.617 140.15 206.934 140.347 207.192 140.61C207.232 141.252 207.221 141.731 207.262 142.362C207.754 142.144 208.194 141.823 208.551 141.42C208.908 141.016 209.173 140.541 209.329 140.026C209.763 138.53 209.835 136.953 209.539 135.424C209.481 135.149 209.411 134.805 209.323 134.448Z" fill="white" stroke="#263238" stroke-linecap="round" stroke-linejoin="round"/>
<path d="M232.058 141.591C232.058 141.591 234.546 136.066 234.394 131.126" stroke="#263238" stroke-linecap="round" stroke-linejoin="round"/>
<path d="M233.945 152.564C233.945 152.564 237.647 163.187 233.22 170.668C231.544 173.506 212.588 173.851 212.588 173.851L204.674 190.88L195.745 159.537L210.316 151.402L233.945 152.564Z" fill="#263238"/>
<path d="M211.905 172.917L229.962 173.851" stroke="#263238" stroke-linecap="round" stroke-linejoin="round"/>
<path d="M209.907 136.072C213.767 137.771 222.492 139.821 224.899 140.043C228.829 140.405 233.507 140.948 235.551 144.844" stroke="#263238" stroke-linecap="round" stroke-linejoin="round"/>
<path d="M233.845 136.072C233.845 136.072 238.021 134.957 243.131 138.233" stroke="#263238" stroke-linecap="round" stroke-linejoin="round"/>
<g opacity="0.2">
<path opacity="0.2" d="M218.206 155.105C215.017 156.074 210.333 157.598 205.463 159.537" stroke="white" stroke-linecap="round" stroke-linejoin="round"/>
<path opacity="0.2" d="M214.661 155.835L213.896 153.919" stroke="white" stroke-linecap="round" stroke-linejoin="round"/>
</g>
<path d="M208.844 133.088L208.126 126.237" stroke="#263238" stroke-linecap="round" stroke-linejoin="round"/>
<path d="M184.801 128.714C184.042 129.537 183.318 130.542 183.411 131.634C183.412 131.749 183.441 131.862 183.495 131.963C183.548 132.065 183.626 132.152 183.721 132.218C183.861 132.258 184.01 132.257 184.149 132.213C184.288 132.169 184.411 132.086 184.503 131.972C184.872 131.621 185.137 131.174 185.268 130.682C185.402 130.232 185.905 127.522 184.801 128.714Z" fill="white" stroke="#263238" stroke-linecap="round" stroke-linejoin="round"/>
<path d="M187.4 129.648C186.99 130.307 186.513 130.922 185.975 131.482C185.953 131.503 185.927 131.519 185.899 131.528C185.869 131.525 185.841 131.512 185.817 131.493C185.659 131.363 185.529 131.201 185.436 131.018C185.343 130.835 185.287 130.635 185.274 130.431C185.253 130.021 185.307 129.612 185.432 129.222C185.619 128.383 186.082 127.63 186.746 127.084C186.866 126.989 187.009 126.926 187.16 126.903C187.325 126.895 187.488 126.931 187.634 127.008C187.875 127.11 188.106 127.235 188.323 127.382C188.081 128.163 187.772 128.921 187.4 129.648Z" fill="white" stroke="#263238" stroke-linecap="round" stroke-linejoin="round"/>
<path d="M189.432 125.811C188.071 126.524 187.318 128.568 187.155 129.993C187.096 130.471 187.155 131.003 187.739 131.12C188.016 131.148 188.296 131.094 188.544 130.964C188.791 130.835 188.994 130.635 189.128 130.39C189.383 129.896 189.579 129.375 189.712 128.836C189.864 128.298 190.196 127.827 190.653 127.505C191.073 127.224 191.821 127.289 191.943 126.681C192.189 125.49 190.075 125.478 189.432 125.811Z" fill="white" stroke="#263238" stroke-linecap="round" stroke-linejoin="round"/>
<path d="M208.663 131.347L203.845 128.754" stroke="#263238" stroke-linecap="round" stroke-linejoin="round"/>
<path d="M189.444 44.3957V141.141L178.342 141.205L174.301 142.023V67.598L174.283 67.6038H174.277L150.1 71.7444L149.831 71.7911L150.234 137.059L138.484 135.838V54.4755L141.521 53.4302L149.831 55.1121L149.884 55.1004L173.997 49.4414L174.026 49.4298L174.277 44.1037V44.092L174.301 43.6365L178.342 42.3692L189.444 44.3957Z" fill="#F5951D"/>
<path opacity="0.3" d="M174.277 67.6038L150.491 71.6802L150.1 71.7444L149.884 55.1004L173.997 49.4414L174.242 65.443L174.277 67.6038Z" fill="black"/>
<path opacity="0.2" d="M174.277 67.6038L150.1 71.7444L150.135 69.8406L174.242 65.443L174.277 67.6038Z" fill="black"/>
<path opacity="0.2" d="M141.521 53.4302V136.16L138.484 135.838V54.4755L141.521 53.4302Z" fill="black"/>
<path opacity="0.2" d="M178.342 42.3692V141.205L174.301 142.023L174.283 67.6038L174.277 44.1037V44.092L174.301 43.6365L178.342 42.3692Z" fill="black"/>
<path d="M189.444 141.678V44.3957L178.348 42.3692L174.301 43.6365V142.642" stroke="#263238" stroke-linecap="round" stroke-linejoin="round"/>
<path d="M178.348 42.3692V142.023" stroke="#263238" stroke-linecap="round" stroke-linejoin="round"/>
<path d="M150.234 138.023L149.825 55.1062L141.515 53.4302L138.484 54.4814V137.351" stroke="#263238" stroke-linecap="round" stroke-linejoin="round"/>
<path d="M141.515 53.4302V139.173" stroke="#263238" stroke-linecap="round" stroke-linejoin="round"/>
<path d="M149.825 55.1062L174.301 49.4706" stroke="#263238" stroke-linecap="round" stroke-linejoin="round"/>
<path d="M149.884 69.8873L174.301 65.3087" stroke="#263238" stroke-linecap="round" stroke-linejoin="round"/>
<path d="M150.1 71.7444L174.301 67.598" stroke="#263238" stroke-linecap="round" stroke-linejoin="round"/>
<path d="M253.094 155.221V88.9782C253.094 86.6422 253.164 84.277 253.211 81.9352C253.246 80.0722 253.515 77.9757 252.516 76.3288C250.723 73.3504 247.54 71.3823 244.684 69.531C239.376 66.0971 233.483 63.1538 227.246 61.939C219.467 60.4031 191.149 142.42 191.149 142.42L191.394 149.241C191.394 149.241 221.348 63.9772 228.998 65.3204C233.47 66.1806 237.724 67.9302 241.507 70.4654C243.616 71.8203 245.998 72.9416 247.791 74.717C250.466 77.3625 250.127 80.7438 250.127 84.2128V99.9282C250.127 109.299 250.127 118.673 250.127 128.048V150.456C250.127 150.69 250.046 154.859 250.127 154.871L253.094 155.221Z" fill="#F5951D" stroke="#263238" stroke-miterlimit="10"/>
<path d="M190.565 220.361V240.392L184.363 242.08L164.011 238.103L160.6 239.072V248.55L150.585 251.102L129.672 246.839L126.827 247.587V257.754L113.483 261.387L94.6957 257.608V247.844L92.5525 247.774L71.0262 253.193L60.4909 250.822V241.904L55.7663 241.408L37.2769 246.442L30.4324 244.678V225.95L113.483 223.053L118.505 222.878L190.565 220.361Z" fill="#F5951D"/>
<path opacity="0.1" d="M190.565 220.361V240.392L184.363 242.08L164.011 238.103L160.6 239.072V248.55L150.584 251.102L129.671 246.839L126.827 247.587V257.754L113.483 261.387V223.053L118.505 222.878L190.565 220.361Z" fill="black"/>
<path opacity="0.3" d="M113.483 222.463V261.387L94.6957 257.608V247.844L92.5524 247.774L71.0262 253.193L60.4909 250.822V241.904L55.7663 241.408L37.2769 246.442L30.4324 244.678V215.607L113.483 222.463Z" fill="black"/>
<path opacity="0.3" d="M72.7664 244.036V253.199L92.5523 247.774L72.7664 244.036Z" fill="black"/>
<path opacity="0.3" d="M150.584 241.332V251.102L129.671 246.839L150.584 241.332Z" fill="black"/>
<path opacity="0.3" d="M184.363 242.08V232.309L164.373 237.945L184.363 242.08Z" fill="black"/>
<path opacity="0.3" d="M38.5615 238.097L57.1794 241.414L38.5615 246.413V238.097Z" fill="black"/>
<path d="M191.394 141.602V223.176L113.483 240.17L26.9458 229.185V141.602L113.483 133.497L191.394 141.602Z" fill="white"/>
<path opacity="0.1" d="M104.805 143.682L113.898 143.027L122.161 143.682V148.254L113.898 147.565L104.805 148.441V143.682Z" fill="black"/>
<path d="M26.9458 141.602V229.185L113.483 240.164L191.394 223.17V141.602L113.483 133.497L26.9458 141.602Z" stroke="#263238" stroke-linecap="round" stroke-linejoin="round"/>
<path d="M113.483 261.387V240.164V133.497" stroke="#263238" stroke-linecap="round" stroke-linejoin="round"/>
<path d="M93.1364 247.575L72.7665 253.199L60.4909 250.822V241.904L38.5617 238.097V246.413L30.4324 244.684V229.629" stroke="#263238" stroke-linecap="round" stroke-linejoin="round"/>
<path d="M38.7017 246.442L57.1794 241.414" stroke="#263238" stroke-linecap="round" stroke-linejoin="round"/>
<path d="M150.584 251.108V241.332L126.821 247.593V257.754L113.483 261.387L94.6897 257.608V247.844L72.7664 244.036V253.199" stroke="#263238" stroke-linecap="round" stroke-linejoin="round"/>
<path opacity="0.1" d="M113.483 133.497V240.17L26.9458 229.185V141.602L113.483 133.497Z" fill="black"/>
<path d="M129.671 246.839L150.584 251.05L160.6 248.55V239.072L184.363 232.309V242.086L185.443 241.788L190.565 240.392V223.351" stroke="#263238" stroke-linecap="round" stroke-linejoin="round"/>
<path d="M184.188 242.161L164.01 238.103" stroke="#263238" stroke-linecap="round" stroke-linejoin="round"/>
<path d="M26.9458 169.161L113.483 166.06L191.394 169.161" stroke="#263238" stroke-linecap="round" stroke-linejoin="round"/>
<path d="M26.9458 199.693L113.483 204.698L191.394 197.439" stroke="#263238" stroke-linecap="round" stroke-linejoin="round"/>
<path d="M158.579 138.192V167.608" stroke="#263238" stroke-linecap="round" stroke-linejoin="round"/>
<path d="M148.494 167.608V201.439" stroke="#263238" stroke-linecap="round" stroke-linejoin="round"/>
<path d="M174.102 168.472V198.782" stroke="#263238" stroke-linecap="round" stroke-linejoin="round"/>
<path d="M157.347 200.616V230.598" stroke="#263238" stroke-linecap="round" stroke-linejoin="round"/>
<path d="M79.675 136.662V202.66" stroke="#263238" stroke-linecap="round" stroke-linejoin="round"/>
<path d="M40.6172 140.324V168.472" stroke="#263238" stroke-linecap="round" stroke-linejoin="round"/>
<path d="M50.6152 168.315V201.071" stroke="#263238" stroke-linecap="round" stroke-linejoin="round"/>
<path d="M62.7976 233.734V201.708" stroke="#263238" stroke-linecap="round" stroke-linejoin="round"/>
<path opacity="0.1" d="M27.0217 181.84H34.3392V186.168L27.0217 186.092V181.84Z" fill="black"/>
<path opacity="0.1" d="M142.239 181.081V185.946L154.842 185.303V181.285L142.239 181.081Z" fill="black"/>
<path opacity="0.1" d="M55.8655 214.784V219.748L70.2144 221.19V215.607L55.8655 214.784Z" fill="black"/>
<path d="M114.301 72.1357C110.691 70.1734 109.01 71.8086 107.69 70.1734C106.37 68.5382 111.328 64.2225 101.412 59.9301C101.412 59.9301 100.775 50.6737 87.1972 50.3408C73.6192 50.0079 77.2692 59.5797 73.6484 61.8923C70.0276 64.205 69.0231 60.5725 65.4023 62.8851C61.7815 65.1978 63.4167 69.8289 60.4383 70.4771C57.4599 71.1254 53.5004 67.4987 49.862 69.8406C46.2237 72.1824 46.2296 74.1388 44.606 74.1388C42.9825 74.1388 39.6479 72.819 37.6681 74.1388C35.6884 75.4586 33.3699 77.1114 33.3699 77.1114H116.94C116.94 77.1114 117.968 74.1213 114.301 72.1357Z" stroke="#263238" stroke-linecap="round" stroke-linejoin="round"/>
<path d="M64.8242 70.81C64.3491 71.0787 63.8553 71.3129 63.3467 71.5108" stroke="#263238" stroke-linecap="round" stroke-linejoin="round"/>
<path d="M82.7178 55.3457C81.8968 55.7137 81.1761 56.2733 80.6162 56.9775C80.0563 57.6817 79.6735 58.51 79.5 59.3928C78.8634 62.4179 77.4793 64.4269 75.8675 64.6488C74.2556 64.8707 68.1879 64.2342 67.1951 66.4475C66.9226 67.1001 66.7266 67.7821 66.6111 68.4798" stroke="#263238" stroke-linecap="round" stroke-linejoin="round"/>
<path d="M118.348 99.7939C116.923 99.0231 116.274 99.6654 115.761 99.023C115.247 98.3806 117.18 96.687 113.308 95.0168C113.308 95.0168 113.045 91.4018 107.754 91.2734C102.463 91.1449 103.882 94.8883 102.457 95.7935C101.032 96.6987 100.652 95.2796 99.2275 96.179C97.8025 97.0783 98.4566 98.8946 97.2945 99.1515C96.1323 99.4085 94.5847 97.9835 93.1656 98.8946C91.7465 99.8056 91.7465 100.571 91.0982 100.571C90.45 100.571 89.1593 100.057 88.3885 100.571C87.6176 101.085 86.7065 101.739 86.7065 101.739H119.376C119.376 101.739 119.761 100.571 118.348 99.7939Z" stroke="#263238" stroke-linecap="round" stroke-linejoin="round"/>
<path d="M99.0291 99.28C98.8397 99.3824 98.6448 99.4741 98.4451 99.5545" stroke="#263238" stroke-linecap="round" stroke-linejoin="round"/>
<path d="M106.008 93.2356C105.686 93.3775 105.403 93.594 105.181 93.8672C104.96 94.1404 104.807 94.4624 104.735 94.8066C104.501 95.9746 103.952 96.7805 103.321 96.8564C102.691 96.9323 100.325 96.7046 99.9341 97.5689C99.8276 97.8234 99.753 98.0902 99.7122 98.3631" stroke="#263238" stroke-linecap="round" stroke-linejoin="round"/>
</svg>
