<svg width="20" height="20" viewBox="0 0 20 20" fill="none" xmlns="http://www.w3.org/2000/svg">
<g clip-path="url(#clip0_3895_1774)">
<path d="M7.49997 17.7778C8.26704 17.7778 8.88886 17.156 8.88886 16.3889C8.88886 15.6218 8.26704 15 7.49997 15C6.73291 15 6.11108 15.6218 6.11108 16.3889C6.11108 17.156 6.73291 17.7778 7.49997 17.7778Z" fill="#070707"/>
<path d="M14.7223 17.7778C15.4893 17.7778 16.1112 17.156 16.1112 16.3889C16.1112 15.6218 15.4893 15 14.7223 15C13.9552 15 13.3334 15.6218 13.3334 16.3889C13.3334 17.156 13.9552 17.7778 14.7223 17.7778Z" fill="#070707"/>
<path d="M18.3889 3.54999C18.3371 3.48276 18.2706 3.42828 18.1946 3.39072C18.1185 3.35316 18.0348 3.33353 17.95 3.33332H5.11665L4.86665 2.53888C4.83918 2.45358 4.7915 2.37619 4.72765 2.31331C4.6638 2.25043 4.58569 2.20393 4.49998 2.17777L2.2222 1.47777C2.15216 1.45625 2.07857 1.44873 2.00563 1.45565C1.93269 1.46257 1.86182 1.48379 1.79708 1.51809C1.66632 1.58738 1.56845 1.70576 1.52498 1.84721C1.48151 1.98866 1.49602 2.14158 1.5653 2.27234C1.63459 2.40309 1.75298 2.50097 1.89442 2.54444L3.88887 3.15555L6.43331 11.1944L5.52776 11.9389L5.45554 12.0111C5.23159 12.2704 5.10471 12.5995 5.0966 12.942C5.0885 13.2846 5.19966 13.6193 5.41109 13.8889C5.56251 14.073 5.75493 14.2192 5.97295 14.3156C6.19096 14.4121 6.42853 14.4562 6.66665 14.4444H15.9389C16.0862 14.4444 16.2275 14.3859 16.3317 14.2817C16.4359 14.1775 16.4944 14.0362 16.4944 13.8889C16.4944 13.7415 16.4359 13.6002 16.3317 13.496C16.2275 13.3919 16.0862 13.3333 15.9389 13.3333H6.57776C6.51378 13.3311 6.45145 13.3125 6.39679 13.2792C6.34213 13.2459 6.29698 13.199 6.2657 13.1432C6.23442 13.0873 6.21808 13.0244 6.21824 12.9604C6.21841 12.8963 6.23508 12.8335 6.26665 12.7778L7.60554 11.6667H16.1778C16.3047 11.6704 16.429 11.6305 16.5301 11.5536C16.6312 11.4768 16.7029 11.3677 16.7333 11.2444L18.5111 4.02221C18.528 3.93939 18.5258 3.8538 18.5046 3.77197C18.4834 3.69014 18.4438 3.61422 18.3889 3.54999Z" fill="#070707"/>
</g>
<defs>
<clipPath id="clip0_3895_1774">
<rect width="20" height="20" fill="white"/>
</clipPath>
</defs>
</svg>
