<svg width="24" height="24" viewBox="0 0 24 24" fill="none" xmlns="http://www.w3.org/2000/svg">
<g clip-path="url(#clip0_3714_3371)">
<path d="M23.2776 8.89787L14.3448 6.50267L12.7812 0.669465C12.6504 0.182265 12.1272 -0.100935 11.6136 0.034665L0.72236 2.95306C0.20876 3.08986 -0.100839 3.59866 0.0299605 4.08587L3.90596 18.5471C4.03676 19.0343 4.55876 19.3187 5.07116 19.1795L9.40676 18.0191L8.81636 20.2247C8.68556 20.7119 8.99516 21.2207 9.50876 21.3563L19.2408 23.9651C19.7544 24.1031 20.2752 23.8199 20.4072 23.3303L23.9712 10.0295C24.1008 9.54226 23.7912 9.03347 23.2776 8.89787ZM1.95956 4.35707L11.3556 1.84187L14.8332 14.8235L5.43716 17.3387L1.95956 4.35707ZM18.8136 22.1555L10.6368 19.9199L11.28 17.5175L15.9612 16.2611C16.4748 16.1255 16.7868 15.6167 16.6548 15.1295L14.8452 8.37707L21.9816 10.3343L18.8136 22.1555Z" fill="#105D38"/>
</g>
<defs>
<clipPath id="clip0_3714_3371">
<rect width="24" height="24" fill="white"/>
</clipPath>
</defs>
</svg>
