<svg width="24" height="24" viewBox="0 0 24 24" fill="none" xmlns="http://www.w3.org/2000/svg">
<path d="M2.45044 5.70001C2.45044 4.54081 3.39124 3.60001 4.55044 3.60001H14.7012C15.8604 3.60001 16.8012 4.54081 16.8012 5.70001V7.20001H17.8584C18.1929 7.20002 18.5207 7.29321 18.8052 7.46914C19.0896 7.64507 19.3194 7.89677 19.4688 8.19601L21.4104 12.078C21.5355 12.3276 21.6008 12.6028 21.6012 12.882V17.4C21.6012 17.8774 21.4116 18.3352 21.074 18.6728C20.7365 19.0104 20.2786 19.2 19.8012 19.2H17.9412C17.8035 19.8782 17.4356 20.4879 16.8998 20.9258C16.364 21.3638 15.6933 21.603 15.0012 21.603C14.3092 21.603 13.6385 21.3638 13.1027 20.9258C12.5669 20.4879 12.1989 19.8782 12.0612 19.2H10.7412C10.6035 19.8782 10.2356 20.4879 9.69979 20.9258C9.16399 21.3638 8.49325 21.603 7.80124 21.603C7.10923 21.603 6.43849 21.3638 5.90268 20.9258C5.36688 20.4879 4.99895 19.8782 4.86124 19.2H4.55044C3.99348 19.2 3.45934 18.9788 3.06551 18.5849C2.67169 18.1911 2.45044 17.657 2.45044 17.1V5.70001ZM16.8012 8.40001V12H20.0292L18.396 8.73121C18.3462 8.63167 18.2696 8.54797 18.1748 8.48948C18.0801 8.43099 17.971 8.40001 17.8596 8.40001H16.8H16.8012ZM7.80124 16.8C7.32385 16.8 6.86601 16.9896 6.52845 17.3272C6.19088 17.6648 6.00124 18.1226 6.00124 18.6C6.00124 19.0774 6.19088 19.5352 6.52845 19.8728C6.86601 20.2104 7.32385 20.4 7.80124 20.4C8.27863 20.4 8.73647 20.2104 9.07403 19.8728C9.4116 19.5352 9.60124 19.0774 9.60124 18.6C9.60124 18.1226 9.4116 17.6648 9.07403 17.3272C8.73647 16.9896 8.27863 16.8 7.80124 16.8ZM13.2012 18.6C13.2012 19.0774 13.3909 19.5352 13.7284 19.8728C14.066 20.2104 14.5238 20.4 15.0012 20.4C15.4786 20.4 15.9365 20.2104 16.274 19.8728C16.6116 19.5352 16.8012 19.0774 16.8012 18.6C16.8012 18.1226 16.6116 17.6648 16.274 17.3272C15.9365 16.9896 15.4786 16.8 15.0012 16.8C14.5238 16.8 14.066 16.9896 13.7284 17.3272C13.3909 17.6648 13.2012 18.1226 13.2012 18.6Z" fill="#9BA1A5"/>
</svg>
